<?xml version="1.0" encoding="utf-8"?>
<!-- Generator: Adobe Illustrator 24.0.3, SVG Export Plug-In . SVG Version: 6.00 Build 0)  -->
<svg version="1.1" xmlns="http://www.w3.org/2000/svg" xmlns:xlink="http://www.w3.org/1999/xlink" x="0px" y="0px"
	 viewBox="0 0 2048 2048" style="enable-background:new 0 0 2048 2048;" xml:space="preserve">
<style type="text/css">
	.st0{display:none;opacity:0.47;}
	.st1{display:inline;}
	.st2{fill:#FFFFFF;}
	.st3{fill:#F9F3DF;}
	.st4{fill:#D3145A;}
	.st5{fill:#FF2B5F;}
	.st6{fill:#AF145A;}
	.st7{fill:#D00054;}
	.st8{fill:#00D03B;}
	.st9{fill:#2570B9;}
	.st10{fill:url(#SVGID_1_);}
	.st11{fill:url(#SVGID_2_);}
</style>
<g id="圖層_2">
</g>
<g id="圖層_1">
	<g class="st0">
		<g class="st1">
			<path class="st2" d="M70.6,879.1c0-270.8,0-541.6,0-812.4c677.5,0,1355.1,0,2032.6,0c0,92,0,184.1,0,276.1
				c-3,0.5-3.7,2.3-2.5,4.8c0.7,1.5,1.7,2.9,2.5,4.3c0,8.4,0,16.7,0,25.1c-3.3-0.6-3.3-3.7-4.8-5.8c-0.6-0.9-2.1-1.1-3.2-1.6
				c-0.4,1.1-1.5,2.3-1.2,3.3c0.8,2.9,2,5.5,4.6,7.6c5.1,4.2,4.3,8.4-1.8,11c-1.5,0.6-2.9,1.3-5,2.2c2.7,2.7,5.5,4.5,6.6,7
				c1.1,2.4,0.5,5.6,0.7,8.5c-0.3,0.1-0.7,0.2-1,0.3c1.7,1.7,3.4,3.4,5.1,5.2c0,1.5,0,3,0,4.6c-1.6,0.8-3.2,1.5-4.9,2.3
				c-2.5-5.5-2.5-12-8.7-15.1c-1.8,2.8-0.3,5,0.2,7.3c0.8,3.3,2.3,6.3,0.9,9.9c-1.5,3.7,0.4,5.6,4.6,5.2c2.6-0.2,5.3-0.3,7.9-0.5
				c0,4.6,0,9.1,0,13.7c-1.4-0.2-3.1-1-4.1-0.5c-1.7,0.9-0.8,2.5-0.1,4c0.7,1.6,1.1,3.3,1.7,5.1c-6.7,1.1-7.6,0.4-8.6-5.1
				c-0.5-2.6-0.8-5.5-3.5-7.6c-2.1,5,0.2,9,1.7,12.9c1.2,3.3,1.6,6.1-0.6,9.1c-1.8,2.5-1.5,5,0.7,7.2c1.3,1.4,2.8,2.7,3.8,4.2
				c2.2,3.3,5.1,4.9,9,4.9c0,2.7,0,5.3,0,8c-3.9-1.1-7.5-2.5-9.8-6.2c-0.5-0.9-1.8-1.5-2.8-1.8c-1.3-0.4-3.7-1-4.1-0.5
				c-0.8,1.2-1.2,3.2-0.8,4.6c0.6,2.3,1.9,4.5,2.9,6.7c-0.2,0.5-0.4,1.1-0.7,1.5c-5,4.9-5.3,10.7-4.5,17.4c0.9,7.5,0.7,15.1,1,22.7
				c0,0.4,0,0.8-0.2,1.1c-2.4,2.9-0.8,5.2,0.8,7.4c7.7,0.2,9.1,1.7,10.8,10.6c0.9-0.2,1.9-0.1,2.6-0.5c2.7-1.7,3.4-4.4,3.3-7.4
				c0-2.9-1.6-4.2-4.2-5.2c-3.6-1.4-3.6-3.2-0.7-5.8c1.1-1,2.2-1.9,3.6-3.1c-0.9-1.4-1.5-2.5-2.2-3.5c-2.5-3.6-2.5-4.6,0.8-7.7
				c1.9-1.9,2.8-3.9,3-6.5c0.1-1.4,0.8-2.9,1.2-4.3c0,116.4,0,232.8,0,349.1c-0.6,2.1-1.6,4.2-1.8,6.4c-0.4,4-0.4,8.1-0.6,12.2
				c-0.1,2.5,0.1,4.9,2.4,6.5c0,27.8,0,55.5,0,83.3c-1.2,0.4-2.7,0.6-3.7,1.3c-2.1,1.5-2.3,3.8-1.5,6.1c1,2.6,3,2.5,5.1,1.7
				c0,381.5,0,762.9,0,1144.4c-538.3,0-1076.6,0-1614.9,0c0.9-4.7,0.2-6.3-3.4-7.7c-4.8-1.9-7.2-1.3-9.8,2.9
				c1.7,0.8,3.3,1.6,4.9,2.4c1.3,0.7,2.5,1.6,3.7,2.3c-11,0-22.1,0-33.1,0c-0.1-2.6-1.1-4.4-4-4.4c-2.9,0-3.8,1.9-4,4.4
				c-6.8,0-13.7,0-20.5,0c1.9-1.1,3.9-2.1,5.8-3.3c1-0.6,1.8-1.6,2.7-2.5c-1-0.7-2-1.9-3-2c-4.9-0.2-9.8-0.2-14.7,0
				c-1.8,0.1-3.8,0.4-4.5,3.6c1.6,0.5,3.2,1.1,4.8,1.7c1.8,0.7,3.6,1.6,5.5,2.4c-116,0-231.9,0-348.1,0c0-275.7,0-551.5,0-827.2
				c3.2,2,7.2,3.4,9.2,6.3c2,2.8,2.5,7.1,2.9,10.8c0.6,5.8,0.4,11.7,0.6,17.5c0.1,1.7,0.4,3.5,3.6,3.3c0.4-4.1,3-8.3,1.3-12.4
				c-2-4.7-2.2-9.3-2.1-14.3c0-3.6-0.9-7,1-10.5c0.6-1,0.1-2.6,0-3.9c-0.1-2.3-0.5-4.5-0.5-6.8c0-3.5-0.6-6.7-3-9.5
				c-2-2.3-2.5-5.1-1.1-8c1.3-2.7,1-4.8-0.9-7.2c-2.5-3.1-2.1-4.9,0.5-7.4c5.2-5,4.2-13.2-2.7-17.7c0,1.8,0.1,3.2,0,4.5
				c-0.2,1.8-0.3,3.8-1.2,5.3c-2.3,3.8-2.8,7.7-2.1,12c0.9,5.4,1.7,10.9,2.6,16.3c0.9,5.8,0.2,6.6-5.7,7c-0.8,0-1.5,0-2.3,0
				c0-23.6,0-47.2,0-70.7c5.7,2.1,6.9,4,5.1,9.7c-0.8,2.6-0.7,4.4,1.7,5.7c2,1.1,4.6-0.3,5.7-3.2c1.6-4.2,1.8-8.6-0.2-12.6
				c-1.6-3.1-4-5.7-6.3-9.1c-0.9,1-1.6,2-2.4,2.9c-1.1,1.1-2.3,2.2-3.5,3.2c0-4.6,0-9.1,0-13.7c1.2,0.5,2.4,1.1,3.7,1.3
				c3,0.6,7.4-2.2,7-4.9c-0.6-4.2-2-8.2-5.1-12.1c-0.8,1.4-1.8,2.4-1.7,3.2c0.5,3.4-1.2,5.3-3.9,6.7c0-6.5,0-12.9,0-19.4
				c3-0.3,3.7-2.4,3-4.7c-0.5-1.6-2-2.9-3-4.4c0-12.9,0-25.9,0-38.8c3.1,0.1,4.3-1.1,3.9-4.4c-0.3-2.6-1.4-4.1-3.9-4.7
				c0-36.9,0-73.8,0-110.7c0.9-0.7,2-1.2,2.6-2.1c2.5-3.3,1.9-4.7-2.6-5.9c0-20.9,0-41.8,0-62.8c1.4,0.4,3.2,1.3,3.5-1.1
				c0.2-2.5-1.6-2.6-3.5-2.3c0-10.6,0-21.3,0-31.9c1.3-0.8,3.3-1.3,3.8-2.4c0.8-2-1-3.2-2.7-4C71.3,879.3,71,879.2,70.6,879.1z
				 M1726,1745.2c0.9-1.1,1.3-1.7,1.8-2.2c10.1-10,20.2-20.1,30.2-30.1c0.8-0.8,1.5-1.7,2.1-2.7c4-6.9,8.1-13.7,11.9-20.6
				c6.5-12,12.9-24.1,19.2-36.1c2-3.9,4.2-7.7,6-11.6c3.2-7.3,5.7-14.9,9.2-21.9c4.9-9.7,8.9-19.7,12.1-30
				c3.7-11.7,7.6-23.4,10.2-35.5c1.8-8.5,5.3-16.7,7-25.2c3.2-15.8,7.5-31.3,9.6-47.4c1-8.1,2-16.2,3.1-24.3
				c0.5-4.1,1.5-8.2,1.7-12.4c0.4-9.3,0.4-18.6,0.8-27.9c0.2-6.8,0.7-13.7,1.1-20.5c0.1-0.9,0.3-1.9,0.5-2.8c1-5,2.3-10,3-15
				c1.3-10.4,2.3-20.8,3.2-31.2c0.6-7.6,1-15.1,1.2-22.7c0.2-8.7,0-17.4-0.1-26.1c-0.1-5.5-0.3-11-0.8-16.5
				c-0.6-6.2-1.7-12.4-2.6-18.6c-0.6-4.1-1-8.3-2-12.4c-2.4-10.7-4.7-21.5-4.9-32.5c0-1.1-0.1-2.3-0.4-3.4
				c-3.3-10.1-2.4-21-5.8-31.2c-3.2-9.5-4.6-19.6-7-29.3c-1.9-7.5-4.4-14.8-8-21.8c-3.6-6.9-5.5-14.5-8.5-21.7
				c-2.3-5.4-4.9-10.7-7.6-15.9c-1.6-3.1-4-5.4-7.6-6.5c-1.7-0.5-3.3-1.9-4.4-3.3c-7.2-8.8-14.2-17.8-21.4-26.6
				c-10.4-12.8-21.2-25.3-35.1-34.5c-1.7-1.2-3.2-2.6-4.9-3.9c-6-4.9-11.9-10-18.1-14.7c-3.3-2.5-7.4-4-10.6-6.6
				c-7.5-6-15.9-10.2-24.5-14.2c-8.6-4-17.3-7.7-26-11.5c-10.2-4.5-20.4-9.1-30.7-13.6c-1-0.5-2.1-0.8-3.2-1.1
				c-10.4-2.9-21-5.4-31.2-8.9c-10.2-3.5-20.1-7.9-30-12.1c-4-1.7-7.8-4-11.8-5.5c-7.9-3.1-16.1-5.7-24-8.8
				c-3.7-1.4-6.9-3.9-10.6-5.4c-8.9-3.6-18.3-6-27.2-9.7c-6.8-2.8-14.3-3.5-20.9-7.2c-0.8-0.4-1.8-0.4-2.8-0.5
				c-8.2-1.2-16.3-0.2-24.4,0.5c-7,0.5-14,1.5-21,1.8c-5.2,0.2-10.1,1.1-14.7,3.7c-2.7,1.6-4.8,0.8-5.4-2.3c-0.6-3.1-0.7-6.4-1-9.6
				c-0.8-8.1-1.3-16.2-2.5-24.3c-1.3-9.4-3.3-18.7-4.7-28c-1.4-9.6-1.9-19.3-3.6-28.8c-2.3-13-5.3-25.9-8.1-38.9
				c-2.2-10.2-4.5-20.4-6.8-30.5c-1.1-4.8-2.9-9.4-3.9-14.2c-1.4-6.7-2.9-13.2-4.6-19.8c-2.8-11.2-3.6-22.8-5.6-34.3
				c-1.5-8.8-3-17.6-5.3-26.1c-4.2-15.3-12.4-29.3-13.8-45.5c0-0.6-0.3-1.1-0.5-1.6c-3.2-10.9-6.5-21.8-9.7-32.7
				c-2.4-8.2-4.6-16.4-7.4-24.5c-4.9-14.1-9.2-28.4-13-42.9c-3.2-12.1-6.6-24.1-11.7-35.6c-2-4.5-4.4-8.8-6-13.5
				c-1.9-5.7-3.2-11.7-4.6-17.6c-0.8-3.3-1.4-6.7-1.6-10.1c-0.3-3.7,1.2-5.8,4.7-6.8c4.5-1.3,9.1-2.8,13.8-3.5c9-1.5,18-2.7,27-3.8
				c3.7-0.4,7.6,0,11.4,0c7.2,0,14.5,0.3,21.6-0.2c9.5-0.7,18.9-1.8,28.4-0.2c6,1,11.9,2.1,17.9,2.9c8.4,1.3,16.9,2.4,25.4,3.6
				c4.9,0.7,9-2.5,9.7-7.3c0.5-3.2,1.2-6.3,1.6-9.5c0.4-2.8,0.8-5.7,0.6-8.5c-0.5-5.5-1.5-10.9-2.1-16.3c-0.8-7.5-2.2-15-2.2-22.6
				c-0.1-19.9-1.2-39.9,1.5-59.8c0.8-5.8-1.2-11.3-6.6-14.1c-6.9-3.6-13.8-7.4-22.1-6.7c-2.2,0.2-4.5-0.6-6.7-1
				c-15.2-2.3-30.1-6.5-45.6-7.1c-4.9-0.2-9.8-0.5-14.7,0.2c-3.2,0.4-6.5,0.2-9.7-0.2c-16.5-1.8-33-0.9-49.6-0.1
				c-8.7,0.4-17.5,0.8-26.2-0.1c-8.4-0.9-16.6-1-24.9,0.5c-3.7,0.6-7.5,0.3-11.3,0.1c-4-0.2-7.9-1.2-11.9-1.1
				c-20.7,0.3-41.4,0.8-62.1,1.1c-4.3,0.1-8.7-0.3-13-1c-13.2-2.2-26.5-3.1-39.7-1c-13,2.1-26.1,2.2-39.2,2
				c-4.1-0.1-8.3,0.4-12.4,1.1c-9.6,1.5-19.3,3.2-28.9,1.4c-16.3-3.1-32.5-3.2-48.8-1.1c-5.4,0.7-10.8,2.3-16.2,3.3
				c-2.4,0.5-4.9,0.9-7.3,0.9c-14.1-0.3-28.1-0.7-42.1-1.3c-5.1-0.2-10.4-0.3-15.3-1.7c-9.5-2.6-19.3-3.3-28.8-2
				c-8.3,1.1-16.7,1.7-25,1.6c-13.1-0.1-26.2-1-39.3-1.3c-7.9-0.2-15.9-0.3-23.8,0.1c-5.5,0.3-10.9,1.7-16.4,2
				c-7,0.4-14.2,1.3-21,0.2c-15.9-2.6-31.8-1.2-47.8-1.6c-10.6-0.3-21.3,0.6-31.9,0.4c-5.8-0.1-11.9-0.2-17.5-1.9
				c-8.3-2.5-16.7-3.2-25.2-4.5c-4.5-0.7-8.6,0.3-11.1,4.2c-2.5,4-6,5.9-10.4,7.3c-6.3,1.9-9,6.7-8,13.2c0.9,5.6,2.2,11.1,3.2,16.7
				c0.3,1.5,0,3,0,4.5c0,2.8,0,5.6,0.1,8.5c0.4,9.1,1,18.2,1.4,27.3c0.3,5.5,0.4,11,0.5,16.5c0.2,5.9,1,11.8,0.3,17.6
				c-0.8,7-0.8,13.7-0.1,20.8c1,10.9,4.8,20.7,8,30.7c0.5,1.6,1.7,3,2.8,4.2c3.5,3.6,9.1,2.6,11.3-1.9c0.5-1,0.6-2.2,0.9-3.3
				c1.1-4.8,3.9-7.7,8.9-8.3c8.1-1,16.2-2.1,24.3-3c4.1-0.4,8.3-0.8,12.5-0.6c4.9,0.2,9.8,1.1,14.7,1.4c6.8,0.4,13.8,1.5,20.5,0.7
				c11-1.4,22-1,32.9-0.1c4.3,0.4,8.5,2,12.8,2.4c7.4,0.6,14.8,0.6,22.2,1.1c2.8,0.2,5.7,0.5,8.5,1.1c11.7,2.2,23.3,5.4,35.4,4.4
				c1.1-0.1,2.4-0.2,3.4,0.1c1.5,0.5,2.8,1.4,4.1,2c-3.1,9.9-10.7,16.4-13.8,25.5c-0.4,1.2-1.6,2.1-2.5,3.1
				c-7,7.7-11.1,17.2-15.7,26.3c-2.4,4.8-3.3,10.5-5.2,15.6c-3.1,8.4-6.5,16.6-9.7,24.9c-0.4,1-0.8,2.3-0.6,3.3
				c0.6,3.1-0.7,5.5-2.1,8.1c-0.9,1.6-1.9,3.3-2.4,5.1c-2.2,7.2-4.7,14.4-6.3,21.8c-3.4,15.5-11,29.5-15.3,44.6
				c-2.1,7.7-5.2,15-7.9,22.6c-2.2,6.2-4.4,12.5-6.5,18.7c-1.2,3.6-2.3,7.2-3.5,10.7c-1.3,3.7-2.8,7.4-4.1,11.1
				c-1.3,3.6-2.6,7.1-3.6,10.8c-1.7,6.2-3.3,12.4-4.8,18.7c-0.4,1.6-0.8,3.3-1.1,5c-1.9,9.5-4,18.8-8.4,27.6
				c-1.8,3.6-2.6,7.9-3.1,12c-0.4,3.3-1.1,6.2-2.8,9.1c-1.5,2.5-2,5.6-2.7,8.5c-0.5,2.2-0.5,4.5-1.1,6.7c-1.2,4.2-3.3,8.2-4,12.4
				c-1.6,9.3-3.5,18.5-6.8,27.5c-4.3,11.6-4.6,24.1-8.5,35.8c-3.5,10.8-6.7,21.7-10,32.5c-1,3.3-2.6,6.7-2.3,9.9
				c0.6,6.7-1.9,12.7-3.2,19c-0.9,4.5-3.3,8.7-5.3,13.8c-2.5-1.6-4.5-2.7-6.1-4.1c-4.6-4-9.7-5.2-15.8-4.6c-5.6,0.6-11.3,0.1-17,0.1
				c-2.5,0-4.9-0.2-7.4-0.1c-11.2,0.3-22.4,0.8-33.6,0.9c-7.8,0-15.6-0.4-23,2.8c-1.2,0.5-2.6,0.4-3.9,0.6
				c-10.7,1.8-21.1,4.5-31,9.1c-2.4,1.1-5,1.7-7.6,2.2c-6.3,1.2-13,1.4-19,3.5c-11.1,3.9-23.4,3.6-33.7,10c-0.8,0.5-1.8,0.6-2.7,0.8
				c-8.6,1.1-16.3,4.9-24.2,8.1c-4.7,1.9-9.2,4.4-13.6,7.1c-5.2,3.1-10.1,6.6-15.2,10c-9.9,6.7-19.8,13.3-29.6,20.1
				c-4.4,3-8.6,6.2-12.8,9.5c-5.6,4.5-12.3,8.4-16.2,14.2c-5.8,8.6-14.2,15.5-17.8,25.6c-0.2,0.7-0.9,1.2-1.5,1.7
				c-4.7,4.9-9.5,9.8-14.2,14.8c-1.7,1.8-3.4,3.7-4.4,5.9c-2.2,4.7-4.9,9-8.7,12.5c-0.9,0.9-1.6,2.1-2.3,3.2
				c-4.2,6.9-8.6,13.8-11.7,21.4c-2.7,6.4-7.1,12.1-10.1,18.4c-7.1,15.1-13.7,30.4-20.5,45.7c-1.3,2.9-2.4,6-3.4,9.1
				c-4,11.7-6.2,23.9-8.4,36c-0.7,4-1.7,7.7-4,11.1c-0.9,1.3-1.2,3.1-1.6,4.8c-1.5,5.4-3.1,10.9-4.4,16.4c-1.4,5.5-3,11-3.6,16.6
				c-1,8.4-0.5,17.1-5,24.9c-0.5,0.8-0.7,1.8-0.8,2.7c-1.5,12.4-3.4,24.8-4.3,37.3c-0.9,12.3-1,24.6-1.2,37
				c-0.2,11.4-2.6,22.7-0.2,34.1c0.3,1.5,0,3,0,4.6c-0.3,7.8-0.8,15.6-0.7,23.3c0,3.9,0.8,7.9,1.8,11.8c1.6,6.3,2.8,12.5,2.7,19.1
				c-0.1,7.8,0.6,15.6,1.2,23.3c0.2,2.2,1.2,4.4,1.8,6.6c0.9,3.1,1.7,6.1,2.5,9.2c0.8,3.3,1.3,6.7,2.3,9.9c2,6.7,5.4,13.2,6.2,20
				c0.8,6.8,2.9,12.8,5.4,18.9c4.6,11.2,8.6,22.7,11.4,34.5c0.3,1.3,0.8,2.6,1.5,3.7c2.8,4.9,5.7,9.8,8.5,14.7
				c1.3,2.3,2.4,4.7,3.6,7.1c3.8,7.9,7.4,15.8,11.3,23.6c1,2,2.8,3.7,3.8,5.7c8,16.4,19.6,30.2,32.1,43.3c7.2,7.5,15,14.5,22.8,21.5
				c5.8,5.2,11.9,10,18,14.8c10.4,8.3,20.8,16.5,31.4,24.5c4.2,3.2,8.9,5.8,13.5,8.5c2.9,1.7,6.4,2.6,9.2,4.5
				c4.2,2.8,9,3.9,13.7,5.3c2.2,0.6,4.4,1.2,6.5,2.1c9,4,17.8,8.3,26.8,12.3c4,1.7,8.3,2.8,12.4,4.2c9.8,3.4,19.7,6.8,29.5,10.4
				c9.4,3.4,18.8,6.9,28.2,10.3c0.4,0.1,0.7,0.3,1,0.5c9.9,4.3,19.2,10.1,30.3,11.1c0.6,0.1,1.1,0.2,1.6,0.5
				c9.1,4.1,18.4,7.1,28.4,8.2c2.2,0.3,4.4,1.1,6.7,1.5c14.5,2.7,28.3,8.3,43.1,10.4c14,2,27.8,4.2,41.9,3.8
				c2.3-0.1,4.5,0.3,6.8,0.6c10.4,1.1,20.8,2.4,31.2,3.2c4.5,0.4,9.1-0.2,13.7-0.2c8.9,0.1,17.8,0.6,26.7,0.5
				c11.4-0.1,22.8-0.6,34.2-0.8c7.4-0.2,14.8,0,22.2-0.4c5.9-0.3,11.7-1.1,17.5-1.8c9-1.1,18-2.9,27.1-2.7c0.6,0,1.1-0.3,1.7-0.4
				c9.9-1.7,19.8-3.3,29.8-5c2-0.4,4.2-0.6,6-1.5c5.7-2.9,11.6-4.5,17.9-5.1c2.2-0.2,4.5-0.7,6.6-1.6c11.5-4.8,22.9-10,34.6-14.6
				c9.2-3.6,16.8-9.2,23.6-16.2c1.1-1.1,2.2-2.1,3.4-3c6.2-4.6,13.3-8,18.9-13.4c0.7-0.6,1.7-0.9,2.4-1.5c3.1-2.4,6.7-4.4,9.3-7.3
				c4.5-5,9.9-9.4,12.5-15.9c0.3-0.9,1.1-1.5,1.6-2.3c9.4-13.7,17.4-28,20.5-44.6c0.6-3.1,2-6.2,3.7-8.8c2.3-3.7,5.6-3.7,8.5-0.6
				c2.2,2.4,4.4,4.8,6.4,7.3c3.1,3.8,6.1,7.7,8.9,11.8c3.1,4.6,4.6,10.3,9.8,13.6c0.8,0.5,1.2,1.5,1.8,2.2c4.3,5,8.6,10.1,13.1,15
				c3.1,3.3,6.4,6.4,9.8,9.4c3.1,2.7,6.5,5.2,9.7,7.8c1.9,1.6,3.5,3.5,5.5,4.9c9.9,7,20.7,12.7,29.4,21.3c0.5,0.5,1.2,0.9,1.9,1.3
				c6.5,3.5,12.8,7.3,19.5,10.4c9.4,4.4,18.9,8.8,28.7,12.4c8.3,3.1,17,5.2,25.5,7.8c3.8,1.2,7.6,2.5,11.3,3.9
				c6.2,2.3,12.3,5,18.7,6.8c7.7,2.1,15.5,3.5,23.3,5.1c2.4,0.5,4.9,0.8,7.3,1.2c8,1.4,16.2,2.4,24.1,4.2
				c11.1,2.6,22.2,5.2,33.7,5.1c3,0,6,0.5,9.1,0.7c4.9,0.4,9.8,1,14.7,1.1c4.5,0.1,9.1-0.6,13.6-0.6c11.4,0.2,22.8,0.7,34.2-0.4
				c8.7-0.8,17.5-0.7,26.2-1c8.5-0.3,17.1-0.2,25.6-1c14.9-1.5,29.8-3.5,44.7-5.3c7.1-0.9,14.1-2.8,21.4-1.8
				c2.6,0.3,5.4-0.1,7.9-0.7c6-1.6,11.9-3.7,17.9-5.4c6.6-1.8,13-4.3,20-4c2.2,0.1,4.4-0.8,6.7-1.2c4.9-1.1,9.8-3.5,15-0.8
				c0.7,0.4,2,0.4,2.7,0c8.7-3.9,18.4-4.3,27-8.7c6.6-3.3,13.8-5.3,20.7-8.1c13.5-5.3,25.6-14.2,40.2-16.9c0.5-0.1,1.1-0.4,1.6-0.7
				c6-3.7,12-7.2,17.8-11.1c6-4,11.7-8.3,17.5-12.5c2-1.4,3.9-2.9,6.4-4.9C1728.8,1745.9,1727.8,1745.7,1726,1745.2z M91.1,1444.2
				c-2.1-1-3.7-2.1-5.4-2.6c-1.7-0.5-3.6,0.4-3.1,2.2c1.2,5.1-1,9.7-1.5,14.5c-0.3,2.2,0,4.6,0.6,6.8c1,3.8,2.3,7.6,3.8,11.2
				c2.1,4.7,2,9.4,1.2,14.4c-0.6,4-1.9,7.9-1.5,12.3c0.8,7.8,3.9,15.6,1.6,23.6c2,5.5,0.9,10.9,0.1,16.5c-0.7,5.6-0.7,11.8,1.7,17.4
				c0.3,0.7,0.6,1.7,0.3,2.2c-2,3.2-0.3,6.7-0.9,9.7c-1,5.2,0.9,8.7,3.3,12.7c1,1.6,1.7,4,1.3,5.8c-1.6,7.3-3.3,14.4-0.6,21.7
				c0.4,1.2,0.4,2.6,0.4,4c-0.2,5.4,0.3,10.6,2.6,15.6c0.5,1,0.8,2.3,0.6,3.3c-0.7,5.3,2.1,9.5,4.4,13.8c2.2,4.1,2.4,4.2-1.2,6.7
				c-1.9,1.3-2.5,2.7-1.8,4.8c0.5,1.4,1.1,2.9,1.3,4.4c0.5,4.6,5.3,8.6,2,13.9c-0.3,0.4,0.6,1.4,0.7,2.1c0.3,3.2,0.5,6.4,0.6,9.6
				c0.1,2.8-0.1,5.6-0.1,8.5c0.1,3.8,0,7.6,0.5,11.2c0.5,3.5,1.6,6.9,2.7,10.3c0.9,2.7,2.2,5.1,0.4,8.1c-0.8,1.4-0.6,3.6-0.5,5.3
				c0.3,2.8,1.3,5.5,1.4,8.3c0.1,5.2,1.4,9.8,4.9,13.6c2,2.2,2.8,4.3,1.2,7.1c-0.7,1.3-1.2,2.9-1.1,4.3c0.4,4.8-2.1,10.3,2.7,14.3
				c0.1,0.1,0.2,0.4,0.2,0.5c-0.5,6.5,4.3,13-0.4,19.5c-0.6,0.8-0.1,2.6,0.1,3.9c1.3,7.9,2.9,15.7,3.7,23.6
				c0.4,3.9,1.2,7.4,4.4,10.1c-3.7,3.5-3.5,7.8-2.6,11.9c0.7,3.3,1.9,6.6,3.3,9.7c0.8,1.8,1,3.4,0.7,5.4c-0.4,3.9-0.6,8,0.1,11.8
				c1.2,6.3,3.6,12.3,4.8,18.6c1.4,7.4,2.3,14.8,2.7,22.3c0.3,5.9-1.3,12,1.6,17.7c0.2,0.3,0.1,0.8,0.1,1.1
				c0.4,6.1,0.6,12.1,1.3,18.2c0.5,3.7,1.8,7.3,2.7,10.9c0.3,1.1,0.7,2.3,0.5,3.3c-1.4,7,3,11.6,6.8,17.5c1.4-3.8,1.1-6.5-0.1-9.4
				c-0.8-1.8-1.2-4-1.2-6c0-3,0.5-5.9,0.6-8.9c0.2-4.1,0.3-8.3,0.3-12.5c0-3-0.1-6.1-0.3-9.1c-0.5-7.6-3.9-14.9-1.3-22.7
				c0.1-0.3,0-0.8-0.1-1.1c-3-7.5-1.1-15.9-4.9-23.3c-0.6-1.2-0.3-3-0.3-4.5c0-3.2,0.2-6.5,0-9.7c-0.2-3.5-1.8-7.4-0.9-10.5
				c1.4-5.1,0.4-9.6-0.5-14.4c-1.9-9.8-3.6-19.7-5.5-29.5c-0.4-1.8-1.1-3.7-2.3-5.1c-1.9-2.3-1.6-4.3-0.7-6.8
				c1.5-4.1,1.9-8.1,0.8-12.7c-1.4-5.8-3.5-11.6-2-17.8c1-4.5,0.6-9.1-0.6-13.4c-1.9-7-2.2-14.6-6.8-20.8c-0.8-1-0.8-2.9-0.7-4.3
				c0.4-5.2,1.1-10.4,1.5-15.6c0.1-0.7-0.5-1.4-0.7-2.1c-0.3-1.4-0.6-2.9-0.9-4.3c-0.5-2.2-0.6-4.5-1.6-6.4
				c-1.3-2.4-1.3-4.1,0.5-6.2c0.8-0.9,1.5-2.2,1.6-3.4c0.7-5.7,0.2-11.2-2-16.7c-1.1-2.7-1.4-6-0.9-8.8c0.8-5.7,0.1-11-3.3-15.6
				c-1.3-1.8-1.8-3.2-0.6-5.1c2.9-4.9,2.3-9.7,0-14.7c-0.8-1.7-1.4-3.6-1.3-5.5c0.1-4.3-1-7.8-4.6-10.4c-1.6-1.2-3-2.9-2.3-6
				c2.2,1.1,4.1,2.1,7,3.5c-0.4-3.4-0.6-6-0.9-8.5c-0.2-2.2-1-4.6-0.6-6.7c2-9.4-3.2-18.2-1.5-27.3c-6.4-0.9-6.4-0.9-7.1-5.2
				c1.3-0.5,2.6-0.9,4.1-1.5c0-2,0.3-3.7-0.1-5.3c-0.8-3.9-1.1-7.7-0.1-11.7c0.6-2.7-0.1-5.2-3-6.7c-1.1-0.6-1.8-2.1-2.9-3.4
				c3.9-3,7.1-5.8,5.8-10.7c-0.5-2-1.5-3.9-2.5-5.6c-1.2-1.9-1.8-3.6-1-5.9c2.5-6.7,2.5-6.7-2.5-11.3c-0.4-0.4-0.5-1-0.7-1.3
				c0.1-0.5,0.1-0.9,0.3-1.2c4.2-5.6,4.5-11.4,1.1-17.6c-0.6-1.2-0.9-3.1-0.3-4.3c1.8-3.6,1.5-6.9-0.2-10.4c-0.7-1.5-0.9-3.3-0.9-5
				c0.2-5.3-0.9-9.9-4.6-14.1c-3-3.4-2.3-6.4,1.2-9c1.8-1.4,2.1-2.8,1.7-4.9c-0.5-2.9-1.3-6.2-0.6-9c3.6-14.5-0.6-27.7-5.2-41.7
				c-2.7,1.6-4.8,2.9-6.9,4c-2.8,1.5-3.5,3.7-2.8,6.7c0.5,2,0.9,4.1,0.9,6.2c-0.1,4.9,1.9,8.5,6.3,10.6c3.3,1.6,4.7,4.1,4.7,7.7
				c0,1.9,0.6,3.8,0.7,5.6C91.9,1441.7,91.4,1442.9,91.1,1444.2z M76.7,1332.5c-2.5,2.2-1.6,3.5-0.4,4.9c1.4,1.6,2.5,3.6,1,5.7
				c-2.8,3.8-1.5,6.4,1.7,9.2c2.7,2.4,2.6,3.9,0,6c-1.9,1.5-2.4,3.1-2.2,5.4c0.1,1.4-0.6,2.9-0.6,4.4c-0.1,3.4-0.5,6.8,0,10.1
				c0.4,3.4,3,5.2,5.3,4.5c1.9-0.5,2.6-2.8,1.7-6.4c-0.3-1.3-0.8-2.6-0.9-3.9c-0.1-1,0.4-2.1,0.7-3.5c2,1,3.6,1.7,5.6,2.7
				c1.5-4.3,2.3-7.9,1.4-12.3c-1.4-6.8-5.8-13-3.6-20.3c-2.3-0.8-4.2-1.1-5.7-2.1C79.1,1335.9,78.1,1334.2,76.7,1332.5z
				 M2082.7,543.5c-0.4,0.9-0.8,1.4-0.8,1.9c0.5,7.9,0.8,15.9,1.6,23.8c0.2,2,1.5,4.7,3.1,5.7c2.9,1.8,4.7,4.3,6.6,6.9
				c0.8,1.1,1.8,2,2.7,2.9C2099.7,568,2095.2,554.6,2082.7,543.5z M2090.6,652.3c-3.3,2.9-3.7,3.1-3.2,5.6c0.7,3.7,2.1,7.2,3.1,10.8
				c0.5,1.8,1.8,3.8,1.3,5.3c-2.3,6.9,2.1,12,4.6,17.5c0.5,1,2.3,1.4,3.5,2c0.5-1.1,1.5-2.2,1.5-3.3c-0.1-8.3-0.3-16.6-0.8-24.9
				c-0.1-1.3-1.6-3.4-2.7-3.7C2093.1,660.7,2090.5,658.1,2090.6,652.3z M2086.3,578.9c-1.6,3.6-2.8,6.5-1.9,9
				c1.3,3.4,0.5,6.2-0.2,9.4c-0.4,2.2-0.5,4.5-0.2,6.8c0.2,1.3,1.1,3.2,2.1,3.6c3,1,6.1,1.9,9.2,1.9c3.2,0,4.2-1.5,4-4.8
				c-0.2-4.3-1.5-8.2-5.3-10.8c-3.9-2.7-7-5.7-6.2-11.1C2088.2,582,2087.3,581,2086.3,578.9z M2091.2,691.9c-1.7,2.8-2.6,4.5-3.7,6
				c-2,3.1-1.3,10.6,1.5,13c0.7,0.6,1.7,1.2,2.5,1.1c2.5-0.4,3.7,0.6,4.8,2.8c0.4,0.8,2.6,0.7,4,1c0.2-1.2,0.7-2.4,0.6-3.5
				c-0.2-2.6-0.7-5.2-1.1-7.7c-0.2-1.3-0.2-2.8-0.9-3.8C2096.6,697.9,2094.1,695.2,2091.2,691.9z M1037.6,2107.2
				c-3.4-2.5-6.2-3.7-9.9-3.5c-4.3,0.2-8.6-0.6-12.9-0.9c-1.7-0.1-3.4-0.3-5.1-0.3c-3.4,0-6.8-0.1-10.1,0.1c-0.9,0-1.7,0.8-3.6,1.6
				c2.2,0.8,3.4,1.5,4.6,1.6c11.7,1,23.3,1.9,35,2.7C1036.1,2108.6,1036.5,2108,1037.6,2107.2z M173.1,2080.6
				c-0.2-0.5-0.4-1.1-0.8-1.4c-4.9-3.5-10.5-2.3-15.8-2.2c-2,0-2.4,2.7-0.9,4.5C160.7,2087.3,168,2087,173.1,2080.6z M2095.7,627.3
				c3.2-6.5,1.2-9.4-10-14.6C2084.7,618.6,2088,623.5,2095.7,627.3z M364.7,2111.9c1.1-0.9,2.9-1.8,3.5-3.2c1.1-2.2-0.8-3.4-2.6-4.1
				c-1.9-0.8-3.8-1.7-5.8-2c-2.3-0.3-4,1-4.5,3.3c-0.5,2.2,0.7,3.6,2.7,4.2C360,2110.7,362,2111.2,364.7,2111.9z M2089.4,775.7
				c0.3-3.1-0.1-6,0.8-8.2c1.9-4.5,0.6-7.9-2.1-11.5c-0.8,0.5-1.6,0.8-1.9,1.4c-1.9,3-1.1,14.2,1.2,17.1
				C2087.7,774.9,2088.3,775.1,2089.4,775.7z M2100.9,929.2c-4.3,3.1-6.2,6.7-7.5,10.6c-0.6,1.9,0.4,4.1,2.5,4.4
				c1.3,0.1,3.4-1.2,3.9-2.4C2101.3,938.2,2102.2,934.4,2100.9,929.2z M2101,802c0.6-1.7,0.9-2.1,0.8-2.4
				c-1.5-6.4-2.9-12.9-4.6-19.2c-0.2-0.7-2.1-1-3.3-1.5c-0.3,1.1-1.1,2.4-0.8,3.4c1.4,4.5,2.9,9,4.6,13.4
				C2098.4,797.5,2099.5,799.2,2101,802z M227.3,2087.6c1.4,6,5.4,7.2,9,9.2c0.6-1,1-1.6,1.4-2.2c0.3-0.7,0.7-1.4,0.9-2.1
				c1-3,0.2-4.5-2.7-4.8C233.3,2087.4,230.7,2087.6,227.3,2087.6z M2101.3,752.5c0.9-6,1.2-11.3-0.3-17.3c-2.2,2.3-5.7,2.8-5.3,6
				C2096.3,745.1,2097.3,749.2,2101.3,752.5z M279.4,2094.9c2.9,3.9,4.6,7.2,7.7,9.5c1.6,1.2,3.5,1.1,4.5-0.5c0.6-1,0.8-3.3,0.2-3.9
				C288.7,2097.1,285.5,2094.4,279.4,2094.9z M2096.3,895.5c2-1.5,3.9-3.4,2.7-6.3c-0.5-1.2-2.4-2.5-3.7-2.6
				c-0.9-0.1-2.6,1.6-2.9,2.7C2091.3,892.3,2092.9,894.3,2096.3,895.5z M2090.5,1884.7c0-0.6,0.2-1.2,0-1.7
				c-0.6-1.2-1.4-2.3-2.2-3.5c-1,1-2.1,1.8-2.9,2.9c-0.4,0.5-0.3,1.5-0.3,2.2c0.1,2.1-0.1,4.4,2.4,5.1
				C2089.2,1890.3,2090.5,1888,2090.5,1884.7z M2092.9,751.4c1.2,4.4,3.5,8.3,2.3,13.1c-0.1,0.4,1.4,1.5,2.3,1.8
				c0.3,0.1,1.7-1.3,1.6-1.8C2098.2,759.6,2097.2,754.8,2092.9,751.4z M146.5,1998c-1.5-2.3-2.3-4.4-3.9-5.7c-1-0.8-2.9,2-2.9,4.7
				c0,2.2,2,4.7,3.7,4.2C144.5,2000.8,145.3,1999.3,146.5,1998z M2091.8,827.7c-2.6,0.2-3.4,1.5-2.9,3.2c0.5,1.8,1.3,3.6,2.2,5.2
				c0.4,0.6,1.5,0.9,2.2,1.3c0.4-0.9,1.4-2,1.2-2.7C2093.9,832.3,2092.8,830.2,2091.8,827.7z M2088.6,864.7c0.5,0,1.1,0.1,1.6,0.1
				c0.7-2.9,1.5-5.8,2-8.8c0.1-1-0.8-2.2-1.2-3.3c-0.8,0.8-2.2,1.6-2.3,2.5C2088.4,858.4,2088.6,861.6,2088.6,864.7z M827.6,2103.8
				c-4.6-3.1-5.5-3.3-9.5-2.2C819.7,2105.8,821.8,2106.4,827.6,2103.8z M631.3,2109c0.3-2.5,0.4-4.3,0.7-7c-3,1.9-5.2,3.3-7.4,4.7
				c0.1,0.5,0.2,1,0.3,1.5C626.7,2108.4,628.6,2108.7,631.3,2109z M573.3,169.3c-4.8,1.9-5.3,2.6-5,6.6
				C573.3,174.7,574,173.8,573.3,169.3z M1524.4,523.9c-2.1-4-4.4-4.1-6.9-3.6c-0.6,0.1-1.5,1-1.4,1.5c0.1,0.8,0.8,2,1.3,2.1
				C1519.4,524,1521.3,523.9,1524.4,523.9z M257.5,2094.1c1.8,3.9,3.5,6,7.2,6.2C263.5,2095.2,263.4,2095,257.5,2094.1z
				 M2082.4,631.8c-0.6,3-0.5,5.7,2.3,7.8C2086.8,634,2086.5,633.1,2082.4,631.8z M341,2106c-2.8-2-5.6-3.4-10.2-1
				C334.8,2106.8,337.7,2107.5,341,2106z M573.7,2106c-3.6-3.9-4.1-4.1-7.9-1.7C568,2106.9,570.5,2107.1,573.7,2106z M312.5,2106.9
				c0.1-0.4,0.2-0.9,0.3-1.3c-1.4-0.8-2.7-1.9-4.2-2.2c-0.8-0.2-2,0.8-3,1.3c0.7,0.9,1.3,2.5,2.1,2.7
				C309.3,2107.6,310.9,2107,312.5,2106.9z M2090.3,629.8c-0.4,3.2-0.3,5.6,3.8,6.4C2094.1,633.2,2094.7,630.4,2090.3,629.8z
				 M2089.1,794c2.4-0.6,2.8-2.3,1.8-4.2c-0.3-0.6-1.8-1.1-2.2-0.9c-1.8,1.1-1.5,2.8-0.6,4.4C2088.2,793.5,2088.7,793.7,2089.1,794z
				 M2081.4,1587.2c-1.4,2.1-2.5,3.8-0.3,5.3c0.5,0.4,2.4-0.2,2.8-0.8C2085.1,1589.5,2083.9,1588.1,2081.4,1587.2z M80.8,1130.5
				c-0.5,4.9-0.5,4.9,0.9,7.9C83.5,1135.7,83.2,1133.5,80.8,1130.5z M77.7,1325.5c1-2,1.5-3.7-0.4-5.1c-0.4-0.3-1.7,0-1.9,0.4
				C74.2,1322.8,74.8,1324.3,77.7,1325.5z M76.2,1313.6c2.5-2.8,1.8-5.1,1.5-8C75.3,1308.8,75.3,1308.8,76.2,1313.6z M191.3,2081.9
				c-0.6,1.9,0.1,3.2,2.1,3.6c0.5,0.1,1.6-0.7,1.7-1.1c0.2-2.3-1.3-2.8-3.2-2.8C191.8,2081.5,191.6,2081.7,191.3,2081.9z
				 M2097.6,335.8c-0.4,0.2-0.8,0.4-1.3,0.6c-0.2,3.2-0.2,3.2,3.7,4.1C2099,338.5,2098.3,337.1,2097.6,335.8z M534,2109.9
				c2.7,1.3,4.4,1.7,5.9-0.8C538,2107.6,536.4,2107.6,534,2109.9z M589.4,88c-4.2-1.9-4.2-1.9-6,1.2C585.7,88.7,587.5,88.3,589.4,88
				z M75.5,1003.6c-2.8,4-2.8,4,1,6.1C76.2,1007.6,75.9,1006,75.5,1003.6z M518.4,2107.1c1.5,3.4,1.5,3.4,5.2,2.2
				C521.3,2108.4,519.9,2107.7,518.4,2107.1z M2083.9,719.3c0.4-0.1,0.8-0.2,1.2-0.2c0.5-3.3,0.5-3.3-2.7-5.3
				C2083.1,716.1,2083.5,717.7,2083.9,719.3z M2079.2,1696.8c1.8,1.5,3,1.1,3.8-0.6c0.2-0.4-0.1-1.3-0.4-1.5
				C2080.9,1693.9,2079.9,1694.9,2079.2,1696.8z M2099.3,1197.8c-1-0.7-1.6-1.2-2.3-1.7c-0.5,0.7-1.3,1.4-1.3,2.2
				c0,0.6,1,1.2,1.6,1.7C2097.9,1199.4,2098.5,1198.8,2099.3,1197.8z M87.7,1394.4c0.6-0.3,1.2-0.6,1.8-1c-0.7-0.9-1.4-1.7-2.1-2.5
				c-0.1-0.1-0.9,0.4-0.9,0.5C86.8,1392.4,87.3,1393.4,87.7,1394.4z M2094.4,918.6c2.9-1.3,3.2-2.4,1.5-5
				C2095.3,915.5,2095,916.6,2094.4,918.6z M2083.3,1725.1c-0.8-0.9-1.1-1.7-1.6-1.8c-0.5-0.1-1.4,0.6-1.5,1c-0.1,0.5,0.5,1.4,1,1.6
				C2081.5,1726.1,2082.3,1725.5,2083.3,1725.1z M251.8,2093.4c-0.9-0.4-1.5-0.9-2.1-0.9c-0.3,0-0.7,0.7-1,1c0.5,0.4,1,0.9,1.6,1.1
				C250.5,2094.7,251,2094,251.8,2093.4z M76.8,1061c0.2-0.4,0.5-0.8,0.7-1.2c-0.7-0.2-1.4-0.7-2.1-0.7c-0.6,0-1.1,0.6-1.7,1
				c0.4,0.5,0.7,1.3,1.2,1.5C75.5,1061.7,76.2,1061.2,76.8,1061z M728.6,2103.1c-0.3,0.6-0.7,1.1-0.7,1.6c0,0.4,0.6,0.8,1,1.2
				c0.5-0.4,1-0.8,1.4-1.3C729.9,2104.3,729.5,2103.9,728.6,2103.1z M144.9,2021.7c-0.5-0.5-0.9-1-1.3-1.1c-0.4,0-0.8,0.4-1.3,0.6
				c0.4,0.5,0.8,1,1.3,1.3C143.8,2022.7,144.4,2022.1,144.9,2021.7z M80,1393.7c-0.5-0.5-0.9-0.8-1.3-1.2c-0.3,0.4-0.8,0.8-0.8,1.2
				c0,0.4,0.6,0.8,0.9,1.1C79.2,1394.6,79.6,1394.2,80,1393.7z M74.3,1079.2c0.5-0.5,1.2-1,1.1-1.2c-0.2-0.5-0.7-0.9-1.1-1.4
				c-0.3,0.4-0.8,0.8-0.8,1.2C73.5,1078.2,74,1078.6,74.3,1079.2z M2100.5,728c0.4-0.1,0.8-0.2,1.2-0.3c-0.2-0.7-0.5-1.4-0.7-2.2
				c-0.3,0.1-0.5,0.1-0.8,0.2C2100.3,726.5,2100.4,727.3,2100.5,728z M779.9,77.3c0,0.3,0,0.6,0.1,1c0.3,0.2,0.7,0.5,0.9,0.4
				c0.5-0.3,0.9-0.7,1.3-1.1C781.4,77.5,780.6,77.4,779.9,77.3z M581,2107.3c-0.7-0.4-1.1-0.9-1.5-0.9c-0.4,0-0.7,0.6-1,1
				c0.4,0.3,0.8,0.8,1.2,0.9C580,2108.2,580.4,2107.7,581,2107.3z M599.7,177.7c-0.2-0.3-0.3-0.7-0.5-0.8c-0.3-0.1-0.6,0.1-1,0.1
				c0.2,0.3,0.3,0.8,0.6,1C598.9,178.1,599.4,177.8,599.7,177.7z M512.2,93.2c0-0.2-0.1-0.5-0.1-0.5c-0.3,0-0.6,0.1-0.9,0.1
				c0,0.2,0.1,0.5,0.1,0.5C511.6,93.3,511.9,93.2,512.2,93.2z M1607.9,77.1c-0.2-0.2-0.4-0.5-0.6-0.6c-0.1,0-0.4,0.1-0.4,0.2
				c0,0.3,0.1,0.5,0.2,0.8C1607.4,77.3,1607.6,77.2,1607.9,77.1z"/>
			<path d="M2103.2,503.7c-0.4,1.4-1.1,2.8-1.2,4.3c-0.2,2.6-1.1,4.6-3,6.5c-3.3,3.1-3.2,4.1-0.8,7.7c0.7,1.1,1.4,2.2,2.2,3.5
				c-1.3,1.1-2.5,2.1-3.6,3.1c-3,2.6-2.9,4.3,0.7,5.8c2.6,1,4.2,2.3,4.2,5.2c0,3-0.7,5.7-3.3,7.4c-0.7,0.4-1.7,0.4-2.6,0.5
				c-1.6-8.9-3.1-10.4-10.8-10.6c-1.6-2.2-3.2-4.5-0.8-7.4c0.2-0.3,0.2-0.7,0.2-1.1c-0.3-7.6-0.1-15.2-1-22.7
				c-0.8-6.6-0.5-12.5,4.5-17.4c0.4-0.4,0.5-1,0.7-1.5c-1-2.3-2.4-4.4-2.9-6.7c-0.4-1.4,0-3.4,0.8-4.6c0.3-0.5,2.7,0.1,4.1,0.5
				c1,0.3,2.3,1,2.8,1.8c2.3,3.7,5.9,5.2,9.8,6.2C2103.2,490.8,2103.2,497.2,2103.2,503.7z M2095.2,499.2c-0.6-0.7-1-1.2-1.6-1.6
				c-0.1-0.1-1.1,0.7-1,0.9c0.2,0.6,0.7,1.2,1.1,1.7C2094.1,500,2094.5,499.7,2095.2,499.2z"/>
			<path d="M70.6,1272.7c0.8,0,1.5,0.1,2.3,0c5.9-0.4,6.6-1.2,5.7-7c-0.8-5.4-1.7-10.9-2.6-16.3c-0.7-4.3-0.1-8.2,2.1-12
				c0.9-1.5,0.9-3.5,1.2-5.3c0.2-1.4,0-2.8,0-4.5c6.9,4.5,7.9,12.6,2.7,17.7c-2.6,2.5-3,4.3-0.5,7.4c1.9,2.5,2.3,4.5,0.9,7.2
				c-1.4,2.8-0.9,5.6,1.1,8c2.4,2.8,3,6,3,9.5c0,2.3,0.4,4.5,0.5,6.8c0.1,1.3,0.5,2.9,0,3.9c-1.9,3.4-1,6.9-1,10.5
				c0,5,0.2,9.5,2.1,14.3c1.7,4.1-0.9,8.3-1.3,12.4c-3.2,0.2-3.6-1.6-3.6-3.3c-0.2-5.8-0.1-11.7-0.6-17.5c-0.4-3.7-0.9-7.9-2.9-10.8
				c-2-2.8-6.1-4.2-9.2-6.3c0-0.4,0-0.8,0-1.1c1.7-0.2,2.7-1.1,2.6-2.9c-0.1-2.4-0.3-4.8-2.6-6.3
				C70.6,1275.7,70.6,1274.2,70.6,1272.7z"/>
			<path d="M2103.2,476.3c-3.9,0-6.8-1.7-9-4.9c-1-1.6-2.5-2.9-3.8-4.2c-2.2-2.2-2.5-4.7-0.7-7.2c2.2-3,1.8-5.9,0.6-9.1
				c-1.4-4-3.7-7.9-1.7-12.9c2.7,2.1,3.1,5,3.5,7.6c1,5.5,1.8,6.2,8.6,5.1c-0.6-1.8-1-3.5-1.7-5.1c-0.7-1.5-1.6-3.1,0.1-4
				c1-0.5,2.7,0.3,4.1,0.5C2103.2,453.5,2103.2,464.9,2103.2,476.3z"/>
			<path d="M2103.2,414.7c-1.7-1.7-3.4-3.4-5.1-5.2c0.3-0.1,0.7-0.2,1-0.3c-0.2-2.9,0.4-6.1-0.7-8.5c-1.1-2.5-3.9-4.3-6.6-7
				c2.1-0.9,3.6-1.6,5-2.2c6.1-2.6,6.9-6.8,1.8-11c-2.5-2.1-3.8-4.7-4.6-7.6c-0.2-0.9,0.8-2.2,1.2-3.3c1.1,0.5,2.6,0.7,3.2,1.6
				c1.4,2.1,1.5,5.2,4.8,5.8C2103.2,389.6,2103.2,402.2,2103.2,414.7z"/>
			<path d="M70.6,1198.5c1.2-1.1,2.4-2.1,3.5-3.2c0.8-0.8,1.5-1.8,2.4-2.9c2.4,3.3,4.7,6,6.3,9.1c2.1,4,1.8,8.4,0.2,12.6
				c-1.1,2.9-3.7,4.3-5.7,3.2c-2.4-1.3-2.5-3.1-1.7-5.7c1.8-5.7,0.6-7.6-5.1-9.7C70.6,1200.8,70.6,1199.7,70.6,1198.5z"/>
			<path d="M2103.2,428.4c-2.6,0.2-5.3,0.3-7.9,0.5c-4.1,0.3-6-1.5-4.6-5.2c1.4-3.6-0.1-6.7-0.9-9.9c-0.6-2.3-2-4.5-0.2-7.3
				c6.2,3.1,6.2,9.6,8.7,15.1c1.7-0.8,3.3-1.5,4.9-2.3C2103.2,422.3,2103.2,425.4,2103.2,428.4z"/>
			<path d="M418.7,2114.7c-1.8-0.8-3.6-1.6-5.5-2.4c-1.6-0.6-3.2-1.1-4.8-1.7c0.6-3.2,2.7-3.6,4.5-3.6c4.9-0.2,9.8-0.2,14.7,0
				c1,0,2,1.3,3,2c-0.9,0.8-1.7,1.8-2.7,2.5c-1.9,1.2-3.8,2.2-5.8,3.3C421,2114.7,419.8,2114.7,418.7,2114.7z"/>
			<path d="M70.6,1179.1c2.7-1.4,4.4-3.3,3.9-6.7c-0.1-0.8,0.9-1.8,1.7-3.2c3.1,3.9,4.5,8,5.1,12.1c0.4,2.6-4,5.5-7,4.9
				c-1.3-0.3-2.5-0.9-3.7-1.3C70.6,1183,70.6,1181,70.6,1179.1z"/>
			<path d="M483.7,2114.7c-1.2-0.8-2.4-1.6-3.7-2.3c-1.6-0.9-3.2-1.6-4.9-2.4c2.6-4.2,4.9-4.8,9.8-2.9c3.6,1.4,4.2,3,3.4,7.7
				C486.8,2114.7,485.3,2114.7,483.7,2114.7z"/>
			<path d="M2103.2,970.4c-2.2,0.8-4.2,0.9-5.1-1.7c-0.8-2.3-0.7-4.6,1.5-6.1c1-0.7,2.4-0.9,3.7-1.3
				C2103.2,964.3,2103.2,967.3,2103.2,970.4z"/>
			<path d="M2103.2,877.9c-2.3-1.6-2.5-4-2.4-6.5c0.2-4.1,0.2-8.2,0.6-12.2c0.2-2.2,1.2-4.3,1.8-6.4
				C2103.2,861.2,2103.2,869.6,2103.2,877.9z"/>
			<path d="M70.6,1102.7c2.5,0.6,3.6,2.1,3.9,4.7c0.4,3.3-0.8,4.5-3.9,4.4C70.6,1108.8,70.6,1105.7,70.6,1102.7z"/>
			<path d="M442.7,2114.7c0.2-2.5,1.1-4.4,4-4.4c2.9,0,3.9,1.8,4,4.4C448,2114.7,445.3,2114.7,442.7,2114.7z"/>
			<path d="M70.6,984c4.5,1.2,5.2,2.6,2.6,5.9c-0.7,0.9-1.8,1.4-2.6,2.1C70.6,989.4,70.6,986.7,70.6,984z"/>
			<path d="M70.6,1150.6c1,1.5,2.5,2.8,3,4.4c0.7,2.3,0,4.4-3,4.7C70.6,1156.7,70.6,1153.7,70.6,1150.6z"/>
			<path d="M70.6,879.1c0.3,0.1,0.7,0.2,1,0.4c1.8,0.8,3.5,2,2.7,4c-0.5,1.1-2.5,1.6-3.8,2.4C70.6,883.6,70.6,881.4,70.6,879.1z"/>
			<path d="M2103.2,352c-0.9-1.4-1.9-2.8-2.5-4.3c-1.1-2.5-0.5-4.3,2.5-4.8C2103.2,345.9,2103.2,348.9,2103.2,352z"/>
			<path class="st2" d="M70.6,1277.3c2.3,1.5,2.4,3.9,2.6,6.3c0.1,1.8-0.9,2.7-2.6,2.9C70.6,1283.4,70.6,1280.3,70.6,1277.3z"/>
			<path d="M70.6,917.9c1.9-0.3,3.7-0.1,3.5,2.3c-0.2,2.4-2.1,1.5-3.5,1.1C70.6,920.2,70.6,919,70.6,917.9z"/>
			<path d="M1726,1745.2c1.8,0.4,2.8,0.6,4.7,1.1c-2.6,2-4.5,3.5-6.4,4.9c-5.8,4.2-11.6,8.5-17.5,12.5c-5.8,3.9-11.9,7.5-17.8,11.1
				c-0.5,0.3-1,0.6-1.6,0.7c-14.6,2.7-26.7,11.5-40.2,16.9c-6.9,2.7-14.1,4.7-20.7,8.1c-8.6,4.4-18.3,4.8-27,8.7
				c-0.8,0.3-2,0.4-2.7,0c-5.2-2.7-10-0.2-15,0.8c-2.2,0.5-4.5,1.3-6.7,1.2c-7-0.3-13.4,2.2-20,4c-6,1.6-11.9,3.8-17.9,5.4
				c-2.5,0.7-5.3,1.1-7.9,0.7c-7.3-1-14.3,0.9-21.4,1.8c-14.9,1.9-29.8,3.9-44.7,5.3c-8.5,0.8-17.1,0.7-25.6,1
				c-8.7,0.3-17.5,0.2-26.2,1c-11.4,1-22.8,0.6-34.2,0.4c-4.5-0.1-9.1,0.6-13.6,0.6c-4.9-0.1-9.8-0.7-14.7-1.1c-3-0.2-6-0.7-9.1-0.7
				c-11.5,0.1-22.6-2.5-33.7-5.1c-7.9-1.9-16-2.9-24.1-4.2c-2.4-0.4-4.9-0.7-7.3-1.2c-7.8-1.6-15.7-3-23.3-5.1
				c-6.4-1.8-12.4-4.5-18.7-6.8c-3.7-1.4-7.5-2.7-11.3-3.9c-8.5-2.6-17.2-4.7-25.5-7.8c-9.7-3.7-19.2-8-28.7-12.4
				c-6.7-3.1-13-6.9-19.5-10.4c-0.7-0.4-1.3-0.8-1.9-1.3c-8.7-8.6-19.6-14.3-29.4-21.3c-2-1.4-3.6-3.3-5.5-4.9
				c-3.2-2.6-6.6-5.1-9.7-7.8c-3.4-3-6.8-6.1-9.8-9.4c-4.5-4.9-8.7-10-13.1-15c-0.6-0.7-1-1.7-1.8-2.2c-5.1-3.2-6.6-8.9-9.8-13.6
				c-2.7-4.1-5.8-7.9-8.9-11.8c-2-2.5-4.2-4.9-6.4-7.3c-2.9-3.1-6.2-3.1-8.5,0.6c-1.7,2.7-3.1,5.8-3.7,8.8
				c-3.1,16.6-11.2,30.9-20.5,44.6c-0.5,0.8-1.3,1.5-1.6,2.3c-2.6,6.5-8,10.9-12.5,15.9c-2.6,2.9-6.1,4.9-9.3,7.3
				c-0.8,0.6-1.7,0.9-2.4,1.5c-5.6,5.5-12.7,8.9-18.9,13.4c-1.2,0.9-2.4,1.9-3.4,3c-6.8,7-14.4,12.6-23.6,16.2
				c-11.6,4.6-23,9.8-34.6,14.6c-2.1,0.9-4.4,1.4-6.6,1.6c-6.3,0.6-12.3,2.2-17.9,5.1c-1.8,0.9-4,1.2-6,1.5
				c-9.9,1.7-19.8,3.3-29.8,5c-0.6,0.1-1.1,0.4-1.7,0.4c-9.2-0.2-18.1,1.6-27.1,2.7c-5.8,0.7-11.7,1.5-17.5,1.8
				c-7.4,0.4-14.8,0.2-22.2,0.4c-11.4,0.2-22.8,0.7-34.2,0.8c-8.9,0.1-17.8-0.4-26.7-0.5c-4.6-0.1-9.1,0.5-13.7,0.2
				c-10.4-0.9-20.8-2.1-31.2-3.2c-2.3-0.2-4.5-0.6-6.8-0.6c-14.1,0.4-28-1.8-41.9-3.8c-14.8-2.1-28.6-7.7-43.1-10.4
				c-2.2-0.4-4.4-1.3-6.7-1.5c-9.9-1.1-19.3-4.1-28.4-8.2c-0.5-0.2-1.1-0.4-1.6-0.5c-11.1-1-20.4-6.9-30.3-11.1
				c-0.3-0.2-0.7-0.4-1-0.5c-9.4-3.5-18.8-7-28.2-10.3c-9.8-3.5-19.7-6.9-29.5-10.4c-4.1-1.4-8.4-2.5-12.4-4.2
				c-9-3.9-17.8-8.2-26.8-12.3c-2.1-0.9-4.3-1.4-6.5-2.1c-4.7-1.4-9.5-2.4-13.7-5.3c-2.8-1.9-6.2-2.8-9.2-4.5
				c-4.6-2.6-9.2-5.3-13.5-8.5c-10.6-8-21-16.3-31.4-24.5c-6.1-4.8-12.2-9.6-18-14.8c-7.8-7-15.6-13.9-22.8-21.5
				c-12.5-13.1-24.1-26.9-32.1-43.3c-1-2-2.8-3.7-3.8-5.7c-3.8-7.8-7.5-15.7-11.3-23.6c-1.1-2.4-2.3-4.8-3.6-7.1
				c-2.8-4.9-5.7-9.8-8.5-14.7c-0.6-1.1-1.2-2.4-1.5-3.7c-2.8-11.8-6.7-23.3-11.4-34.5c-2.6-6.2-4.6-12.2-5.4-18.9
				c-0.8-6.8-4.2-13.3-6.2-20c-1-3.2-1.5-6.6-2.3-9.9c-0.8-3.1-1.6-6.2-2.5-9.2c-0.6-2.2-1.7-4.3-1.8-6.6
				c-0.6-7.8-1.3-15.6-1.2-23.3c0.1-6.6-1.1-12.8-2.7-19.1c-1-3.8-1.7-7.8-1.8-11.8c-0.1-7.8,0.4-15.6,0.7-23.3
				c0.1-1.5,0.3-3.1,0-4.6c-2.4-11.4,0-22.7,0.2-34.1c0.2-12.3,0.3-24.7,1.2-37c0.9-12.5,2.8-24.9,4.3-37.3c0.1-0.9,0.3-1.9,0.8-2.7
				c4.5-7.7,4-16.4,5-24.9c0.7-5.6,2.3-11.1,3.6-16.6c1.4-5.5,2.9-10.9,4.4-16.4c0.5-1.6,0.7-3.4,1.6-4.8c2.3-3.4,3.3-7.2,4-11.1
				c2.2-12.1,4.4-24.3,8.4-36c1-3.1,2.1-6.1,3.4-9.1c6.7-15.3,13.4-30.6,20.5-45.7c3-6.3,7.4-12,10.1-18.4
				c3.2-7.6,7.5-14.4,11.7-21.4c0.7-1.1,1.4-2.3,2.3-3.2c3.8-3.6,6.5-7.8,8.7-12.5c1-2.2,2.7-4.1,4.4-5.9c4.7-5,9.5-9.8,14.2-14.8
				c0.5-0.5,1.2-1.1,1.5-1.7c3.6-10.1,12-17,17.8-25.6c3.9-5.8,10.6-9.7,16.2-14.2c4.1-3.3,8.4-6.5,12.8-9.5
				c9.8-6.8,19.7-13.4,29.6-20.1c5-3.4,10-6.9,15.2-10c4.4-2.6,8.9-5.2,13.6-7.1c7.9-3.2,15.6-7,24.2-8.1c0.9-0.1,2-0.3,2.7-0.8
				c10.3-6.4,22.6-6,33.7-10c6-2.1,12.7-2.3,19-3.5c2.6-0.5,5.3-1.1,7.6-2.2c9.9-4.6,20.3-7.3,31-9.1c1.3-0.2,2.7-0.1,3.9-0.6
				c7.4-3.2,15.2-2.8,23-2.8c11.2,0,22.4-0.6,33.6-0.9c2.5-0.1,4.9,0.1,7.4,0.1c5.7,0,11.4,0.5,17-0.1c6.1-0.6,11.2,0.6,15.8,4.6
				c1.6,1.4,3.6,2.5,6.1,4.1c2-5,4.3-9.3,5.3-13.8c1.3-6.2,3.8-12.2,3.2-19c-0.3-3.2,1.3-6.6,2.3-9.9c3.3-10.9,6.4-21.8,10-32.5
				c3.8-11.7,4.1-24.3,8.5-35.8c3.3-8.9,5.2-18.1,6.8-27.5c0.7-4.2,2.8-8.2,4-12.4c0.6-2.2,0.6-4.5,1.1-6.7c0.7-2.9,1.2-6,2.7-8.5
				c1.7-2.9,2.4-5.8,2.8-9.1c0.5-4.1,1.3-8.3,3.1-12c4.3-8.8,6.5-18.2,8.4-27.6c0.3-1.7,0.7-3.3,1.1-5c1.6-6.2,3.1-12.5,4.8-18.7
				c1-3.6,2.3-7.2,3.6-10.8c1.3-3.7,2.8-7.4,4.1-11.1c1.2-3.6,2.3-7.2,3.5-10.7c2.1-6.3,4.4-12.5,6.5-18.7
				c2.6-7.5,5.7-14.9,7.9-22.6c4.3-15.2,11.9-29.1,15.3-44.6c1.6-7.4,4.1-14.6,6.3-21.8c0.5-1.8,1.5-3.5,2.4-5.1
				c1.4-2.5,2.7-5,2.1-8.1c-0.2-1,0.2-2.2,0.6-3.3c3.2-8.3,6.6-16.6,9.7-24.9c1.9-5.1,2.7-10.8,5.2-15.6c4.6-9.1,8.7-18.6,15.7-26.3
				c0.9-1,2.1-1.9,2.5-3.1c3.1-9.1,10.7-15.6,13.8-25.5c-1.3-0.7-2.6-1.5-4.1-2c-1-0.3-2.3-0.2-3.4-0.1c-12.1,1-23.7-2.1-35.4-4.4
				c-2.8-0.5-5.6-0.9-8.5-1.1c-7.4-0.4-14.8-0.4-22.2-1.1c-4.3-0.4-8.5-2-12.8-2.4c-11-0.9-21.9-1.2-32.9,0.1
				c-6.7,0.8-13.6-0.2-20.5-0.7c-4.9-0.3-9.8-1.2-14.7-1.4c-4.1-0.2-8.3,0.2-12.5,0.6c-8.1,0.9-16.2,2-24.3,3
				c-5,0.6-7.8,3.5-8.9,8.3c-0.3,1.1-0.4,2.3-0.9,3.3c-2.1,4.5-7.8,5.5-11.3,1.9c-1.2-1.2-2.3-2.7-2.8-4.2c-3.3-10.1-7-19.9-8-30.7
				c-0.6-7.1-0.7-13.8,0.1-20.8c0.7-5.8-0.1-11.7-0.3-17.6c-0.2-5.5-0.3-11-0.5-16.5c-0.4-9.1-1-18.2-1.4-27.3
				c-0.1-2.8-0.1-5.6-0.1-8.5c0-1.5,0.2-3.1,0-4.5c-1-5.6-2.3-11.1-3.2-16.7c-1-6.5,1.7-11.3,8-13.2c4.4-1.4,7.8-3.3,10.4-7.3
				c2.5-3.9,6.5-4.9,11.1-4.2c8.4,1.2,16.9,2,25.2,4.5c5.5,1.7,11.6,1.8,17.5,1.9c10.6,0.1,21.3-0.7,31.9-0.4
				c15.9,0.4,31.8-1,47.8,1.6c6.8,1.1,14,0.2,21-0.2c5.5-0.3,10.9-1.7,16.4-2c7.9-0.4,15.9-0.3,23.8-0.1c13.1,0.3,26.2,1.2,39.3,1.3
				c8.3,0.1,16.6-0.5,25-1.6c9.5-1.3,19.3-0.6,28.8,2c4.9,1.4,10.1,1.5,15.3,1.7c14,0.6,28.1,0.9,42.1,1.3c2.4,0.1,4.9-0.4,7.3-0.9
				c5.4-1,10.7-2.6,16.2-3.3c16.3-2.1,32.5-2,48.8,1.1c9.6,1.9,19.3,0.1,28.9-1.4c4.1-0.6,8.3-1.1,12.4-1.1
				c13.1,0.2,26.2,0.1,39.2-2c13.2-2.1,26.5-1.2,39.7,1c4.3,0.7,8.7,1.1,13,1c20.7-0.3,41.4-0.8,62.1-1.1c3.9,0,7.9,0.9,11.9,1.1
				c3.8,0.2,7.6,0.5,11.3-0.1c8.3-1.5,16.5-1.4,24.9-0.5c8.6,0.9,17.5,0.5,26.2,0.1c16.5-0.7,33-1.6,49.6,0.1
				c3.2,0.3,6.5,0.6,9.7,0.2c4.9-0.7,9.8-0.4,14.7-0.2c15.5,0.6,30.4,4.8,45.6,7.1c2.3,0.3,4.5,1.1,6.7,1c8.3-0.6,15.2,3.2,22.1,6.7
				c5.4,2.8,7.4,8.3,6.6,14.1c-2.8,19.9-1.7,39.8-1.5,59.8c0.1,7.5,1.4,15.1,2.2,22.6c0.6,5.5,1.6,10.9,2.1,16.3
				c0.2,2.8-0.2,5.7-0.6,8.5c-0.4,3.2-1.1,6.4-1.6,9.5c-0.7,4.8-4.8,8-9.7,7.3c-8.5-1.2-16.9-2.3-25.4-3.6c-6-0.9-11.9-2-17.9-2.9
				c-9.5-1.6-18.9-0.5-28.4,0.2c-7.2,0.6-14.4,0.2-21.6,0.2c-3.8,0-7.6-0.4-11.4,0c-9,1-18.1,2.3-27,3.8c-4.7,0.8-9.2,2.2-13.8,3.5
				c-3.5,1-5,3.1-4.7,6.8c0.2,3.4,0.8,6.8,1.6,10.1c1.4,5.9,2.7,11.8,4.6,17.6c1.5,4.6,4,9,6,13.5c5.1,11.5,8.5,23.5,11.7,35.6
				c3.8,14.5,8.1,28.8,13,42.9c2.8,8.1,5,16.3,7.4,24.5c3.3,10.9,6.5,21.8,9.7,32.7c0.2,0.5,0.4,1.1,0.5,1.6
				c1.4,16.1,9.7,30.2,13.8,45.5c2.3,8.6,3.8,17.4,5.3,26.1c2,11.4,2.8,23.1,5.6,34.3c1.7,6.6,3.2,13.2,4.6,19.8
				c1,4.8,2.8,9.4,3.9,14.2c2.4,10.1,4.7,20.3,6.8,30.5c2.8,12.9,5.8,25.8,8.1,38.9c1.7,9.5,2.2,19.2,3.6,28.8
				c1.4,9.4,3.4,18.7,4.7,28c1.1,8,1.7,16.2,2.5,24.3c0.3,3.2,0.4,6.5,1,9.6c0.6,3.1,2.7,3.9,5.4,2.3c4.6-2.6,9.5-3.5,14.7-3.7
				c7-0.3,14-1.2,21-1.8c8.1-0.6,16.2-1.7,24.4-0.5c0.9,0.1,2,0.1,2.8,0.5c6.5,3.7,14.1,4.4,20.9,7.2c9,3.7,18.3,6.1,27.2,9.7
				c3.7,1.5,6.9,4,10.6,5.4c7.9,3.1,16,5.8,24,8.8c4,1.6,7.8,3.9,11.8,5.5c10,4.2,19.8,8.6,30,12.1c10.2,3.5,20.8,6,31.2,8.9
				c1.1,0.3,2.2,0.6,3.2,1.1c10.2,4.5,20.5,9,30.7,13.6c8.7,3.8,17.4,7.5,26,11.5c8.6,4,17,8.2,24.5,14.2c3.2,2.6,7.3,4.1,10.6,6.6
				c6.2,4.7,12.1,9.7,18.1,14.7c1.6,1.3,3.1,2.8,4.9,3.9c13.9,9.3,24.7,21.7,35.1,34.5c7.2,8.8,14.2,17.8,21.4,26.6
				c1.1,1.4,2.8,2.8,4.4,3.3c3.6,1.1,6,3.4,7.6,6.5c2.7,5.2,5.4,10.5,7.6,15.9c3,7.2,4.9,14.8,8.5,21.7c3.6,7,6.1,14.3,8,21.8
				c2.4,9.8,3.8,19.8,7,29.3c3.5,10.2,2.5,21.1,5.8,31.2c0.3,1.1,0.4,2.3,0.4,3.4c0.2,11.1,2.5,21.8,4.9,32.5
				c0.9,4.1,1.4,8.2,2,12.4c0.9,6.2,2,12.4,2.6,18.6c0.5,5.5,0.7,11,0.8,16.5c0.2,8.7,0.3,17.4,0.1,26.1c-0.2,7.6-0.6,15.2-1.2,22.7
				c-0.9,10.4-1.9,20.8-3.2,31.2c-0.6,5-2,10-3,15c-0.2,0.9-0.4,1.9-0.5,2.8c-0.4,6.8-0.8,13.6-1.1,20.5c-0.3,9.3-0.3,18.6-0.8,27.9
				c-0.2,4.1-1.2,8.3-1.7,12.4c-1.1,8.1-2,16.2-3.1,24.3c-2,16-6.3,31.6-9.6,47.4c-1.8,8.5-5.2,16.7-7,25.2
				c-2.6,12.1-6.4,23.8-10.2,35.5c-3.3,10.3-7.3,20.3-12.1,30c-3.5,7.1-6,14.7-9.2,21.9c-1.7,4-4,7.8-6,11.6
				c-6.4,12.1-12.7,24.2-19.2,36.1c-3.8,7-7.9,13.8-11.9,20.6c-0.6,1-1.3,1.9-2.1,2.7c-10.1,10.1-20.2,20.1-30.2,30.1
				C1727.3,1743.6,1726.9,1744.2,1726,1745.2z M761.2,947.2c-3.5,3.9-5.1,8.3-4.8,12.8c0.8,10.7-2.9,20.6-4.4,30.9
				c-1.3,8.8-3.3,17.5-4.6,26.3c-1.4,9.4-2.2,18.9-3.5,28.3c-0.6,4.3-2.9,8.5-3,12.7c-0.1,14.9-5.3,29.1-5.4,44
				c-0.2,14.4-3.1,28.6-5,42.9c-0.8,6.2-2,12.4-2.3,18.6c-0.6,9.7-0.5,19.4-0.8,29.1c-0.1,2.5,0.8,3.8,2.9,5
				c3.3,1.9,6.7,2.4,10.4,1.3c3.1-1,6.3-1.6,9.3-2.6c3.1-1,6.3-1.9,9-3.5c9.6-5.7,19.3-11.5,26.9-19.9c4.7-5.2,10-9.9,12.2-16.9
				c2.7-8.7,5.8-17.3,7.9-26.1c1.5-6.4,2-13.1,2.6-19.7c0.3-3.6,0.4-7.2-0.1-10.7c-1.9-11.5-6.5-22.5-7.8-34.2
				c-0.1-0.9-0.5-1.9-0.9-2.7c-5.5-10.7-6.5-22.5-7.8-34.2c-0.8-6.7,2.2-10.9,7.1-14.4c4.7-3.3,12.6-0.6,14,4.6
				c2.4,9,4.8,17.9,7.2,26.9c0.6,2.2,1.3,4.4,2.1,6.5c2.8,7.5,6.1,14.7,8.3,22.3c4.6,15.7,3.8,32,4.5,48.1c0.1,1.7-0.2,3.4-0.5,5.1
				c-1.6,8.9-2.3,18-5.1,26.8c-2,6.4-2,13.4-6.5,19.1c-1.7,2.1-2.1,5.3-3.7,7.6c-3,4.3-5.6,9.5-9.8,12.3
				c-9.3,6.1-16.3,14.7-24.6,21.9c-6.1,5.3-12.4,10.2-20.1,12.3c-13.8,3.9-26.7,11-41.1,13c-1.4,0.2-2.8,1.2-4.2,1.8
				c-1.2,0.5-2.4,1.2-3.7,1.5c-8.7,2.3-17.6,3.6-26.5,3.5c-10.5-0.2-20.8,1.2-31.1,1.8c-2.1,0.1-4.2,0.2-6.2-0.1
				c-12.9-2.1-25.8-4.4-38.7-6.6c-1.1-0.2-2.3-0.4-3.4-0.4c-6.1,0.3-11.6-1.2-16.7-4.6c-1.2-0.8-2.8-1.1-4.3-1.2
				c-7.7-0.9-14.5-4.2-21.2-7.7c-8.1-4.1-16.4-7.4-23.6-13.5c-4.1-3.5-8.9-6.4-12.7-10.4c-9.1-9.7-18.3-19.2-27.1-29.2
				c-4.1-4.6-8.9-9-10.1-15.6c-1.3-7.5-2.6-14.9-3.9-22.4c-0.5-2.8-1.2-5.6-1.7-8.4c-0.5-2.8-1.5-5.6-1.4-8.3
				c0.2-8.7,0.4-17.4,1.2-26.1c1.3-14.1,5-27.6,10.9-40.5c2.3-5,4.4-10.1,6.6-15.1c2.8-6.2,5.7-12.4,8.4-18.6
				c0.9-1.9,1.8-3.8,2.2-5.8c1.6-6.9,6-11.2,13-12.1c4.6-0.6,8.7,0.5,11.6,4.5c2.6,3.6,1.7,7.2-0.4,10.7c-0.5,0.8-0.9,1.7-1.3,2.5
				c-2.2,3.9-4.7,7.7-6.7,11.8c-4.9,9.6-9.9,19.2-14.4,29.1c-4.2,9.3-8.8,18.6-8.5,29.2c0.3,9.9,0.4,19.7,1.1,29.6
				c0.9,12.5,4.4,24.3,12.4,34.3c4.7,5.9,9.8,11.5,14.8,17.2c2.9,3.3,5.5,6.9,8.9,9.6c7.9,6.2,16.2,12,26,15c1.7,0.5,3.2,2,4.8,2.8
				c4.4,2.1,8.8,4.3,13.5,5.8c2.7,0.9,4-0.9,3.4-3.5c-0.8-3.7-1.9-7.4-2.1-11.1c-0.3-4.7-0.9-9.7,0.4-14.1
				c2.8-10,6.7-19.6,10.2-29.4c0.4-1.2,1.1-2.4,1.6-3.7c0.8-2.3,1.8-4.6,2.2-7c1.5-9.5,2.9-19.1,4.3-28.7c0.1-0.6,0.1-1.1,0.2-1.7
				c0.8-8.2,1.6-16.5,2.5-24.7c0.4-3.1,0.8-6.5,2.2-9.2c3.2-6.2,3.1-12.8,3.5-19.4c0.2-3.3,0.9-6.7,1.8-9.9
				c1.8-6.8,4.2-13.4,5.7-20.3c2.5-10.9,4.4-21.9,6.8-32.8c1.1-4.8,2.7-9.4,4-14.2c2.5-8.8,5-17.5,7.3-26.3c0.6-2.1,0.5-4.6,0.2-6.8
				c-0.4-2.6-1.9-3.4-4.6-2.8c-2.4,0.5-4.8,1.5-7.2,1.6c-8.8,0.3-17.3-2-25.9-3.4c-2.8-0.4-5.6-1.2-8.4-1.3
				c-6.5-0.2-12.9-0.2-19.4-0.1c-8.2,0-16.4-0.4-24.2,2.3c-3,1.1-5.9,2.5-9,3.3c-9.4,2.4-18.8,4.6-28.2,6.9c-2.2,0.5-4.5,1-6.6,1.8
				c-11.4,4.6-23.5,6.2-35.2,9.2c-4.4,1.1-8.8,2.3-13.2,3.6c-4.7,1.4-9.3,3.5-14.1,4.5c-10.6,2.3-19.6,8.1-29,12.8
				c-0.5,0.2-0.8,0.8-1.3,1.1c-2.7,1.7-5.4,3.5-8.1,5.2c-5.1,3.2-10.5,6.2-15.4,9.8c-9.5,6.9-18.9,14-28.2,21.2
				c-3.4,2.6-7,5.2-9.9,8.4c-6.7,7.3-13,14.9-19.4,22.4c-7.8,9-15.7,18-21.9,28.3c-2.5,4.1-5.1,8-7.7,12c-2.7,4.1-5.7,8.1-8.1,12.4
				c-5.2,9.4-10.2,19-15.1,28.6c-4.1,8.1-8.3,16.3-11.6,24.7c-2.9,7.4-7.5,14.1-8.1,22.3c0,0.4-0.3,0.7-0.5,1
				c-4.8,8.2-6.6,17.4-8.8,26.4c-1.9,7.9-3.6,15.9-6,23.7c-4.9,15.8-8.1,32-10.8,48.3c-1.6,9.3-3.3,18.7-4.6,28
				c-1.5,11.1-3.2,22.2-3.7,33.4c-0.7,16.1-0.3,32.3-0.3,48.4c0,4.7,0.3,9.5,0.5,14.2c0.2,4.9,0.3,9.9,0.6,14.8
				c0.5,8.5,1.1,17.1,1.9,25.6c0.4,4.5,1.2,9,1.9,13.5c1.4,8.8,2.7,17.6,4.4,26.4c1.4,7.2,3.4,14.3,5.3,21.5
				c1.7,6.4,3.6,12.8,5.5,19.2c1.6,5.7,2.7,11.6,5,16.9c6.7,15.3,14,30.3,21.1,45.4c2.9,6.2,5.7,12.5,9.4,18.2
				c5.8,9.1,12.9,17.4,18.4,26.7c6.6,11.4,16,20.4,25.2,29.3c10.4,10.1,22.4,18.7,33.8,27.7c6.1,4.8,12.6,9.2,19,13.5
				c3.8,2.5,7.8,4.7,11.8,6.9c3.8,2.1,7.6,4.2,11.5,6.1c7.7,3.6,16.1,6.2,23.2,10.7c11.6,7.3,24.2,12.1,37.3,15
				c14.6,3.2,28.3,8.3,42,13.9c12.3,5,24.5,10.3,37,14.6c10.4,3.5,21.3,5.5,31.2,10.6c1.8,0.9,4,1.2,6,1.6c7.2,1.5,14.5,3,21.7,4.4
				c6.1,1.2,12.3,2.4,18.5,3.5c4.9,0.9,9.7,1.7,14.6,2.7c3.3,0.6,6.7,1.6,10,1.9c13.6,1.4,27.2,2.7,40.8,4c4.5,0.4,8.9,0.8,13.5-0.3
				c-0.7-2.5-2.6-2.5-4.2-2.7c-5.8-0.4-11-2.7-16-5.5c-2.8-1.5-5.8-2.9-8.1-5.1c-5.3-5.1-10.2-10.7-15.3-16.1
				c-2.9-3.1-4.5-6.6-4-10.9c0.3-3.4,2.3-5.9,5.3-6.6c3.3-0.7,4.8,1.4,6.4,3.7c1.7,2.5,3.1,5.2,5.1,7.5c8.5,9.6,19.6,14.1,32.1,15.4
				c6.8,0.7,13.7,0.4,20.5,0.6c5.3,0.2,10.6,0.6,15.9,0.6c9.1,0,18.2-0.3,27.3-0.2c16.3,0.2,32.7,1.5,49-0.7
				c8.1-1.1,16.1-2.6,24.1-4.2c12.1-2.4,24.2-4.7,36.1-7.8c9.7-2.6,19.1-6.4,28.5-9.8c1.9-0.7,3.7-1.9,5.5-3
				c4.2-2.5,8.3-5.2,12.6-7.5c2.5-1.3,5.4-1.8,7.9-3.1c9.9-5.2,19.3-11.3,28-18.3c7.2-5.8,15-11,20.8-18.5c1.5-1.9,3.6-3.3,5.5-4.9
				c6.6-5.5,12.2-11.9,17-19.1c3.6-5.3,6.9-10.8,10.7-16c4.4-5.9,8.6-11.8,11.5-18.8c3.2-7.8,7.5-15.3,11.7-22.7
				c2.5-4.4,5.9-8.3,8.8-12.5c0.9-1.2,2.1-2.6,2.2-3.9c0.3-4.6,2.8-8.2,4.5-12.1c2.8-6,5.4-12.2,8.9-17.8
				c7.9-12.5,13.3-25.9,16.6-40.2c0.4-1.8,1.4-3.5,2.4-5.1c1.4-2.1,2.1-4.1,1.9-6.9c-0.3-3.1-0.1-6.8,1.4-9.4
				c1.8-3.2,1.5-6.1,0.9-8.6c1.3-2.3,2-4.3,3.3-5.8c2.6-3.1,1.6-6.9,2.3-10.3c1.6-7.4,3.3-14.8,2-22.4c0-0.2-0.1-0.4,0-0.6
				c3.1-6.2,3.5-13,5.1-19.5c0.8-3.4,2.1-6.8,2.1-10.4c0.1-4-0.3-8,0.2-12c0.9-7.3,1.1-14.5-0.2-21.9c-1-5.7-1.2-11.7-1.8-17.5
				c-0.9-8.3-1.9-16.5-2.8-24.8c-0.3-3.4-0.1-6.7-2.4-9.8c-1-1.3-0.9-3.6-0.7-5.5c0.6-7.4-1.3-14.3-3.5-21.2
				c-1.4-4.3-3.7-8.3-2.9-13.1c0.1-0.9-0.1-1.9-0.5-2.8c-3.5-7.8-4.1-16-3.2-24.4c0.5-4.5-1.4-8.3-5.8-10c-4.2-1.6-6.5-4.6-7.3-8.7
				c-0.6-2.9-0.9-6-1-9c-0.5-10.7-2.6-21-6.9-30.9c-2.5-5.7-4.4-11.6-6.7-17.4c-2.6-6.6-5.1-13.4-8.2-19.8
				c-3.9-8.2-8.2-16.2-12.4-24.2c-1.4-2.8-2.5-5.8-5.1-8c-2.1-1.8-4-4.5-4.6-7.1c-1.3-5.7-5.1-9.7-8.4-14c-0.9-1.2-1.9-2.4-2.8-3.6
				c-6.1-9.2-13.3-17.4-22.4-23.8c-2.3-1.6-4.3-3.8-6.2-5.9c-2.2-2.3-4.1-4.9-6.3-7.2c-2.9-3-5.9-5.9-8.8-8.9
				c-4.4-4.5-8.3-9.5-13.1-13.4c-6.4-5.3-13.6-9.6-20.4-14.5c-11-8-22.5-15.4-32.7-24.5c-2.6-2.4-6.3-3.7-8.6-6.4
				c-3.2-3.7-7.2-6.1-11.1-8.6c-2.2-1.4-4.7-2.4-6.9-3.9c-5.8-3.9-11.6-7.8-17.3-11.8c-2.2-1.5-4.1-3.3-6.3-4.9
				c-1.4-1-2.8-2-4.3-2.8c-6.7-3.5-13.7-6.5-20.1-10.5c-10.8-6.6-21.2-13.8-33-18.7c-1-0.4-2-1.1-2.8-1.9c-7.2-7.2-17-9.7-25.6-14.4
				C764.6,947.3,762.8,947.4,761.2,947.2z M1226.6,1061c0.1,0,0.2,0,0.2,0c0-2.7-0.3-5.4,0.1-8c1.2-8.8,3.8-16.6,13.8-19.4
				c6.5-1.8,15,0.4,18.8,6c0.8,1.2,1.5,3,1.2,4.2c-0.7,3.1-1.6,6.3-3.2,9c-5.5,9.5-11.5,18.8-9.3,30.7c0.1,0.7,0,1.5,0.1,2.3
				c1.8,12.7,0.6,25.8,4.3,38.4c2.5,8.4,4.9,16.8,9.4,24.3c5.3,8.8,7.7,19.1,14.3,27.1c0.1,0.1,0.1,0.4,0.2,0.5
				c1.9,5.9,6.1,10.1,10.5,13.9c8.8,7.5,17.8,14.7,26.9,21.9c3.1,2.4,6.6,4.4,10.2,6.3c2.5,1.3,4.6,0.3,5.2-2.5
				c0.8-4.2,1.1-8.5-1.7-12.1c-2.2-2.9-3.1-6.1-3.4-9.5c-1-10.8-1.8-21.6-2.6-32.4c-0.4-4.7-0.5-9.5-0.9-14.2
				c-0.8-8.5-2-17-2.8-25.5c-0.6-6.4-0.5-13-1.6-19.3c-1.9-11.1-3.1-22.2-2.9-33.4c0-1.5-0.3-3-0.5-4.5c-1.3-13.6-2.6-27.2-3.9-40.8
				c-1.3-13.6-2.4-27.2-3.7-40.8c-0.1-0.9-0.4-1.9-0.5-2.8c-1.5-10.5-4.8-20.7-4.1-31.5c0.1-2.2-0.6-4.5-1.5-6.6
				c-1.9-5-3-5.4-8.1-3.3c-1.7,0.7-3.4,1.7-5,2.6c-4.6,2.8-9.3,5.1-15,4c-4.1-0.8-7.8,0.5-11.6,2.1c-3.3,1.4-6.8,2.2-10.2,3.2
				c-1.3,0.4-2.7,0.3-3.8,0.9c-4.4,2.2-8.8,4.4-13,6.9c-9.3,5.5-18.3,11.5-27.9,16.5c-8.7,4.6-18,8-27,12c-1.7,0.8-3.4,1.7-5.2,2.3
				c-7.9,2.9-14.7,7.6-20.9,13.3c-2.1,1.9-4.2,3.8-6.4,5.6c-3.2,2.7-6.6,5.1-9.7,7.9c-8.8,8-17.1,16.8-26.5,24.2
				c-10.9,8.7-18.4,19.5-23.9,32c-3.5,8-5.4,9.1-13.9,7.4c-4.1-0.8-5.8,0.1-7.4,4.2c-2,5.2-4.6,9.9-8.6,13.9
				c-3.6,3.7-3.7,6.1-1.3,10.7c3.8,7.2,7.5,14.5,11,21.8c2,4.3,3.6,8.7,5.4,13.1c1.3,3.3,2.6,6.7,4,10c1,2.4,2.3,4.8,3.2,7.3
				c0.9,2.9,1.4,5.9,2.2,8.8c2.2,7.8,4.6,15.6,6.7,23.5c2.4,9.2,4.2,18.5,6.6,27.7c2.8,10.6,5.2,21.3,6.9,32.2
				c2.6,16.9,5.3,33.7,8,50.6c0.7,4.3,1.5,8.6,2.1,12.9c1.7,12.2,3.2,24.5,4.9,36.7c0.8,6.2,1.6,12.4,2.6,18.6
				c0.4,2.8,1.5,5.5,1.8,8.3c0.4,3.4,0.2,6.8,0.3,10.3c0.5,15-1.2,30.1,1.9,44.9c0.3,1.3,0,2.6-0.1,4c-0.6,6.1-1.1,12.1-1.7,18.1
				c-0.7,6.8-1.3,13.6-2.4,20.3c-0.7,4.3-2.6,8.3-3.5,12.5c-2.4,10.9-4.3,21.9-8.8,32.3c-0.4,1-0.9,2.2-0.9,3.3
				c0.3,4.2-1.5,7.8-2.9,11.5c-0.7,1.9-1.2,4-1.8,6c-1.7,6-3.3,11.9-5.1,17.9c-0.6,1.8-1.9,3.3-2.7,5c-1.9,4.5-3.7,9.1-5.5,13.6
				c-0.9,2.4-1.5,5.1-2.6,7.4c-4.1,8.5-8.1,17.1-12.5,25.5c-3.3,6.1-5.1,13-9.8,18.5c-2.6,3-1.9,7.7,1.1,10.9
				c3.6,3.9,6.1,8.4,7.1,13.4c0.8,4.1,2.7,7.4,5.1,10.7c2.6,3.7,5.1,7.6,7.7,11.3c2.6,3.7,5.1,7.6,8,11c3.6,4.4,7.6,8.4,10,13.7
				c0.8,1.7,2.2,3.2,3.6,4.3c7.4,5.9,13.7,13,21.9,18.1c7.9,4.9,14.8,11.2,22.1,16.9c0.7,0.6,1.6,1,2.4,1.5
				c7.5,3.6,15,7.2,22.5,10.9c7.4,3.7,14.6,8,22.2,11.3c9.6,4.1,19.3,7.9,29.3,11c6.7,2.1,13.5,3.8,20.1,6c5.9,2,12.4,2.2,18.2,4.3
				c9.9,3.6,20.1,3.6,30.3,5c12.8,1.7,25.6,3.2,38.4,4.9c2.8,0.4,5.5,1.6,8.3,1.9c17.1,1.9,34.2,1.5,51.3,0.9
				c11.9-0.4,23.8-1.2,35.8-1.1c7.3,0.1,14.6-2,22-1.1c2.4,0.3,4.9-0.4,7.4-0.5c4.9-0.2,9.9,0,14.7-0.5c12.7-1.2,25.3-2.7,37.5-6.4
				c2.7-0.8,5.4-1.8,7.8-3.2c5.4-3.2,10.9-6.1,17.4-6.7c3.6-0.3,7.3-0.9,10.5-2.3c13.4-6.3,26.7-12.7,39.9-19.5
				c8.1-4.1,15.9-8.8,23.7-13.4c8.8-5.2,17.6-10.5,26.3-16c9.3-5.8,16.9-14.1,27-18.9c0.5-0.2,0.9-0.7,1.3-1.1
				c8-6.9,16-13.8,24.1-20.7c4.1-3.4,8.5-6.4,12.4-9.9c7.7-7.1,15.1-14.4,22.6-21.6c5.3-5.2,9.4-11.3,13.9-17.1
				c6.8-8.9,14.6-17,22-25.4c2-2.2,4.3-3.5,7.4-3.9c1.6-0.2,3.6-0.7,4.7-1.8c4.9-5,10-9.8,11.7-17.1c1.7-7.4,3.5-14.7,8.3-21
				c1.7-2.2,2.8-5.1,3.3-7.8c0.9-4.5,3.3-8,6-11.4c0.9-1.1,2.1-2.4,2.3-3.8c1.3-9.4,2.4-18.8,3.6-28.2c0.3-2.4,0.1-5,0.8-7.3
				c2.4-7.8,4-15.8,4-24c0-2.4-0.1-5.2,0.9-7.3c1.9-4.1,2.3-8.4,2.4-12.8c0.2-8.2-0.3-16.4,2.1-24.3c0.2-0.5,0.2-1.1,0.2-1.7
				c-0.3-12.1-0.7-24.2-1-36.4c-0.1-5.5-0.1-11-0.2-16.5c-0.1-8.1,0.1-16.3-0.3-24.4c-0.3-5.5-1.2-10.9-2.3-16.3
				c-1.1-5.2-2.8-10.2-4.2-15.3c-1.4-5.1-3-10.2-4.1-15.4c-0.6-2.7-1.2-5.9-0.3-8.4c2.1-5.6,3.9-11.7,9.3-15.3
				c4.6-3.1,5.7-7.2,4.5-12.4c-0.8-3.5-1.6-7.2-1.2-10.7c0.9-8.3-0.6-16.3-1.7-24.3c-1-6.9-1.4-13.9-2-20.9c-0.2-2.4-0.3-5-1-7.3
				c-3.2-10.3-6.7-20.6-10.1-30.8c-1-2.9-1.9-5.7-3.1-8.6c-1.7-4.2-3.5-8.4-5.3-12.6c-2.8-6.4-4.9-13.2-11.4-17.3
				c-2.6-1.6-3.4-4.3-3.5-7.4c-0.4-7,2.3-12,8.3-15.6c5.1-3,5.1-3.3,2.3-8.4c-0.8-1.5-1.9-2.8-2.8-4.2c-2.3-3.3-4.4-6.6-6.8-9.8
				c-4.3-6-8.3-12.3-13.3-17.6c-9.2-9.7-19.1-18.8-28.7-28.2c-8.1-7.9-15.9-16.1-26.2-21.4c-4.7-2.4-8.9-5.7-13.3-8.6
				c-2.2-1.5-4.5-2.8-6.2-4.8c-2.1-2.4-4.4-3.8-7.4-5c-7.4-3-14.6-6.4-21.7-10c-8.4-4.4-17.1-8.2-26.3-10.7c-2-0.5-4.2-0.7-6-1.6
				c-10-5.1-20-9.9-30.9-12.9c-7.8-2.2-15.4-5.3-23-8c-1.1-0.4-2.1-1-3.1-1.4c-7.4-3.1-14.7-6.2-22.1-9.1c-4-1.6-8.3-2.7-12.3-4.3
				c-10.4-3.9-19.7-10.7-31-12.7c-4.4-0.8-8.6-2.7-12.9-4.2c-8.4-3-16.7-6.3-25.2-9c-5.7-1.8-11.2-5.1-17.6-2.9
				c-6.1,2-12.4,1.8-18.6,2c-6.1,0.2-12.1,0.6-18.2,1.1c-3.4,0.3-4.4,1.2-4.3,4.7c0.1,3.6,0.9,7.1,1.5,10.7c0.3,1.7,0.9,3.3,1.2,4.9
				c2,12.2,3.7,24.4,5.8,36.5c1.3,7.6,3.6,15.1,4.7,22.8c1.8,12.7,2,25.7,5.9,38.1c1,3.3,1.5,6.7,2.3,10c2.4,11.1,2.4,22.5,6.1,33.5
				c3,8.9,3.8,18.6,5.3,27.9c0.4,2.4,1.1,4.2,2.9,5.8c4,3.7,6.1,8.4,6.7,14c0.7,6.3,0.5,12.9,3.5,18.8c0.4,0.8,0.5,1.9,0.4,2.8
				c-0.6,3.8,0.9,7,2,10.5c1.3,4.4,3,9.1,1.6,13.8c-1.8,6.5,0.1,12.3,2.1,18.3c0.6,1.9,2.1,2.9,4,2.2c4.8-1.9,10.8-0.8,14.7-5.4
				c0.6-0.8,2-1,3.1-1.3c10.8-2.7,17.7-11,24.9-18.3c6.5-6.6,11.7-14.4,17-22c5.7-8.1,11.2-16.3,12.1-26.6c0.3-2.8,0.2-5.6,0.5-8.4
				c0.8-9.3,1.6-18.6-2.3-27.5c-0.4-0.8-0.4-1.9-0.5-2.8c-0.2-7.1-1.2-14-3.6-20.6c-2-5.7-3.9-11.5-6.1-17.2
				c-2.1-5.7-6.9-9.4-11-13.5c-3.7-3.7-6.6-7.5-3.8-13c0.5-1,0.4-2.2,0.6-3.4c0.6-3.8,2.5-6.7,5.8-8.8c8.7-5.5,18.1-6.2,27.9-4.8
				c9.2,1.3,13,7.5,15,15.6c0.4,1.7,0.7,3.4,1.1,5c0.3,1.1,0.5,2.2,0.9,3.3c3.2,9.4,6.9,18.6,8.3,28.6c1.5,10.6,1.4,21.2,1,31.8
				c-0.1,2.6-0.6,5.3-0.5,7.9c0.1,4.5,0.5,9.1,0.7,13.6c0.2,5.5-0.5,11,1.8,16.3c0.4,1,0.2,2.3,0,3.4c-0.9,6.2-2,12.3-2.8,18.5
				c-1.8,12.6-2.9,25.3-5.3,37.7c-1.5,7.9-6.2,15.1-6.9,23.3c-5.9,10.3-12.8,19.6-24.4,24.4c-3.3,1.4-6.3,3.5-9.4,5.3
				c-4.3,2.4-8.3,5.5-12.8,7.2c-7.9,3-15.6,6.7-24.2,7.5c-1.7,0.2-3.3,0.7-5,1.3c-9.2,3.2-18.7,3.5-28.1,1.8
				c-7-1.2-13.8-1.6-20.9-0.4c-10.9,1.8-21.8,2.9-32.8,3.9c-2.7,0.3-5.6-0.4-8.3-1.3c-3-1-5.8-2.8-8.8-4.1c-1.5-0.7-3.2-1.3-4.8-1.5
				c-3.4-0.3-6.8-0.3-10.2-0.3c-10.2-0.2-19.9-2.1-29.4-5.9c-10.2-4.1-20.7-7.1-30.5-12.3c-6.9-3.7-13.6-7.6-19.4-12.7
				c-7.7-6.7-15.4-13.5-22.9-20.5c-2.3-2.1-4.6-4.5-6.3-7.2c-2.7-4.3-4.8-9-7.3-13.4c-1.2-2.1-3.4-3.8-4.3-6
				c-3.5-8.4-9.3-15.7-10.5-25c-0.1-0.9-0.6-1.8-1.2-2.6c-5.3-6.5-6.6-14.4-7.4-22.4c-0.1-1.1-0.1-2.3-0.5-3.4
				c-4.6-12.1-3.1-24.7-3.2-37.2C1225.3,1084.5,1226.2,1072.7,1226.6,1061z M1292.8,878.5c-0.1-1-0.1-2.9-0.4-4.8
				c-1-6.2-2.3-12.3-3.2-18.5c-0.8-5.8-1.2-11.7-2.1-17.5c-0.7-4.5-2.2-8.8-3-13.3c-1.5-8.8-2.7-17.6-3.9-26.5
				c-1.6-10.9-2.8-21.8-4.6-32.7c-1.7-10.3-3.8-20.5-6.2-30.7c-3.6-15.1-7.6-30.1-11.4-45.2c-1.6-6.4-3.3-12.9-4.7-19.3
				c-1-4.5-3.3-6.7-8.1-7.2c-5.1-0.5-8.8-3.4-9.4-9.1c-0.2-1.5-0.8-2.9-1.3-4.4c-1.8-5.6-3.5-11.2-5.4-16.8
				c-1.5-4.5-3.2-8.9-4.8-13.3c-0.6-1.8-1.6-3.5-1.9-5.3c-1.4-9.4-3.6-18.6-8.1-27.1c-1.6-2.9-1.7-6.6-3-9.8
				c-5.4-12.8-11.1-25.4-16.3-38.2c-2.2-5.4-3.4-11.2-5.2-16.8c-2.4-7.6-4.9-15.1-7.3-22.7c-1.7-5.4-2.6-11.2-5.1-16.2
				c-6.8-13.5-9.8-28.3-15.5-42.2c-2.1-5.1-3.3-10.5-4.7-15.8c-1.5-5.5-5.3-8.1-10.7-8.7c-6-0.7-12.1-1.2-18.1-1.9
				c-7.9-0.9-15.9-1.7-23.7-3.1c-10.3-1.9-20.7-2.5-31.1-2c-7.2,0.4-14.5,0.9-21.6-0.2c-18-2.9-35.9-3.6-54-1.9
				c-11.3,1.1-22.7,2.2-34,3.6c-4.5,0.6-8.8,2-13.1,3.3c-8,2.4-15.1,7.2-23.5,8.3c-3.9,0.5-6.4,3.3-8.3,6.4
				c-4.5,7.2-7.2,15.4-12.9,21.9c-0.4,0.4-0.5,1-0.7,1.6c-7.2,17.7-14.3,35.5-22.5,52.8c-2.4,5.1-5.4,10.1-6.8,15.5
				c-1.5,5.6-3.9,10.6-6.4,15.7c-0.8,1.7-1.6,3.4-2.4,5.2c-2.2,5.2-4.3,10.5-6.7,15.7c-5.6,12.2-12.2,24.1-14.7,37.5
				c-0.4,2-1.2,4-2,5.9c-3.2,8.7-6.7,17.3-9.5,26.2c-3.2,10.3-5.6,20.9-8.8,31.2c-3,9.8-6.5,19.4-10,29
				c-5.2,14.3-8.5,29.1-11.8,43.9c-3.2,14.6-9,28.6-10.4,43.6c0,0.4-0.2,0.7-0.3,1.1c-1.6,7.8-3.1,15.6-4.8,23.4
				c-1,4.8-2.2,9.6-3.5,14.4c-0.9,3.3-2.1,6.5-2.9,9.8c-2.7,10.9-5,21.8-8.1,32.6c-4.9,16.9-6.1,34.4-8.7,51.6
				c-0.3,2.2,0.2,4.1,2.6,4.2c5.7,0.1,9.9,3.3,14.5,6.1c4.7,3,9.8,4.2,15,0.7c3.4-2.3,7.2-2.3,11-1.9c5.1,0.5,10.2,1.1,15.2,2.2
				c3.7,0.8,7.2,2.2,10.8,3.5c10.5,3.8,20.9,7.8,30,14.5c0.2,0.1,0.3,0.2,0.5,0.3c11.4,4.2,20.9,11.5,30.7,18.4
				c7.9,5.6,16,10.8,24.2,16c5.1,3.3,10.5,6.1,15.6,9.4c4.5,2.9,9.4,5.5,12.9,9.3c8.1,8.6,18.3,14.7,25.7,24.1
				c4.8,6.1,10.9,11,16.4,16.5c3.9,3.9,3.8,3.9,9.1,1.6c4.1-1.8,8.1-2.8,12.2,2.3c1.4,1.8,3,3.4,4.5,5.2c3.3,4,5,4.2,8.6,0.3
				c1.7-1.8,2.9-3.9,4.4-5.9c2.7-3.6,5.9-6.9,8.1-10.8c3.9-6.8,7.8-13.5,13-19.3c6.7-7.5,13.4-14.9,19.7-22.7
				c6.6-8.1,14.4-15.2,19.3-24.6c0.5-1,1.5-1.7,2.3-2.5c9.2-8.2,19.9-13.8,30.9-19.1c2.7-1.3,5.5-2.6,8-4.3
				c9.7-6.7,19.5-13.1,30.8-16.9c3.9-1.3,7.5-3.6,11.4-5.2c5.9-2.5,11.8-5.3,17.9-7.1c8.6-2.4,17.3-4.1,25-9
				c0.9-0.6,2.1-1.1,3.2-1.2c9.9-1.7,19.8-3.3,29.7-4.8c4.1-0.6,8.4-0.8,12.4-1.8c8.5-2,17-1,25.4,0.4c6,1,6.1,1.2,6.4-4.8
				C1292.7,880.5,1292.7,880,1292.8,878.5z M702.7,1211.4c-1-2.8-2.3-4.9-2.3-7c-0.1-5.8-0.2-11.7,0.5-17.5
				c1.1-10.1,2.8-20.2,4.3-30.3c1.5-10.5,3.1-21,4.7-31.4c0.7-4.5,1.8-8.9,2.4-13.5c1.5-11.9,2.6-23.8,4.1-35.6
				c1-8.4,2.2-16.9,3.3-25.3c0.4-2.6,0.8-5.2,1.4-7.7c1.4-5.1,3.6-10,4.5-15.2c1.6-9.1,2.4-18.4,3.6-27.6c0.8-6.2,1.7-12.4,2.9-18.5
				c1-5.4,2.9-10.6,3.8-16c1.6-10.5,2.8-21.1,4.1-31.6c0.3-2.1,0.3-4.1,0.6-6.2c0.8-5,1.6-10.1,2.4-15.1c0.6-3.5,0.9-7.1,1.8-10.6
				c0.9-3.5,2.7-6.7,3.4-10.2c1.2-5.7,1.5-11.7,2.8-17.4c1.9-8.4,1.4-17.5,6.8-24.9c0.4-0.6,0.5-1.4,0.7-2.2
				c1.2-5.5,1.6-11.1,3.3-16.5c3-9.4,5.2-19,7.6-28.6c1.7-6.6,2.8-13.3,4.7-19.9c2-6.8,3-13.7,3.8-20.7c0.3-2.6,1.4-5.2,2.7-7.5
				c4.2-7.1,4.7-15.2,6.2-22.9c1.7-8.4,3.3-16.7,7.2-24.4c0.6-1.2,0.9-2.5,1.1-3.8c2.1-11,4.2-21.9,6.4-32.9
				c0.4-1.8,1.2-3.6,1.9-5.4c3.4-9.1,6.9-18.3,10.2-27.4c0.3-0.9,0.2-1.9,0.3-2.8c1.1-7,2.3-13.8,6.6-19.8c1.9-2.6,2.5-6.3,3.5-9.5
				c1.4-4.3,2.5-8.7,3.9-13c0.8-2.5,1.8-4.8,2.7-7.3c2.1-5.9,3.2-12.3,6.3-17.5c3.2-5.4,5.8-11.1,8.1-16.9c0.8-1.9,1.6-3.9,2.4-5.8
				c4.7-11,9.6-21.9,14.2-32.9c2.2-5.2,2.8-11.1,6.9-15.4c0.2-0.3,0.3-0.7,0.5-1c2.3-5,4.5-10,6.9-15c3.5-7.4,7-14.7,10.5-22.1
				c1.5-3.1,3-6.1,4.3-9.2c1.3-3.3,2.2-6.9,3.7-10.1c2.7-6,5.7-11.9,8.5-17.9c1-2.2,2-4.5,2.9-6.8c2.5-6.5,4.9-13.1,7.3-19.7
				c0.3-0.9,0.6-1.8,0.7-2.7c1.7-11.2,11.2-13.3,19.8-10.9c6.3,1.7,13.1,3.2,19.6,3c12.9-0.5,25.7-2.1,38.5-3.4
				c7.5-0.7,14.9-2.4,22.7-1.1c4.4,0.8,9.1,0.3,13.7,0c5.7-0.3,11.4-0.8,17-1.3c4.5-0.4,9-0.9,13.6-1.3c9.5-0.8,18.9-2.2,28.4-2.2
				c13.8,0,27.7,0.9,41.5,1.9c7.7,0.6,15.4,2.2,23.1,3.2c6,0.8,12,1.7,18.1,2.2c8.3,0.7,16.7,0.5,25,1.8c12.8,1.9,25.5,4,38.5,4.2
				c8.3,0.1,16.7,1,24.9,2.1c4.4,0.6,8.6,1,13,0c7-1.6,14-1.2,21-0.5c6,0.6,12.1,1.2,18.2,1.6c15.8,1.1,31.4-1.8,47.1-2.8
				c8.7-0.5,17.3-2.3,25.9-3.5c1.1-0.2,2.3-0.1,3.4,0c6.6,0.5,13.2,1.2,19.9,1.6c5.1,0.3,10.3,0.3,15.4,0.3c4.6-0.1,5.6-1.5,5.3-6
				c-0.3-4.9-0.4-9.8-0.3-14.8c0-3,0.5-6,0.6-9.1c0.3-6.4,0.5-12.9,0.7-19.4c0-1.5,0.2-3.1-0.3-4.5c-1.6-4.3-1.3-8.6-0.9-12.9
				c0.3-3.6,0.4-7.2,0.3-10.8c-0.1-5.5-1.2-6.8-6.7-7c-6.6-0.2-12.7-2-18.8-4.2c-1.2-0.5-2.5-1-3.8-1.1c-10.2-0.9-20.4-1.8-30.6-2.7
				c-3-0.3-6.2-0.1-9-1c-4.2-1.3-8.2-0.9-12.4-0.5c-11.7,1.1-23.5,2.1-35.2,2.3c-8.7,0.1-17.4-1.4-26.1-1.7
				c-10.8-0.3-21.6,0.2-32.4-0.2c-18.6-0.7-37.2-1.7-55.8-2.6c-13.5-0.7-26.9-1.6-40.4-2c-16.5-0.4-33.1-0.4-49.6-0.3
				c-6.8,0-13.7,0.3-20.5,0.8c-11.4,0.8-22.7,2.6-34,2.8c-17.3,0.4-34.6-0.1-51.9-0.1c-3,0-6.1,0.1-9.1,0.2
				c-18.9,1.1-37.8,4.1-56.8,3.6c-3.8-0.1-7.5-0.4-11.3-0.5c-1.7-0.1-3.4-0.1-5.1,0c-4.2,0.1-8.4,0.5-12.5,0.2
				c-11.7-0.8-23.5-1.9-35.2-2.8c-3.4-0.2-6.8,0-10.2,0.1c-9.7,0.3-19.3,1.3-29,1c-19.5-0.6-39-2-58.5-2.6c-7.6-0.3-15.2,0.6-22.8,1
				c-6.1,0.3-12.1,1.1-18.2,0.9c-8.1-0.2-16.2-1.3-24.4-1.8c-12.9-0.8-25.7-2.6-38.7-1.8c-4.9,0.3-9.9,0.4-14.8,0.2
				c-11.2-0.5-22.3-1.9-33.3-4.5c-9.4-2.2-16.2,2.8-16.8,12.3c-0.8,13.3,0.8,26.5,2.1,39.7c0.8,8.1,0.8,16.3,1,24.4
				c0.3,8,0,16,0.7,23.9c0.6,6.6,3,8.7,9.6,10c2.2,0.4,4.5,0.8,6.8,0.6c7.8-0.5,15.5-1,23.2-1.9c9.2-1.2,18.4-3.8,27.7-1.7
				c11.3,2.6,22.7-0.3,34.1,1c1.5,0.2,3-0.3,4.5-0.3c7.2-0.1,14.4-0.5,21.6-0.2c9.3,0.3,18.6,1.2,27.8,1.7c4,0.2,8,0.1,12,0.2
				c6.6,0.3,13.3,1.4,19.9,0.8c7.7-0.7,15.1,0.6,22.6,1.3c2.3,0.2,4.7,0.3,6.7,1.3c6.1,3,11.6,3.9,18.1-0.1c6-3.7,11.8,0.9,11.7,8.1
				c-0.1,3.2-1.6,5.7-3.4,8.2c-5.6,7.8-11.3,15.7-16.7,23.7c-4.2,6.3-7.6,13.1-12,19.3c-6.5,9.1-13.4,17.7-17.7,28.3
				c-3.6,9.1-9.4,17.4-10.6,27.5c-0.2,1.7-1.1,3.2-1.6,4.8c-1.3,3.8-2.8,7.5-3.9,11.3c-5.2,18.2-10.4,36.5-15.6,54.8
				c-0.4,1.4-0.9,2.9-1.8,4.2c-5.4,8-6.8,17.6-10.5,26.3c-6.1,14.7-10.8,29.9-16.2,44.9c-0.8,2.1-1.9,4.2-2.3,6.4
				c-2.1,11.4-8.2,21.7-9.4,33.3c-0.1,0.7-0.6,1.4-0.8,2.1c-3.3,9.7-6.6,19.3-9.8,29c-0.2,0.7-0.3,1.5-0.4,2.2
				c-2.2,9-4.2,18.1-6.6,27.1c-2.9,10.8-6,21.5-9,32.3c-0.2,0.5-0.3,1.1-0.2,1.7c0.4,5.6-1.5,10.8-3,16.1c-1.4,4.9-2,10-3.2,15
				c-1.3,5.5-2.9,11-4.5,16.4c-1.1,3.8-2.6,7.5-3.8,11.2c-1.3,4.2-2.1,8.5-3.5,12.6c-3.9,11.3-7,22.9-9,34.7
				c-1.7,10.3-3.1,20.7-7.6,30.3c-0.4,0.8-0.4,1.9-0.6,2.8c-4.1,20.1-8.8,40.1-16.9,59c-0.4,1-0.9,2.1-1.1,3.2
				c-1.4,8-2.7,16.1-4,24.1c-1,6.2-1.9,12.4-3.1,18.5c-2.2,10.8-4.7,21.5-7,32.3c-2.5,12-2,24.6-6.6,36.3c-0.2,0.5-0.2,1.1-0.2,1.7
				c-0.4,8.2-0.7,16.3-1.3,24.5c-0.6,7.5-1.1,15.1-2.3,22.6c-1.5,9.4-2.8,18.7-1.3,28.3c0.6,4,0.4,8.4-0.8,12.3c-1.3,4.6-1,9,0,13.4
				c0.9,4,1.8,4.5,6,4.7c2.8,0.2,5.7,0.2,8.5,0.4c7.9,0.6,15.8,1.4,23.8,2c1.9,0.1,3.8-0.3,5.7-0.6c9-1.2,18-2.3,27.1-3.5
				C698.3,1212.4,700.3,1211.9,702.7,1211.4z M1403.8,1227.3c9.1,1.4,18-2.9,27.4-4.2c4.1-0.6,5.5-3,5.6-7.4c0-5.5-0.2-11-0.3-16.5
				c-0.1-3.2,0.4-6.6-0.6-9.5c-3.5-9.8-7.8-19.3-10.9-29.2c-0.9-2.9-1.7-5.7-1.8-8.8c-0.2-3.6-0.6-7.1-1.3-10.7
				c-0.5-2.6-1.7-5-2.2-7.6c-1.8-8.9-3.2-17.9-5-26.8c-2.2-10.8-4.8-21.5-6.9-32.3c-2.2-11.3-2.2-23.1-5.9-34.1
				c-0.5-1.4-0.3-3-0.5-4.5c-0.7-6.4-0.6-12.8-2.8-19.1c-1.9-5.5-3-11.4-3.9-17.1c-1.6-10.1-2.3-20.4-4.4-30.4
				c-2.2-10.9-2.5-22.2-6.1-32.9c-1.8-5.3-0.3-11.5-4-16.3c-0.2-0.3-0.2-0.7-0.2-1.1c-1.2-12.3-2.7-24.5-3.4-36.8
				c-0.5-7.6-0.3-15.2-3-22.5c-0.5-1.4-0.5-3-0.6-4.5c-0.6-14.9-3.1-29.4-7-43.8c-1.2-4.4-2.7-8.8-3.1-13.3c-1-13.7-3.7-27-7.2-40.3
				c-1.9-7.3-3.1-14.8-4.6-22.3c-0.8-4.3-1.3-8.6-2.2-12.9c-1-4.8-2.6-9.6-3.5-14.4c-2.2-11.4-3.9-22.8-6.1-34.2
				c-1.4-6.9-3.1-13.7-5-20.4c-1.6-5.5-3.8-10.7-5.7-16.1c-0.6-1.8-1.5-3.5-2-5.3c-1.7-6-3.3-12.1-4.9-18.1c-0.4-1.6-0.8-3.3-1.2-5
				c-2.5-11.3-5-22.6-7.5-33.9c-0.3-1.5-1-2.9-1.5-4.3c-2-5.7-4.2-11.3-5.8-17.2c-2.4-9.1-3.8-18.5-8.1-27.2c-1-2-1.7-4.3-1.8-6.6
				c-0.3-7.2-2.6-13.8-5-20.4c-3.8-10.1-5.1-21.1-11-30.5c-0.4-0.6-0.5-1.4-0.8-2.1c-4.3-11.1-7-22.7-12.3-33.4
				c-1.8-3.6-3.2-7.3-5-10.9c-1.4-2.8-3.4-5.1-6.8-5.6c-8.7-1.1-17.3-2.1-26-3.1c-0.6-0.1-1.2-0.1-1.7,0c-6.5,1.4-12.9,0.2-19.3-0.4
				c-2.4-0.2-5-0.3-7.4-0.1c-2.7,0.3-3.5,1.8-2.7,4.4c0.3,1.1,1,2,1.4,3.1c1.5,3.9,3.7,7.7,4.3,11.7c1.1,7.5,4.1,14.2,6.8,21.1
				c2.8,7.2,5.2,14.6,7.7,21.9c1.3,3.9,2.5,7.9,3.9,11.8c2.5,7,5.4,13.8,7.6,20.8c3.1,9.7,5.7,19.7,8.7,29.4c3.9,13,8.1,26,12.1,39
				c0.4,1.3,0.6,2.6,0.9,3.9c1.4,5.9,2.8,11.8,4.4,17.7c2.7,10.3,5.6,20.5,8.4,30.7c1.6,6,2.9,12.1,4.9,18
				c2.1,6.1,4.4,12.1,4.8,18.6c0.1,1.8,0.9,3.6,1.5,5.4c0.8,2.7,1.7,5.4,2.5,8.1c3.1,11.9,6,23.9,9.1,35.8c2,7.5,4.2,14.9,6.2,22.4
				c0.8,2.9,1.3,5.9,1.9,8.9c0.5,2.4,1,4.8,1.3,7.2c1.4,10.9,2.5,21.9,4,32.8c1,7.5,2.7,14.9,3.7,22.4c1.9,13.5,3.7,27.1,5.5,40.6
				c0.7,5.1,0.8,10.3,2.2,15.2c3.1,10.8,3.6,22,5.2,33.1c0.6,4.2,2.5,7,6.1,8.9c2.8,1.5,5.7,3,8.2,5c5.8,4.6,5.5,12-0.5,16.3
				c-1.1,0.8-2.2,1.5-3.4,2.1c-4.8,2.9-5.7,5.2-4.9,10.9c1.1,8.3,1.9,16.6,2.9,24.9c0.6,5.4,1.1,10.9,2.2,16.3
				c2.6,12.5,3.8,25.1,4.1,37.8c0.1,6.5-0.2,13,0.5,19.4c1.4,12.2,4.8,24.2,5.3,36.6c0.3,8.5,2.2,17,2.2,25.5
				c0,16.8,2.3,33.3,3.7,49.9c0.3,3.4,1.7,5.9,5.1,7.6c4.2,2.1,8.3,4.6,12.2,7.3c7.8,5.3,10.7,10.6,0.7,18.8
				c-4.2,3.4-6,7.7-6.5,12.8c-0.2,2.3-0.3,4.5-0.4,6.8c-0.3,5.3-0.7,10.6-0.9,15.9c-0.3,5.8,1.7,8.3,7.5,9.3
				c4.7,0.8,9.4,1.7,14.1,2.3c2,0.2,4.3,0.1,6.1-0.7C1388,1227.8,1395.5,1227,1403.8,1227.3z M1075.9,1032.1c4.7,0.3,7.2-1,9-4.2
				c1.8-3.1,3.7-6.2,5.9-9c5.4-6.8,11.1-13.4,16.7-20c0.6-0.7,1.4-1.4,1.7-2.2c0.3-0.7,0.1-1.8-0.3-2.5c-0.2-0.4-1.5-0.5-2-0.2
				c-1.8,1.1-3.7,2.1-5,3.6c-6.5,7.1-12.9,14.3-19.2,21.6c-1.9,2.3-3.5,4.9-5,7.5C1076.9,1028.1,1076.7,1029.8,1075.9,1032.1z
				 M1679.9,1767.3c-1.2-0.1-1.8-0.4-2.2-0.2c-5.6,2.7-11.3,5.3-16.8,8.1c-3.4,1.7-6.5,3.9-9.8,5.6c-3.7,1.9-7.6,3.4-11.3,5.2
				c-6.5,3.1-12.9,6.2-19.4,9.3c-0.4,0.2-0.5,0.8-0.9,1.3C1629.9,1796.2,1674.8,1774.6,1679.9,1767.3z M1037.3,1123.4
				c-0.3-5.3-2.2-8.5-4.4-11.6c-2.8-4-6.4-7.5-7.9-12.4c-0.5-1.6-1.5-3.6-4.1-2.8c-0.7,3.6-0.6,3.6,1.1,6.2c2,3.2,3.7,6.5,5.7,9.7
				C1030.1,1116.3,1032.1,1120.4,1037.3,1123.4z M1189.2,453.7c-2.3-4.7,0.7-10.8-4.4-15.2C1183,443.9,1184.9,450.5,1189.2,453.7z
				 M1596.3,1802.8c5.1,1.9,5.6,1.8,9-3C1601.8,1801,1599.4,1801.8,1596.3,1802.8z M707.8,1794.4c0,0.6,0,1.1,0,1.7
				c1.8,0,3.6,0,5.5,0c0-0.3,0-0.6,0-0.9C711.4,1794.9,709.6,1794.6,707.8,1794.4z"/>
			<path d="M91.1,1444.2c0.3-1.3,0.9-2.5,0.9-3.6c0-1.9-0.7-3.8-0.7-5.6c0.1-3.6-1.4-6.1-4.7-7.7c-4.3-2.2-6.3-5.7-6.3-10.6
				c0-2.1-0.4-4.2-0.9-6.2c-0.7-3,0-5.2,2.8-6.7c2.1-1.2,4.2-2.5,6.9-4c4.6,14,8.8,27.3,5.2,41.7c-0.7,2.8,0.1,6,0.6,9
				c0.4,2.1,0.1,3.5-1.7,4.9c-3.4,2.7-4.1,5.6-1.2,9c3.7,4.2,4.8,8.8,4.6,14.1c-0.1,1.7,0.2,3.5,0.9,5c1.7,3.5,1.9,6.8,0.2,10.4
				c-0.6,1.1-0.3,3.1,0.3,4.3c3.4,6.2,3.1,11.9-1.1,17.6c-0.2,0.3-0.2,0.7-0.3,1.2c0.2,0.4,0.4,1,0.7,1.3c4.9,4.5,5,4.5,2.5,11.3
				c-0.8,2.2-0.2,4,1,5.9c1.1,1.7,2,3.7,2.5,5.6c1.3,4.9-2,7.7-5.8,10.7c1.1,1.3,1.7,2.7,2.9,3.4c2.9,1.5,3.6,4,3,6.7
				c-0.9,4-0.7,7.8,0.1,11.7c0.3,1.6,0.1,3.4,0.1,5.3c-1.5,0.5-2.8,1-4.1,1.5c0.6,4.3,0.6,4.3,7.1,5.2c-1.7,9.2,3.4,17.9,1.5,27.3
				c-0.4,2.1,0.4,4.5,0.6,6.7c0.3,2.5,0.5,5.1,0.9,8.5c-2.9-1.5-4.7-2.4-7-3.5c-0.7,3.1,0.7,4.8,2.3,6c3.6,2.6,4.8,6.1,4.6,10.4
				c0,1.8,0.5,3.8,1.3,5.5c2.3,5,2.9,9.8,0,14.7c-1.2,1.9-0.7,3.3,0.6,5.1c3.4,4.7,4.1,9.9,3.3,15.6c-0.4,2.9-0.1,6.2,0.9,8.8
				c2.2,5.5,2.7,11,2,16.7c-0.1,1.2-0.8,2.5-1.6,3.4c-1.8,2-1.8,3.8-0.5,6.2c1,1.9,1.1,4.3,1.6,6.4c0.3,1.4,0.6,2.9,0.9,4.3
				c0.2,0.7,0.7,1.4,0.7,2.1c-0.5,5.2-1.1,10.4-1.5,15.6c-0.1,1.4-0.1,3.3,0.7,4.3c4.6,6.2,4.9,13.8,6.8,20.8
				c1.2,4.4,1.6,8.9,0.6,13.4c-1.4,6.2,0.6,12.1,2,17.8c1.1,4.6,0.7,8.6-0.8,12.7c-0.9,2.5-1.2,4.6,0.7,6.8c1.2,1.4,1.9,3.3,2.3,5.1
				c1.9,9.8,3.7,19.7,5.5,29.5c0.9,4.8,1.9,9.3,0.5,14.4c-0.9,3.2,0.7,7,0.9,10.5c0.2,3.2,0,6.4,0,9.7c0,1.5-0.3,3.2,0.3,4.5
				c3.7,7.4,1.9,15.8,4.9,23.3c0.1,0.3,0.2,0.8,0.1,1.1c-2.6,7.7,0.8,15.1,1.3,22.7c0.2,3,0.3,6.1,0.3,9.1c0,4.2-0.1,8.3-0.3,12.5
				c-0.1,3-0.7,5.9-0.6,8.9c0,2,0.4,4.1,1.2,6c1.2,2.9,1.5,5.6,0.1,9.4c-3.8-5.9-8.1-10.5-6.8-17.5c0.2-1-0.3-2.2-0.5-3.3
				c-0.9-3.6-2.2-7.2-2.7-10.9c-0.7-6-0.9-12.1-1.3-18.2c0-0.4,0.1-0.8-0.1-1.1c-2.8-5.7-1.3-11.8-1.6-17.7
				c-0.4-7.5-1.3-15-2.7-22.3c-1.2-6.3-3.6-12.3-4.8-18.6c-0.7-3.8-0.5-7.9-0.1-11.8c0.2-2,0-3.5-0.7-5.4c-1.4-3.1-2.6-6.4-3.3-9.7
				c-0.9-4.1-1.1-8.3,2.6-11.9c-3.3-2.8-4-6.2-4.4-10.1c-0.9-7.9-2.5-15.7-3.7-23.6c-0.2-1.3-0.7-3-0.1-3.9c4.6-6.5-0.1-13,0.4-19.5
				c0-0.2,0-0.4-0.2-0.5c-4.8-4-2.3-9.4-2.7-14.3c-0.1-1.4,0.4-3.1,1.1-4.3c1.6-2.8,0.8-4.9-1.2-7.1c-3.5-3.8-4.7-8.5-4.9-13.6
				c-0.1-2.8-1.1-5.5-1.4-8.3c-0.2-1.8-0.4-3.9,0.5-5.3c1.8-3,0.5-5.4-0.4-8.1c-1.1-3.4-2.2-6.8-2.7-10.3c-0.5-3.7-0.5-7.5-0.5-11.2
				c-0.1-2.8,0.1-5.6,0.1-8.5c-0.1-3.2-0.3-6.4-0.6-9.6c-0.1-0.7-0.9-1.7-0.7-2.1c3.3-5.2-1.5-9.2-2-13.9c-0.2-1.5-0.8-2.9-1.3-4.4
				c-0.7-2.1-0.2-3.4,1.8-4.8c3.7-2.5,3.4-2.6,1.2-6.7c-2.3-4.3-5.1-8.5-4.4-13.8c0.1-1.1-0.2-2.3-0.6-3.3c-2.2-5-2.8-10.2-2.6-15.6
				c0.1-1.3,0.1-2.8-0.4-4c-2.7-7.4-1.1-14.5,0.6-21.7c0.4-1.8-0.3-4.1-1.3-5.8c-2.4-4-4.3-7.5-3.3-12.7c0.6-3-1.1-6.5,0.9-9.7
				c0.3-0.5,0-1.5-0.3-2.2c-2.4-5.6-2.4-11.8-1.7-17.4c0.7-5.7,1.9-11-0.1-16.5c2.2-8.1-0.8-15.8-1.6-23.6
				c-0.5-4.4,0.9-8.2,1.5-12.3c0.7-5,0.8-9.7-1.2-14.4c-1.6-3.6-2.8-7.4-3.8-11.2c-0.6-2.2-0.8-4.6-0.6-6.8
				c0.6-4.8,2.7-9.4,1.5-14.5c-0.4-1.8,1.5-2.7,3.1-2.2C87.4,1442.1,88.9,1443.1,91.1,1444.2z M99.8,1603c2.7-3.4,2.8-4.2,0.7-7.7
				C98.5,1597.8,99.1,1600.3,99.8,1603z M92.7,1493.5c0.3-0.2,0.5-0.3,0.8-0.5c-0.2-0.2-0.5-0.4-0.7-0.6c-0.1,0-0.4,0.2-0.4,0.3
				C92.4,1492.9,92.5,1493.2,92.7,1493.5z"/>
			<path d="M76.7,1332.5c1.5,1.7,2.5,3.4,4,4.4c1.5,1,3.4,1.3,5.7,2.1c-2.2,7.3,2.1,13.5,3.6,20.3c0.9,4.4,0.1,8-1.4,12.3
				c-2-0.9-3.6-1.7-5.6-2.7c-0.3,1.5-0.8,2.5-0.7,3.5c0.1,1.3,0.6,2.6,0.9,3.9c0.8,3.6,0.2,5.9-1.7,6.4c-2.3,0.7-4.9-1.1-5.3-4.5
				c-0.4-3.3-0.1-6.7,0-10.1c0.1-1.5,0.8-3,0.6-4.4c-0.2-2.3,0.3-3.8,2.2-5.4c2.7-2.2,2.7-3.7,0-6c-3.2-2.8-4.4-5.5-1.7-9.2
				c1.5-2.1,0.4-4-1-5.7C75.1,1335.9,74.1,1334.7,76.7,1332.5z"/>
			<path d="M2082.7,543.5c12.5,11.1,17,24.6,13.3,41.1c-0.9-1-2-1.9-2.7-2.9c-1.9-2.6-3.7-5.1-6.6-6.9c-1.6-1-2.9-3.6-3.1-5.7
				c-0.8-7.9-1.2-15.8-1.6-23.8C2081.9,544.9,2082.3,544.4,2082.7,543.5z"/>
			<path d="M2090.6,652.3c-0.1,5.8,2.5,8.4,7.3,9.4c1.2,0.2,2.7,2.4,2.7,3.7c0.5,8.3,0.7,16.6,0.8,24.9c0,1.1-1,2.2-1.5,3.3
				c-1.2-0.7-3.1-1-3.5-2c-2.5-5.5-6.9-10.6-4.6-17.5c0.5-1.5-0.8-3.5-1.3-5.3c-1-3.6-2.4-7.2-3.1-10.8
				C2086.8,655.3,2087.2,655.2,2090.6,652.3z M2098.1,682c-0.2-3.2-1.2-4.4-3.9-4C2095.1,680.6,2095.1,680.6,2098.1,682z"/>
			<path d="M2086.3,578.9c1,2.1,1.9,3.1,1.7,3.9c-0.9,5.4,2.3,8.4,6.2,11.1c3.8,2.6,5.1,6.5,5.3,10.8c0.2,3.4-0.8,4.9-4,4.8
				c-3.1,0-6.3-0.9-9.2-1.9c-1-0.4-2-2.3-2.1-3.6c-0.3-2.2-0.2-4.6,0.2-6.8c0.6-3.1,1.4-6,0.2-9.4
				C2083.5,585.4,2084.7,582.6,2086.3,578.9z"/>
			<path d="M2091.2,691.9c2.9,3.3,5.4,6,7.7,8.9c0.7,0.9,0.7,2.5,0.9,3.8c0.4,2.6,0.9,5.1,1.1,7.7c0.1,1.1-0.4,2.3-0.6,3.5
				c-1.4-0.3-3.6-0.2-4-1c-1.1-2.2-2.3-3.2-4.8-2.8c-0.8,0.1-1.9-0.5-2.5-1.1c-2.8-2.4-3.5-9.9-1.5-13
				C2088.6,696.3,2089.5,694.7,2091.2,691.9z"/>
			<path d="M1037.6,2107.2c-1.1,0.7-1.6,1.3-2,1.3c-11.7-0.9-23.4-1.7-35-2.7c-1.2-0.1-2.3-0.8-4.6-1.6c1.8-0.9,2.7-1.6,3.6-1.6
				c3.4-0.1,6.8-0.1,10.1-0.1c1.7,0,3.4,0.2,5.1,0.3c4.3,0.4,8.6,1.2,12.9,0.9C1031.4,2103.6,1034.2,2104.8,1037.6,2107.2z"/>
			<path d="M173.1,2080.6c-5.1,6.4-12.4,6.7-17.4,0.9c-1.5-1.8-1.2-4.5,0.9-4.5c5.3-0.1,11-1.3,15.8,2.2
				C172.8,2079.5,172.9,2080.1,173.1,2080.6z"/>
			<path d="M2095.7,627.3c-7.7-3.8-10.9-8.7-10-14.6C2096.8,617.9,2098.9,620.8,2095.7,627.3z"/>
			<path d="M364.7,2111.9c-2.8-0.7-4.8-1.1-6.7-1.7c-2-0.6-3.2-2-2.7-4.2c0.5-2.3,2.2-3.6,4.5-3.3c2,0.3,3.9,1.2,5.8,2
				c1.8,0.7,3.7,1.9,2.6,4.1C367.6,2110.1,365.8,2110.9,364.7,2111.9z"/>
			<path d="M2089.4,775.7c-1-0.6-1.6-0.8-2-1.2c-2.3-2.9-3.1-14.1-1.2-17.1c0.4-0.6,1.1-0.8,1.9-1.4c2.7,3.7,4,7.1,2.1,11.5
				C2089.2,769.7,2089.6,772.6,2089.4,775.7z"/>
			<path d="M2100.9,929.2c1.3,5.2,0.5,9-1.1,12.6c-0.5,1.2-2.7,2.5-3.9,2.4c-2.1-0.2-3.1-2.5-2.5-4.4
				C2094.7,935.9,2096.5,932.3,2100.9,929.2z"/>
			<path d="M2101,802c-1.4-2.7-2.5-4.5-3.2-6.3c-1.7-4.4-3.2-8.9-4.6-13.4c-0.3-1,0.5-2.2,0.8-3.4c1.1,0.5,3.1,0.7,3.3,1.5
				c1.7,6.4,3.1,12.8,4.6,19.2C2101.8,799.8,2101.5,800.2,2101,802z"/>
			<path d="M227.3,2087.6c3.4,0,6-0.2,8.6,0.1c2.9,0.3,3.7,1.8,2.7,4.8c-0.2,0.7-0.6,1.4-0.9,2.1c-0.3,0.7-0.8,1.3-1.4,2.2
				C232.7,2094.8,228.7,2093.6,227.3,2087.6z"/>
			<path d="M2101.3,752.5c-4-3.3-5-7.4-5.6-11.3c-0.4-3.2,3.1-3.7,5.3-6C2102.6,741.2,2102.2,746.5,2101.3,752.5z"/>
			<path d="M279.4,2094.9c6.1-0.5,9.3,2.2,12.3,5c0.6,0.6,0.5,2.9-0.2,3.9c-1,1.6-2.8,1.7-4.5,0.5
				C284,2102.1,282.3,2098.8,279.4,2094.9z"/>
			<path d="M2096.3,895.5c-3.5-1.2-5-3.2-4-6.2c0.4-1.2,2-2.8,2.9-2.7c1.4,0.1,3.2,1.4,3.7,2.6
				C2100.2,892.1,2098.3,894,2096.3,895.5z"/>
			<path d="M2090.5,1884.7c0,3.3-1.3,5.6-3,5.1c-2.5-0.8-2.4-3.1-2.4-5.1c0-0.7-0.1-1.7,0.3-2.2c0.8-1.1,1.9-2,2.9-2.9
				c0.7,1.1,1.5,2.3,2.2,3.5C2090.7,1883.4,2090.5,1884.1,2090.5,1884.7z"/>
			<path d="M2092.9,751.4c4.2,3.4,5.3,8.2,6.2,13.1c0.1,0.5-1.3,1.9-1.6,1.8c-0.9-0.3-2.4-1.4-2.3-1.8
				C2096.4,759.7,2094.1,755.8,2092.9,751.4z"/>
			<path d="M146.5,1998c-1.3,1.3-2,2.8-3.1,3.1c-1.7,0.5-3.7-2-3.7-4.2c0-2.6,1.9-5.5,2.9-4.7C144.2,1993.6,145,1995.7,146.5,1998z"
				/>
			<path d="M2091.8,827.7c1,2.4,2.1,4.6,2.8,6.9c0.2,0.7-0.8,1.8-1.2,2.7c-0.8-0.4-1.9-0.6-2.2-1.3c-0.9-1.6-1.7-3.4-2.2-5.2
				C2088.4,829.2,2089.1,828,2091.8,827.7z"/>
			<path d="M2088.6,864.7c0-3.1-0.2-6.3,0.1-9.4c0.1-0.9,1.5-1.7,2.3-2.5c0.4,1.1,1.3,2.3,1.2,3.3c-0.4,3-1.3,5.9-2,8.8
				C2089.7,864.8,2089.2,864.8,2088.6,864.7z"/>
			<path d="M827.6,2103.8c-5.8,2.7-7.9,2.1-9.5-2.2C822.1,2100.5,823,2100.7,827.6,2103.8z"/>
			<path d="M631.3,2109c-2.7-0.4-4.5-0.6-6.4-0.8c-0.1-0.5-0.2-1-0.3-1.5c2.2-1.4,4.4-2.8,7.4-4.7
				C631.7,2104.8,631.5,2106.5,631.3,2109z"/>
			<path d="M573.3,169.3c0.8,4.5,0.1,5.4-5,6.6C567.9,171.9,568.5,171.2,573.3,169.3z"/>
			<path d="M1524.4,523.9c-3.1,0-5,0.2-6.9-0.1c-0.6-0.1-1.2-1.3-1.3-2.1c-0.1-0.4,0.8-1.3,1.4-1.5
				C1520,519.7,1522.3,519.8,1524.4,523.9z"/>
			<path d="M257.5,2094.1c5.9,1,6.1,1.2,7.2,6.2C260.9,2100.1,259.3,2097.9,257.5,2094.1z"/>
			<path d="M2082.4,631.8c4.1,1.2,4.3,2.2,2.3,7.8C2081.9,637.5,2081.8,634.8,2082.4,631.8z"/>
			<path d="M341,2106c-3.3,1.5-6.2,0.9-10.2-1C335.3,2102.6,338.2,2104,341,2106z"/>
			<path d="M573.7,2106c-3.2,1.1-5.7,0.9-7.9-1.7C569.5,2101.9,570.1,2102.1,573.7,2106z"/>
			<path d="M312.5,2106.9c-1.6,0.2-3.3,0.7-4.8,0.4c-0.9-0.2-1.4-1.7-2.1-2.7c1-0.5,2.1-1.5,3-1.3c1.5,0.4,2.8,1.4,4.2,2.2
				C312.7,2106,312.6,2106.4,312.5,2106.9z"/>
			<path d="M2090.3,629.8c4.3,0.6,3.8,3.3,3.8,6.4C2090.1,635.4,2089.9,633,2090.3,629.8z"/>
			<path d="M2089.1,794c-0.4-0.3-0.9-0.4-1-0.7c-0.9-1.6-1.2-3.3,0.6-4.4c0.4-0.3,2,0.3,2.2,0.9
				C2091.9,791.7,2091.5,793.4,2089.1,794z"/>
			<path d="M2081.4,1587.2c2.4,1,3.6,2.3,2.5,4.5c-0.3,0.6-2.2,1.2-2.8,0.8C2078.9,1591,2080.1,1589.3,2081.4,1587.2z"/>
			<path d="M80.8,1130.5c2.3,3.1,2.6,5.3,0.9,7.9C80.4,1135.3,80.4,1135.3,80.8,1130.5z"/>
			<path d="M77.7,1325.5c-2.8-1.2-3.5-2.7-2.3-4.7c0.2-0.4,1.5-0.7,1.9-0.4C79.2,1321.8,78.6,1323.5,77.7,1325.5z"/>
			<path d="M76.2,1313.6c-0.9-4.7-0.9-4.7,1.5-8C78,1308.5,78.7,1310.7,76.2,1313.6z"/>
			<path d="M191.3,2081.9c0.3-0.2,0.4-0.4,0.6-0.4c1.9,0,3.4,0.6,3.2,2.8c0,0.4-1.2,1.2-1.7,1.1
				C191.4,2085.1,190.7,2083.8,191.3,2081.9z"/>
			<path d="M2097.6,335.8c0.7,1.4,1.4,2.7,2.4,4.7c-3.9-0.9-3.9-0.9-3.7-4.1C2096.8,336.2,2097.2,336,2097.6,335.8z"/>
			<path d="M534,2109.9c2.4-2.3,3.9-2.3,5.9-0.8C538.4,2111.7,536.8,2111.2,534,2109.9z"/>
			<path d="M589.4,88c-1.9,0.4-3.8,0.7-6,1.2C585.2,86.1,585.2,86.1,589.4,88z"/>
			<path d="M75.5,1003.6c0.4,2.4,0.7,3.9,1,6.1C72.7,1007.6,72.7,1007.6,75.5,1003.6z"/>
			<path d="M518.4,2107.1c1.5,0.6,3,1.3,5.2,2.2C519.9,2110.5,519.9,2110.5,518.4,2107.1z"/>
			<path d="M2083.9,719.3c-0.4-1.6-0.8-3.2-1.4-5.5c3.2,2,3.2,2,2.7,5.3C2084.7,719.1,2084.3,719.2,2083.9,719.3z"/>
			<path d="M2079.2,1696.8c0.8-1.9,1.7-2.9,3.4-2c0.3,0.2,0.5,1.1,0.4,1.5C2082.2,1697.8,2081,1698.3,2079.2,1696.8z"/>
			<path d="M2099.3,1197.8c-0.9,1-1.4,1.6-2,2.2c-0.6-0.6-1.6-1.2-1.6-1.7c0-0.7,0.8-1.4,1.3-2.2
				C2097.7,1196.6,2098.4,1197.1,2099.3,1197.8z"/>
			<path d="M87.7,1394.4c-0.4-1-0.9-2-1.2-3c0-0.1,0.8-0.5,0.9-0.5c0.7,0.8,1.4,1.7,2.1,2.5C88.9,1393.8,88.3,1394.1,87.7,1394.4z"
				/>
			<path d="M2094.4,918.6c0.6-2,0.9-3,1.5-5C2097.6,916.2,2097.2,917.3,2094.4,918.6z"/>
			<path d="M2083.3,1725.1c-1,0.4-1.7,0.9-2.2,0.8c-0.5-0.2-1.1-1.1-1-1.6c0.1-0.4,1.1-1.1,1.5-1
				C2082.2,1723.4,2082.5,1724.2,2083.3,1725.1z"/>
			<path d="M251.8,2093.4c-0.8,0.7-1.3,1.3-1.5,1.2c-0.6-0.2-1.1-0.7-1.6-1.1c0.3-0.4,0.7-1,1-1
				C250.2,2092.5,250.8,2092.9,251.8,2093.4z"/>
			<path d="M76.8,1061c-0.6,0.2-1.3,0.8-1.8,0.6c-0.5-0.2-0.8-1-1.2-1.5c0.6-0.4,1.1-1,1.7-1c0.7,0,1.4,0.4,2.1,0.7
				C77.3,1060.2,77.1,1060.6,76.8,1061z"/>
			<path d="M728.6,2103.1c1,0.8,1.3,1.2,1.7,1.5c-0.5,0.4-1,0.8-1.4,1.3c-0.3-0.4-0.9-0.8-1-1.2
				C727.9,2104.2,728.3,2103.7,728.6,2103.1z"/>
			<path d="M144.9,2021.7c-0.6,0.4-1.1,1-1.3,0.9c-0.5-0.3-0.9-0.9-1.3-1.3c0.4-0.2,0.9-0.7,1.3-0.6
				C144.1,2020.7,144.4,2021.2,144.9,2021.7z"/>
			<path d="M80,1393.7c-0.4,0.5-0.8,0.8-1.1,1.2c-0.3-0.4-0.9-0.7-0.9-1.1c0-0.4,0.5-0.8,0.8-1.2C79.1,1392.9,79.5,1393.2,80,1393.7
				z"/>
			<path d="M74.3,1079.2c-0.4-0.6-0.8-1-0.8-1.4c0-0.4,0.5-0.8,0.8-1.2c0.4,0.4,0.9,0.8,1.1,1.4
				C75.5,1078.2,74.9,1078.7,74.3,1079.2z"/>
			<path d="M2100.5,728c-0.1-0.7-0.2-1.5-0.2-2.2c0.3-0.1,0.5-0.1,0.8-0.2c0.2,0.7,0.5,1.4,0.7,2.2
				C2101.3,727.8,2100.9,727.9,2100.5,728z"/>
			<path d="M779.9,77.3c0.8,0.1,1.5,0.2,2.3,0.3c-0.4,0.4-0.8,0.8-1.3,1.1c-0.2,0.1-0.6-0.3-0.9-0.4C779.9,78,779.9,77.7,779.9,77.3
				z"/>
			<path d="M581,2107.3c-0.6,0.4-1,1-1.3,1c-0.4,0-0.8-0.5-1.2-0.9c0.3-0.3,0.6-0.9,1-1C579.9,2106.4,580.4,2106.9,581,2107.3z"/>
			<path d="M599.7,177.7c-0.3,0.1-0.8,0.4-0.9,0.3c-0.3-0.2-0.4-0.7-0.6-1c0.3,0,0.7-0.2,1-0.1C599.4,177,599.5,177.4,599.7,177.7z"
				/>
			<path d="M512.2,93.2c-0.3,0-0.6,0.1-0.9,0.1c0,0-0.1-0.3-0.1-0.5c0.3,0,0.6-0.1,0.9-0.1C512.2,92.7,512.2,93,512.2,93.2z"/>
			<path d="M1607.9,77.1c-0.3,0.1-0.6,0.2-0.8,0.3c-0.1-0.3-0.2-0.5-0.2-0.8c0-0.1,0.3-0.2,0.4-0.2
				C1607.5,76.7,1607.7,76.9,1607.9,77.1z"/>
			<path class="st2" d="M2095.2,499.2c-0.7,0.5-1.1,0.8-1.5,1.1c-0.4-0.6-0.9-1.1-1.1-1.7c-0.1-0.2,0.9-1,1-0.9
				C2094.2,498,2094.6,498.5,2095.2,499.2z"/>
			<path class="st2" d="M761.2,947.2c1.6,0.3,3.4,0.2,4.8,0.9c8.6,4.7,18.4,7.2,25.6,14.4c0.8,0.8,1.8,1.5,2.8,1.9
				c11.8,4.9,22.2,12.1,33,18.7c6.4,3.9,13.4,7,20.1,10.5c1.5,0.8,2.9,1.8,4.3,2.8c2.1,1.6,4.1,3.4,6.3,4.9c5.7,4,11.5,8,17.3,11.8
				c2.2,1.5,4.7,2.5,6.9,3.9c4,2.5,7.9,4.9,11.1,8.6c2.3,2.6,5.9,4,8.6,6.4c10.2,9.1,21.7,16.5,32.7,24.5
				c6.7,4.9,13.9,9.2,20.4,14.5c4.8,3.9,8.8,8.9,13.1,13.4c2.9,3,6,5.9,8.8,8.9c2.2,2.3,4.1,4.9,6.3,7.2c1.9,2.1,3.9,4.2,6.2,5.9
				c9.1,6.4,16.2,14.6,22.4,23.8c0.8,1.3,1.8,2.4,2.8,3.6c3.3,4.3,7.1,8.3,8.4,14c0.6,2.6,2.5,5.3,4.6,7.1c2.6,2.3,3.7,5.2,5.1,8
				c4.1,8.1,8.5,16,12.4,24.2c3,6.5,5.5,13.2,8.2,19.8c2.3,5.8,4.2,11.7,6.7,17.4c4.3,9.9,6.4,20.2,6.9,30.9c0.1,3,0.4,6.1,1,9
				c0.9,4.1,3.1,7.1,7.3,8.7c4.4,1.7,6.3,5.5,5.8,10c-0.9,8.4-0.3,16.6,3.2,24.4c0.4,0.8,0.6,1.9,0.5,2.8c-0.8,4.8,1.6,8.8,2.9,13.1
				c2.1,6.8,4.1,13.8,3.5,21.2c-0.2,1.8-0.2,4.2,0.7,5.5c2.3,3,2.1,6.4,2.4,9.8c0.9,8.3,1.9,16.5,2.8,24.8
				c0.6,5.8,0.8,11.7,1.8,17.5c1.3,7.3,1.1,14.5,0.2,21.9c-0.5,3.9-0.1,8-0.2,12c-0.1,3.6-1.3,6.9-2.1,10.4
				c-1.6,6.5-2,13.3-5.1,19.5c-0.1,0.1,0,0.4,0,0.6c1.3,7.6-0.4,15-2,22.4c-0.8,3.4,0.3,7.2-2.3,10.3c-1.3,1.5-2,3.5-3.3,5.8
				c0.7,2.5,1,5.3-0.9,8.6c-1.5,2.6-1.7,6.3-1.4,9.4c0.2,2.8-0.5,4.7-1.9,6.9c-1,1.6-2,3.3-2.4,5.1c-3.3,14.3-8.7,27.7-16.6,40.2
				c-3.5,5.6-6.2,11.8-8.9,17.8c-1.8,3.9-4.3,7.6-4.5,12.1c-0.1,1.3-1.3,2.7-2.2,3.9c-2.9,4.2-6.3,8.1-8.8,12.5
				c-4.2,7.4-8.5,14.9-11.7,22.7c-2.9,7-7.1,12.9-11.5,18.8c-3.8,5.1-7.1,10.6-10.7,16c-4.8,7.1-10.3,13.6-17,19.1
				c-1.9,1.6-4.1,3-5.5,4.9c-5.8,7.4-13.6,12.6-20.8,18.5c-8.7,7-18.1,13.1-28,18.3c-2.5,1.3-5.4,1.8-7.9,3.1
				c-4.3,2.3-8.4,5-12.6,7.5c-1.8,1.1-3.5,2.3-5.5,3c-9.5,3.4-18.8,7.2-28.5,9.8c-11.9,3.2-24,5.4-36.1,7.8c-8,1.6-16,3.2-24.1,4.2
				c-16.3,2.2-32.6,0.9-49,0.7c-9.1-0.1-18.2,0.2-27.3,0.2c-5.3,0-10.6-0.4-15.9-0.6c-6.8-0.2-13.7,0.1-20.5-0.6
				c-12.4-1.3-23.6-5.8-32.1-15.4c-2-2.3-3.5-5-5.1-7.5c-1.5-2.3-3.1-4.4-6.4-3.7c-3,0.7-5,3.2-5.3,6.6c-0.4,4.3,1.2,7.8,4,10.9
				c5.1,5.4,10,10.9,15.3,16.1c2.2,2.2,5.3,3.6,8.1,5.1c5,2.8,10.2,5.1,16,5.5c1.6,0.1,3.5,0.1,4.2,2.7c-4.6,1-9,0.7-13.5,0.3
				c-13.6-1.3-27.2-2.6-40.8-4c-3.4-0.4-6.7-1.3-10-1.9c-4.9-0.9-9.7-1.7-14.6-2.7c-6.2-1.1-12.3-2.3-18.5-3.5
				c-7.3-1.4-14.5-2.9-21.7-4.4c-2-0.4-4.2-0.7-6-1.6c-9.9-5-20.8-7-31.2-10.6c-12.5-4.3-24.8-9.6-37-14.6
				c-13.7-5.6-27.5-10.7-42-13.9c-13.2-2.9-25.7-7.7-37.3-15c-7.2-4.5-15.5-7.1-23.2-10.7c-3.9-1.8-7.7-4-11.5-6.1
				c-4-2.2-8-4.3-11.8-6.9c-6.5-4.3-12.9-8.7-19-13.5c-11.5-9-23.4-17.6-33.8-27.7c-9.2-8.9-18.5-17.9-25.2-29.3
				c-5.4-9.3-12.5-17.6-18.4-26.7c-3.7-5.7-6.4-12-9.4-18.2c-7.1-15.1-14.4-30.2-21.1-45.4c-2.4-5.3-3.4-11.2-5-16.9
				c-1.8-6.4-3.8-12.7-5.5-19.2c-1.9-7.1-3.9-14.2-5.3-21.5c-1.7-8.7-3-17.6-4.4-26.4c-0.7-4.5-1.5-9-1.9-13.5
				c-0.8-8.5-1.3-17-1.9-25.6c-0.3-4.9-0.4-9.9-0.6-14.8c-0.2-4.7-0.5-9.5-0.5-14.2c0-16.1-0.4-32.3,0.3-48.4
				c0.5-11.2,2.2-22.3,3.7-33.4c1.3-9.4,3-18.7,4.6-28c2.7-16.3,5.9-32.5,10.8-48.3c2.4-7.8,4.1-15.8,6-23.7
				c2.2-9.1,4-18.2,8.8-26.4c0.2-0.3,0.4-0.7,0.5-1c0.6-8.2,5.2-15,8.1-22.3c3.3-8.5,7.5-16.6,11.6-24.7c4.9-9.6,9.9-19.2,15.1-28.6
				c2.4-4.3,5.4-8.2,8.1-12.4c2.6-4,5.2-7.9,7.7-12c6.2-10.3,14.1-19.3,21.9-28.3c6.5-7.5,12.8-15.1,19.4-22.4
				c2.9-3.2,6.5-5.8,9.9-8.4c9.3-7.1,18.7-14.3,28.2-21.2c4.9-3.6,10.3-6.5,15.4-9.8c2.7-1.7,5.4-3.4,8.1-5.2
				c0.5-0.3,0.8-0.9,1.3-1.1c9.5-4.7,18.4-10.6,29-12.8c4.8-1,9.3-3.1,14.1-4.5c4.3-1.3,8.8-2.4,13.2-3.6
				c11.7-3.1,23.8-4.7,35.2-9.2c2.1-0.8,4.4-1.3,6.6-1.8c9.4-2.3,18.8-4.5,28.2-6.9c3.1-0.8,6-2.3,9-3.3c7.9-2.7,16.1-2.3,24.2-2.3
				c6.5,0,12.9-0.1,19.4,0.1c2.8,0.1,5.6,0.9,8.4,1.3c8.6,1.4,17.1,3.7,25.9,3.4c2.4-0.1,4.8-1.1,7.2-1.6c2.6-0.6,4.2,0.2,4.6,2.8
				c0.3,2.2,0.4,4.6-0.2,6.8c-2.3,8.8-4.8,17.5-7.3,26.3c-1.3,4.7-3,9.4-4,14.2c-2.4,10.9-4.3,21.9-6.8,32.8
				c-1.6,6.8-3.9,13.5-5.7,20.3c-0.9,3.2-1.6,6.6-1.8,9.9c-0.4,6.6-0.3,13.2-3.5,19.4c-1.4,2.7-1.8,6.1-2.2,9.2
				c-1,8.2-1.7,16.5-2.5,24.7c-0.1,0.6-0.1,1.1-0.2,1.7c-1.4,9.6-2.7,19.1-4.3,28.7c-0.4,2.4-1.4,4.7-2.2,7
				c-0.4,1.2-1.1,2.4-1.6,3.7c-3.5,9.8-7.3,19.5-10.2,29.4c-1.2,4.4-0.7,9.4-0.4,14.1c0.3,3.7,1.4,7.4,2.1,11.1
				c0.5,2.6-0.8,4.4-3.4,3.5c-4.6-1.5-9-3.8-13.5-5.8c-1.7-0.8-3.1-2.3-4.8-2.8c-9.9-3-18.1-8.8-26-15c-3.4-2.7-6.1-6.3-8.9-9.6
				c-5-5.7-10.1-11.3-14.8-17.2c-8-10-11.5-21.8-12.4-34.3c-0.7-9.8-0.8-19.7-1.1-29.6c-0.4-10.7,4.2-20,8.5-29.2
				c4.5-9.8,9.5-19.4,14.4-29.1c2.1-4,4.5-7.8,6.7-11.8c0.5-0.8,0.9-1.7,1.3-2.5c2-3.5,2.9-7.1,0.4-10.7c-2.9-4-6.9-5.2-11.6-4.5
				c-7.1,0.9-11.4,5.2-13,12.1c-0.5,2-1.4,3.9-2.2,5.8c-2.8,6.2-5.7,12.4-8.4,18.6c-2.2,5-4.3,10.1-6.6,15.1
				c-5.9,12.9-9.5,26.4-10.9,40.5c-0.8,8.7-1,17.4-1.2,26.1c-0.1,2.8,0.9,5.6,1.4,8.3c0.6,2.8,1.2,5.6,1.7,8.4
				c1.3,7.5,2.6,14.9,3.9,22.4c1.1,6.6,6,11,10.1,15.6c8.8,9.9,18,19.5,27.1,29.2c3.8,4,8.5,6.9,12.7,10.4c7.2,6,15.5,9.4,23.6,13.5
				c6.7,3.4,13.5,6.8,21.2,7.7c1.5,0.2,3.1,0.4,4.3,1.2c5.1,3.4,10.6,4.9,16.7,4.6c1.1-0.1,2.3,0.2,3.4,0.4
				c12.9,2.2,25.8,4.5,38.7,6.6c2,0.3,4.2,0.2,6.2,0.1c10.4-0.5,20.7-1.9,31.1-1.8c8.9,0.2,17.8-1.1,26.5-3.5c1.3-0.3,2.5-1,3.7-1.5
				c1.4-0.6,2.7-1.6,4.2-1.8c14.5-2,27.3-9.1,41.1-13c7.7-2.2,14-7,20.1-12.3c8.3-7.2,15.3-15.7,24.6-21.9c4.2-2.7,6.8-8,9.8-12.3
				c1.6-2.3,2-5.4,3.7-7.6c4.5-5.7,4.4-12.7,6.5-19.1c2.8-8.8,3.5-17.9,5.1-26.8c0.3-1.7,0.5-3.4,0.5-5.1
				c-0.7-16.1,0.1-32.4-4.5-48.1c-2.2-7.6-5.6-14.9-8.3-22.3c-0.8-2.1-1.5-4.3-2.1-6.5c-2.4-8.9-4.8-17.9-7.2-26.9
				c-1.4-5.2-9.3-7.9-14-4.6c-4.9,3.5-7.9,7.7-7.1,14.4c1.4,11.7,2.3,23.4,7.8,34.2c0.4,0.8,0.8,1.8,0.9,2.7
				c1.3,11.7,5.8,22.6,7.8,34.2c0.6,3.5,0.5,7.2,0.1,10.7c-0.6,6.6-1,13.3-2.6,19.7c-2.1,8.8-5.2,17.5-7.9,26.1
				c-2.2,7-7.5,11.7-12.2,16.9c-7.6,8.5-17.2,14.2-26.9,19.9c-2.7,1.6-5.9,2.5-9,3.5c-3.1,1-6.3,1.6-9.3,2.6
				c-3.7,1.2-7,0.7-10.4-1.3c-2-1.2-3-2.5-2.9-5c0.4-9.7,0.3-19.4,0.8-29.1c0.4-6.2,1.5-12.4,2.3-18.6c1.9-14.3,4.8-28.4,5-42.9
				c0.2-14.9,5.3-29.1,5.4-44c0-4.2,2.3-8.4,3-12.7c1.4-9.4,2.2-18.9,3.5-28.3c1.3-8.8,3.3-17.5,4.6-26.3
				c1.5-10.3,5.2-20.2,4.4-30.9C756.1,955.5,757.7,951,761.2,947.2z"/>
			<path class="st2" d="M1226.6,1061c-0.5,11.8-1.3,23.5-1.3,35.3c0.1,12.4-1.4,25.1,3.2,37.2c0.4,1,0.4,2.2,0.5,3.4
				c0.9,8,2.1,15.9,7.4,22.4c0.6,0.7,1.1,1.7,1.2,2.6c1.3,9.3,7.1,16.7,10.5,25c0.9,2.2,3.1,3.9,4.3,6c2.5,4.4,4.6,9.1,7.3,13.4
				c1.7,2.7,3.9,5.1,6.3,7.2c7.5,6.9,15.2,13.7,22.9,20.5c5.9,5.1,12.5,9.1,19.4,12.7c9.8,5.2,20.4,8.2,30.5,12.3
				c9.5,3.8,19.2,5.7,29.4,5.9c3.4,0.1,6.8,0,10.2,0.3c1.6,0.1,3.3,0.8,4.8,1.5c3,1.3,5.7,3.1,8.8,4.1c2.6,0.9,5.6,1.5,8.3,1.3
				c11-1.1,21.9-2.2,32.8-3.9c7.1-1.1,13.9-0.8,20.9,0.4c9.5,1.6,18.9,1.3,28.1-1.8c1.6-0.6,3.3-1.1,5-1.3
				c8.6-0.8,16.3-4.5,24.2-7.5c4.5-1.7,8.6-4.8,12.8-7.2c3.1-1.8,6.1-3.9,9.4-5.3c11.6-4.8,18.5-14.1,24.4-24.4
				c0.7-8.3,5.3-15.4,6.9-23.3c2.4-12.5,3.6-25.2,5.3-37.7c0.9-6.2,1.9-12.3,2.8-18.5c0.2-1.1,0.4-2.4,0-3.4
				c-2.3-5.3-1.6-10.8-1.8-16.3c-0.2-4.5-0.6-9.1-0.7-13.6c0-2.6,0.5-5.3,0.5-7.9c0.4-10.6,0.5-21.2-1-31.8
				c-1.4-10-5.1-19.2-8.3-28.6c-0.4-1.1-0.7-2.2-0.9-3.3c-0.4-1.7-0.7-3.4-1.1-5c-1.9-8.1-5.8-14.3-15-15.6
				c-9.9-1.4-19.3-0.8-27.9,4.8c-3.3,2.1-5.1,5-5.8,8.8c-0.2,1.1-0.1,2.4-0.6,3.4c-2.8,5.6,0.1,9.3,3.8,13c4.1,4.1,8.9,7.8,11,13.5
				c2.1,5.7,4,11.5,6.1,17.2c2.4,6.7,3.4,13.6,3.6,20.6c0,0.9,0.1,2,0.5,2.8c3.9,8.9,3.1,18.2,2.3,27.5c-0.2,2.8-0.2,5.6-0.5,8.4
				c-1,10.3-6.4,18.5-12.1,26.6c-5.3,7.6-10.6,15.4-17,22c-7.2,7.3-14.1,15.6-24.9,18.3c-1.1,0.3-2.5,0.5-3.1,1.3
				c-3.9,4.6-9.9,3.4-14.7,5.4c-1.9,0.8-3.4-0.3-4-2.2c-2-5.9-3.9-11.8-2.1-18.3c1.3-4.7-0.3-9.3-1.6-13.8c-1-3.5-2.6-6.7-2-10.5
				c0.1-0.9,0.1-2-0.4-2.8c-3-5.9-2.8-12.5-3.5-18.8c-0.6-5.6-2.7-10.3-6.7-14c-1.8-1.7-2.5-3.5-2.9-5.8c-1.5-9.4-2.3-19-5.3-27.9
				c-3.7-11-3.7-22.4-6.1-33.5c-0.7-3.3-1.3-6.7-2.3-10c-3.8-12.4-4-25.4-5.9-38.1c-1.1-7.6-3.3-15.1-4.7-22.8
				c-2.1-12.1-3.9-24.3-5.8-36.5c-0.3-1.7-0.9-3.3-1.2-4.9c-0.6-3.5-1.4-7.1-1.5-10.7c-0.1-3.6,0.9-4.5,4.3-4.7
				c6.1-0.5,12.1-0.9,18.2-1.1c6.3-0.2,12.6,0,18.6-2c6.4-2.1,11.9,1.1,17.6,2.9c8.5,2.7,16.8,6,25.2,9c4.2,1.5,8.5,3.4,12.9,4.2
				c11.3,2,20.5,8.8,31,12.7c4.1,1.5,8.3,2.7,12.3,4.3c7.4,2.9,14.7,6.1,22.1,9.1c1.1,0.4,2,1,3.1,1.4c7.7,2.7,15.2,5.8,23,8
				c10.9,3,20.9,7.8,30.9,12.9c1.8,0.9,4,1.1,6,1.6c9.2,2.5,17.8,6.3,26.3,10.7c7.1,3.7,14.3,7,21.7,10c2.9,1.2,5.3,2.7,7.4,5
				c1.7,1.9,4,3.3,6.2,4.8c4.4,3,8.6,6.2,13.3,8.6c10.3,5.3,18.1,13.5,26.2,21.4c9.6,9.4,19.5,18.5,28.7,28.2
				c5,5.3,8.9,11.7,13.3,17.6c2.3,3.2,4.5,6.5,6.8,9.8c1,1.4,2,2.7,2.8,4.2c2.7,5.1,2.8,5.3-2.3,8.4c-6.1,3.6-8.7,8.6-8.3,15.6
				c0.2,3.1,1,5.8,3.5,7.4c6.5,4.1,8.6,10.9,11.4,17.3c1.8,4.2,3.6,8.4,5.3,12.6c1.1,2.8,2.1,5.7,3.1,8.6
				c3.4,10.3,6.8,20.5,10.1,30.8c0.7,2.3,0.8,4.8,1,7.3c0.7,7,1.1,14,2,20.9c1.1,8.1,2.6,16.1,1.7,24.3c-0.4,3.5,0.4,7.2,1.2,10.7
				c1.1,5.2,0.1,9.4-4.5,12.4c-5.4,3.6-7.3,9.7-9.3,15.3c-0.9,2.5-0.3,5.7,0.3,8.4c1.1,5.2,2.7,10.3,4.1,15.4
				c1.4,5.1,3.1,10.1,4.2,15.3c1.1,5.4,2,10.8,2.3,16.3c0.4,8.1,0.2,16.3,0.3,24.4c0,5.5,0,11,0.2,16.5c0.3,12.1,0.7,24.2,1,36.4
				c0,0.6,0,1.2-0.2,1.7c-2.5,8-1.9,16.2-2.1,24.3c-0.1,4.4-0.5,8.6-2.4,12.8c-1,2.1-0.8,4.8-0.9,7.3c-0.1,8.2-1.6,16.2-4,24
				c-0.7,2.3-0.5,4.9-0.8,7.3c-1.1,9.4-2.3,18.8-3.6,28.2c-0.2,1.3-1.4,2.6-2.3,3.8c-2.8,3.4-5.1,6.9-6,11.4
				c-0.5,2.7-1.6,5.6-3.3,7.8c-4.8,6.2-6.6,13.6-8.3,21c-1.7,7.3-6.8,12.1-11.7,17.1c-1.1,1.1-3.1,1.6-4.7,1.8
				c-3,0.3-5.4,1.6-7.4,3.9c-7.4,8.4-15.2,16.5-22,25.4c-4.5,5.9-8.6,12-13.9,17.1c-7.5,7.3-14.9,14.6-22.6,21.6
				c-3.9,3.6-8.4,6.5-12.4,9.9c-8.1,6.8-16.1,13.8-24.1,20.7c-0.4,0.4-0.8,0.9-1.3,1.1c-10.1,4.8-17.7,13.1-27,18.9
				c-8.7,5.4-17.5,10.8-26.3,16c-7.8,4.6-15.6,9.3-23.7,13.4c-13.2,6.7-26.5,13.2-39.9,19.5c-3.2,1.5-6.9,2-10.5,2.3
				c-6.5,0.6-11.9,3.5-17.4,6.7c-2.4,1.4-5.1,2.4-7.8,3.2c-12.2,3.7-24.9,5.2-37.5,6.4c-4.9,0.5-9.8,0.3-14.7,0.5
				c-2.5,0.1-5,0.8-7.4,0.5c-7.4-0.9-14.7,1.2-22,1.1c-12-0.1-23.9,0.7-35.8,1.1c-17.1,0.6-34.2,0.9-51.3-0.9
				c-2.8-0.3-5.5-1.5-8.3-1.9c-12.8-1.7-25.6-3.2-38.4-4.9c-10.1-1.3-20.4-1.4-30.3-5c-5.8-2.1-12.3-2.3-18.2-4.3
				c-6.6-2.3-13.4-3.9-20.1-6c-9.9-3.1-19.7-6.9-29.3-11c-7.6-3.3-14.8-7.6-22.2-11.3c-7.4-3.7-15-7.3-22.5-10.9
				c-0.8-0.4-1.7-0.9-2.4-1.5c-7.3-5.7-14.3-12.1-22.1-16.9c-8.2-5.1-14.5-12.2-21.9-18.1c-1.5-1.1-2.8-2.7-3.6-4.3
				c-2.4-5.3-6.4-9.3-10-13.7c-2.9-3.5-5.4-7.3-8-11c-2.6-3.7-5-7.6-7.7-11.3c-2.3-3.3-4.3-6.6-5.1-10.7c-1-5.1-3.6-9.5-7.1-13.4
				c-3-3.2-3.7-7.9-1.1-10.9c4.7-5.5,6.5-12.4,9.8-18.5c4.5-8.3,8.5-16.9,12.5-25.5c1.1-2.3,1.7-5,2.6-7.4c1.8-4.6,3.6-9.1,5.5-13.6
				c0.7-1.7,2.1-3.2,2.7-5c1.8-5.9,3.4-11.9,5.1-17.9c0.6-2,1-4.1,1.8-6c1.4-3.7,3.1-7.3,2.9-11.5c-0.1-1.1,0.4-2.2,0.9-3.3
				c4.5-10.3,6.5-21.4,8.8-32.3c0.9-4.2,2.8-8.3,3.5-12.5c1.1-6.7,1.7-13.5,2.4-20.3c0.6-6,1.2-12.1,1.7-18.1c0.1-1.3,0.4-2.7,0.1-4
				c-3-14.9-1.4-30-1.9-44.9c-0.1-3.4,0-6.9-0.3-10.3c-0.3-2.8-1.4-5.5-1.8-8.3c-1-6.2-1.8-12.4-2.6-18.6
				c-1.6-12.2-3.2-24.5-4.9-36.7c-0.6-4.3-1.4-8.6-2.1-12.9c-2.7-16.9-5.4-33.7-8-50.6c-1.7-10.9-4.1-21.6-6.9-32.2
				c-2.4-9.2-4.3-18.5-6.6-27.7c-2-7.9-4.5-15.6-6.7-23.5c-0.8-2.9-1.3-5.9-2.2-8.8c-0.8-2.5-2.1-4.8-3.2-7.3c-1.4-3.3-2.7-6.6-4-10
				c-1.8-4.4-3.3-8.9-5.4-13.1c-3.5-7.3-7.2-14.6-11-21.8c-2.4-4.6-2.4-7,1.3-10.7c4-4,6.7-8.7,8.6-13.9c1.5-4.1,3.2-5,7.4-4.2
				c8.5,1.7,10.4,0.6,13.9-7.4c5.4-12.5,12.9-23.4,23.9-32c9.3-7.4,17.6-16.1,26.5-24.2c3.1-2.8,6.5-5.2,9.7-7.9
				c2.2-1.8,4.3-3.7,6.4-5.6c6.1-5.7,12.9-10.4,20.9-13.3c1.8-0.7,3.4-1.6,5.2-2.3c9-4,18.3-7.4,27-12c9.6-5,18.6-11.1,27.9-16.5
				c4.2-2.5,8.6-4.7,13-6.9c1.1-0.6,2.6-0.5,3.8-0.9c3.4-1,7-1.8,10.2-3.2c3.8-1.6,7.5-2.8,11.6-2.1c5.7,1.1,10.4-1.2,15-4
				c1.6-1,3.3-1.9,5-2.6c5.1-2,6.2-1.6,8.1,3.3c0.8,2.1,1.6,4.4,1.5,6.6c-0.7,10.8,2.7,21,4.1,31.5c0.1,0.9,0.4,1.9,0.5,2.8
				c1.2,13.6,2.4,27.2,3.7,40.8c1.3,13.6,2.6,27.2,3.9,40.8c0.1,1.5,0.5,3,0.5,4.5c-0.1,11.2,1.1,22.3,2.9,33.4
				c1.1,6.3,0.9,12.9,1.6,19.3c0.8,8.5,1.9,17,2.8,25.5c0.5,4.7,0.6,9.5,0.9,14.2c0.8,10.8,1.6,21.6,2.6,32.4
				c0.3,3.4,1.2,6.6,3.4,9.5c2.8,3.6,2.5,7.9,1.7,12.1c-0.5,2.8-2.6,3.8-5.2,2.5c-3.5-1.9-7-3.9-10.2-6.3
				c-9.1-7.1-18.1-14.3-26.9-21.9c-4.4-3.8-8.7-8-10.5-13.9c-0.1-0.2-0.1-0.4-0.2-0.5c-6.6-8-9.1-18.3-14.3-27.1
				c-4.5-7.5-6.9-15.9-9.4-24.3c-3.7-12.6-2.4-25.7-4.3-38.4c-0.1-0.7,0-1.5-0.1-2.3c-2.1-11.8,3.8-21.1,9.3-30.7
				c1.6-2.7,2.5-5.9,3.2-9c0.3-1.3-0.4-3.1-1.2-4.2c-3.8-5.6-12.3-7.9-18.8-6c-10.1,2.8-12.6,10.6-13.8,19.4c-0.4,2.6-0.1,5.3-0.1,8
				C1226.8,1061,1226.7,1061,1226.6,1061z M1797.6,1263.5c-0.2,0-0.4,0-0.6,0c0-3.6,0.4-7.2-0.1-10.8c-0.6-4.4-4.8-6.5-7.9-4
				c-2.4,2-5.1,4.5-6,7.3c-1.6,5.2-2.1,10.7-2.8,16.1c-0.9,7.1-1.4,14.3-2.2,21.4c-0.4,3.7-0.1,7.1,2.7,10c2.5,2.6,5.1,3,8,0.9
				c3.6-2.6,5.6-6.1,6-10.5C1795.7,1283.8,1796.6,1273.6,1797.6,1263.5z"/>
			<path class="st2" d="M1292.8,878.5c-0.1,1.4-0.1,2-0.1,2.6c-0.3,6-0.5,5.7-6.4,4.8c-8.4-1.4-16.8-2.4-25.4-0.4
				c-4,1-8.3,1.1-12.4,1.8c-9.9,1.6-19.8,3.2-29.7,4.8c-1.1,0.2-2.2,0.6-3.2,1.2c-7.7,4.9-16.4,6.6-25,9c-6.2,1.8-12,4.6-17.9,7.1
				c-3.8,1.6-7.5,3.9-11.4,5.2c-11.3,3.8-21.1,10.2-30.8,16.9c-2.5,1.7-5.3,3-8,4.3c-11,5.3-21.7,10.9-30.9,19.1
				c-0.8,0.8-1.8,1.5-2.3,2.5c-4.9,9.4-12.7,16.5-19.3,24.6c-6.3,7.8-13.1,15.2-19.7,22.7c-5.2,5.9-9.1,12.6-13,19.3
				c-2.2,3.9-5.4,7.2-8.1,10.8c-1.5,1.9-2.7,4.1-4.4,5.9c-3.6,3.9-5.3,3.7-8.6-0.3c-1.4-1.8-3.1-3.4-4.5-5.2
				c-4.1-5.1-8.1-4.1-12.2-2.3c-5.3,2.3-5.2,2.3-9.1-1.6c-5.5-5.5-11.7-10.4-16.4-16.5c-7.4-9.4-17.7-15.5-25.7-24.1
				c-3.6-3.8-8.4-6.4-12.9-9.3c-5.1-3.3-10.5-6.1-15.6-9.4c-8.1-5.2-16.3-10.4-24.2-16c-9.8-6.9-19.3-14.2-30.7-18.4
				c-0.2-0.1-0.4-0.1-0.5-0.3c-9.1-6.7-19.5-10.7-30-14.5c-3.6-1.3-7.1-2.7-10.8-3.5c-5-1.1-10.1-1.7-15.2-2.2
				c-3.8-0.4-7.6-0.4-11,1.9c-5.1,3.5-10.2,2.3-15-0.7c-4.5-2.8-8.7-6-14.5-6.1c-2.4,0-2.9-2-2.6-4.2c2.6-17.3,3.8-34.7,8.7-51.6
				c3.1-10.7,5.4-21.7,8.1-32.6c0.8-3.3,2.1-6.5,2.9-9.8c1.3-4.8,2.4-9.6,3.5-14.4c1.7-7.8,3.2-15.6,4.8-23.4
				c0.1-0.4,0.3-0.7,0.3-1.1c1.4-15,7.2-29,10.4-43.6c3.3-14.8,6.6-29.6,11.8-43.9c3.5-9.6,7-19.3,10-29c3.2-10.3,5.5-20.9,8.8-31.2
				c2.8-8.9,6.3-17.5,9.5-26.2c0.7-2,1.6-3.9,2-5.9c2.5-13.4,9.1-25.3,14.7-37.5c2.4-5.2,4.5-10.5,6.7-15.7c0.7-1.7,1.5-3.5,2.4-5.2
				c2.5-5.1,4.9-10.1,6.4-15.7c1.5-5.4,4.4-10.4,6.8-15.5c8.2-17.3,15.2-35.1,22.5-52.8c0.2-0.5,0.3-1.1,0.7-1.6
				c5.7-6.5,8.4-14.7,12.9-21.9c1.9-3.1,4.5-6,8.3-6.4c8.5-1.1,15.6-5.9,23.5-8.3c4.3-1.3,8.7-2.7,13.1-3.3
				c11.3-1.4,22.6-2.5,34-3.6c18.1-1.7,36-1,54,1.9c7,1.1,14.4,0.6,21.6,0.2c10.5-0.5,20.8,0.1,31.1,2c7.8,1.4,15.8,2.1,23.7,3.1
				c6,0.7,12.1,1.2,18.1,1.9c5.4,0.6,9.2,3.2,10.7,8.7c1.5,5.3,2.7,10.7,4.7,15.8c5.7,13.9,8.7,28.7,15.5,42.2
				c2.5,5,3.4,10.8,5.1,16.2c2.4,7.6,4.9,15.1,7.3,22.7c1.8,5.6,3,11.4,5.2,16.8c5.2,12.8,11,25.4,16.3,38.2c1.3,3.1,1.4,6.8,3,9.8
				c4.5,8.5,6.7,17.7,8.1,27.1c0.3,1.8,1.2,3.6,1.9,5.3c1.6,4.4,3.3,8.9,4.8,13.3c1.9,5.6,3.6,11.2,5.4,16.8
				c0.5,1.4,1.1,2.9,1.3,4.4c0.6,5.7,4.3,8.6,9.4,9.1c4.8,0.5,7.1,2.8,8.1,7.2c1.4,6.5,3.1,12.9,4.7,19.3
				c3.8,15.1,7.8,30.1,11.4,45.2c2.4,10.2,4.4,20.4,6.2,30.7c1.8,10.8,3.1,21.8,4.6,32.7c1.3,8.8,2.5,17.7,3.9,26.5
				c0.7,4.5,2.2,8.8,3,13.3c0.9,5.8,1.3,11.7,2.1,17.5c0.9,6.2,2.1,12.3,3.2,18.5C1292.6,875.6,1292.7,877.5,1292.8,878.5z"/>
			<path class="st2" d="M702.7,1211.4c-2.4,0.5-4.4,1-6.3,1.3c-9,1.2-18,2.4-27.1,3.5c-1.9,0.2-3.8,0.7-5.7,0.6
				c-7.9-0.6-15.8-1.3-23.8-2c-2.8-0.2-5.7-0.3-8.5-0.4c-4.1-0.2-5.1-0.7-6-4.7c-1-4.4-1.3-8.8,0-13.4c1.1-3.9,1.4-8.3,0.8-12.3
				c-1.6-9.6-0.3-18.9,1.3-28.3c1.2-7.5,1.7-15,2.3-22.6c0.6-8.1,0.9-16.3,1.3-24.5c0-0.6,0-1.2,0.2-1.7c4.6-11.7,4-24.3,6.6-36.3
				c2.3-10.8,4.8-21.5,7-32.3c1.3-6.1,2.1-12.3,3.1-18.5c1.3-8,2.6-16.1,4-24.1c0.2-1.1,0.6-2.2,1.1-3.2c8.1-19,12.9-38.9,16.9-59
				c0.2-0.9,0.2-1.9,0.6-2.8c4.5-9.6,5.9-20,7.6-30.3c2-11.8,5.1-23.4,9-34.7c1.4-4.1,2.3-8.4,3.5-12.6c1.2-3.8,2.6-7.5,3.8-11.2
				c1.6-5.4,3.2-10.9,4.5-16.4c1.2-5,1.8-10.1,3.2-15c1.5-5.3,3.3-10.5,3-16.1c0-0.6,0.1-1.1,0.2-1.7c3-10.8,6.1-21.5,9-32.3
				c2.4-9,4.4-18,6.6-27.1c0.2-0.7,0.2-1.5,0.4-2.2c3.3-9.7,6.5-19.3,9.8-29c0.2-0.7,0.7-1.4,0.8-2.1c1.1-11.7,7.2-21.9,9.4-33.3
				c0.4-2.2,1.6-4.3,2.3-6.4c5.3-15,10-30.3,16.2-44.9c3.6-8.7,5-18.3,10.5-26.3c0.8-1.2,1.4-2.7,1.8-4.2
				c5.2-18.2,10.3-36.5,15.6-54.8c1.1-3.8,2.6-7.5,3.9-11.3c0.6-1.6,1.4-3.2,1.6-4.8c1.2-10.1,6.9-18.4,10.6-27.5
				c4.2-10.6,11.2-19.2,17.7-28.3c4.4-6.2,7.8-13,12-19.3c5.4-8,11-15.9,16.7-23.7c1.8-2.5,3.4-5,3.4-8.2c0.2-7.1-5.7-11.7-11.7-8.1
				c-6.5,4-12,3.1-18.1,0.1c-2-0.9-4.4-1-6.7-1.3c-7.5-0.7-14.9-2-22.6-1.3c-6.6,0.6-13.2-0.5-19.9-0.8c-4-0.2-8,0-12-0.2
				c-9.3-0.5-18.5-1.4-27.8-1.7c-7.2-0.3-14.4,0.1-21.6,0.2c-1.5,0-3.1,0.5-4.5,0.3c-11.3-1.3-22.7,1.6-34.1-1
				c-9.3-2.1-18.5,0.5-27.7,1.7c-7.7,1-15.5,1.4-23.2,1.9c-2.2,0.1-4.6-0.2-6.8-0.6c-6.6-1.3-9-3.4-9.6-10
				c-0.7-7.9-0.5-15.9-0.7-23.9c-0.3-8.1-0.2-16.3-1-24.4c-1.3-13.2-2.9-26.4-2.1-39.7c0.6-9.5,7.4-14.5,16.8-12.3
				c11,2.6,22.1,4,33.3,4.5c4.9,0.2,9.9,0.1,14.8-0.2c13-0.8,25.8,1,38.7,1.8c8.1,0.5,16.2,1.5,24.4,1.8c6.1,0.2,12.1-0.6,18.2-0.9
				c7.6-0.4,15.2-1.2,22.8-1c19.5,0.6,39,2.1,58.5,2.6c9.6,0.3,19.3-0.7,29-1c3.4-0.1,6.8-0.4,10.2-0.1c11.7,0.8,23.5,2,35.2,2.8
				c4.2,0.3,8.4-0.1,12.5-0.2c1.7,0,3.4,0,5.1,0c3.8,0.2,7.5,0.4,11.3,0.5c19,0.5,37.9-2.4,56.8-3.6c3-0.2,6.1-0.2,9.1-0.2
				c17.3,0.1,34.6,0.6,51.9,0.1c11.4-0.3,22.7-2,34-2.8c6.8-0.5,13.7-0.8,20.5-0.8c16.5,0,33.1-0.1,49.6,0.3
				c13.5,0.3,26.9,1.3,40.4,2c18.6,0.9,37.2,1.9,55.8,2.6c10.8,0.4,21.6-0.1,32.4,0.2c8.7,0.3,17.4,1.8,26.1,1.7
				c11.7-0.2,23.5-1.2,35.2-2.3c4.2-0.4,8.2-0.8,12.4,0.5c2.8,0.9,6,0.7,9,1c10.2,0.9,20.4,1.7,30.6,2.7c1.3,0.1,2.6,0.7,3.8,1.1
				c6.1,2.2,12.3,4,18.8,4.2c5.5,0.2,6.6,1.5,6.7,7c0.1,3.6,0,7.2-0.3,10.8c-0.4,4.4-0.7,8.7,0.9,12.9c0.5,1.3,0.4,3,0.3,4.5
				c-0.2,6.5-0.4,12.9-0.7,19.4c-0.1,3-0.6,6-0.6,9.1c0,4.9,0.1,9.9,0.3,14.8c0.3,4.5-0.8,5.9-5.3,6c-5.1,0.1-10.3,0-15.4-0.3
				c-6.6-0.4-13.3-1.1-19.9-1.6c-1.1-0.1-2.3-0.1-3.4,0c-8.6,1.2-17.2,3-25.9,3.5c-15.7,0.9-31.3,3.9-47.1,2.8
				c-6.1-0.4-12.1-1-18.2-1.6c-7-0.7-14-1.1-21,0.5c-4.3,1-8.6,0.6-13,0c-8.3-1.1-16.6-2-24.9-2.1c-13-0.2-25.7-2.3-38.5-4.2
				c-8.2-1.2-16.7-1.1-25-1.8c-6-0.5-12-1.4-18.1-2.2c-7.7-1-15.4-2.6-23.1-3.2c-13.8-1-27.7-1.8-41.5-1.9c-9.5,0-18.9,1.4-28.4,2.2
				c-4.5,0.4-9,0.9-13.6,1.3c-5.7,0.5-11.3,1.1-17,1.3c-4.6,0.2-9.2,0.7-13.7,0c-7.7-1.3-15.1,0.3-22.7,1.1
				c-12.8,1.3-25.7,2.9-38.5,3.4c-6.5,0.2-13.2-1.2-19.6-3c-8.6-2.3-18-0.3-19.8,10.9c-0.1,0.9-0.4,1.9-0.7,2.7
				c-2.4,6.6-4.8,13.1-7.3,19.7c-0.9,2.3-1.8,4.6-2.9,6.8c-2.8,6-5.8,11.9-8.5,17.9c-1.5,3.3-2.3,6.8-3.7,10.1
				c-1.3,3.1-2.8,6.2-4.3,9.2c-3.5,7.4-7,14.7-10.5,22.1c-2.3,5-4.6,10-6.9,15c-0.2,0.3-0.2,0.8-0.5,1c-4.1,4.4-4.7,10.2-6.9,15.4
				c-4.6,11-9.4,22-14.2,32.9c-0.8,1.9-1.7,3.8-2.4,5.8c-2.3,5.8-4.8,11.4-8.1,16.9c-3.1,5.2-4.3,11.6-6.3,17.5
				c-0.9,2.4-1.9,4.8-2.7,7.3c-1.4,4.3-2.5,8.7-3.9,13c-1,3.2-1.6,6.8-3.5,9.5c-4.3,6-5.5,12.8-6.6,19.8c-0.1,0.9,0,2-0.3,2.8
				c-3.4,9.2-6.8,18.3-10.2,27.4c-0.7,1.8-1.5,3.5-1.9,5.4c-2.2,10.9-4.3,21.9-6.4,32.9c-0.3,1.3-0.5,2.6-1.1,3.8
				c-3.9,7.7-5.5,16-7.2,24.4c-1.5,7.7-2,15.8-6.2,22.9c-1.3,2.2-2.4,4.9-2.7,7.5c-0.9,7-1.8,13.9-3.8,20.7
				c-1.9,6.5-3,13.3-4.7,19.9c-2.4,9.6-4.6,19.2-7.6,28.6c-1.7,5.4-2.2,11-3.3,16.5c-0.2,0.7-0.3,1.6-0.7,2.2
				c-5.4,7.5-4.9,16.5-6.8,24.9c-1.3,5.7-1.6,11.7-2.8,17.4c-0.7,3.5-2.5,6.7-3.4,10.2c-0.9,3.4-1.2,7-1.8,10.6
				c-0.8,5-1.7,10.1-2.4,15.1c-0.3,2-0.3,4.1-0.6,6.2c-1.3,10.5-2.5,21.1-4.1,31.6c-0.8,5.4-2.7,10.6-3.8,16
				c-1.2,6.1-2,12.3-2.9,18.5c-1.2,9.2-2,18.4-3.6,27.6c-0.9,5.2-3.1,10.1-4.5,15.2c-0.7,2.5-1.1,5.1-1.4,7.7
				c-1.2,8.4-2.3,16.9-3.3,25.3c-1.4,11.9-2.6,23.8-4.1,35.6c-0.6,4.5-1.7,9-2.4,13.5c-1.6,10.5-3.1,21-4.7,31.4
				c-1.5,10.1-3.1,20.1-4.3,30.3c-0.7,5.8-0.6,11.7-0.5,17.5C700.4,1206.5,701.7,1208.6,702.7,1211.4z"/>
			<path class="st2" d="M1403.8,1227.3c-8.3-0.3-15.8,0.5-22.9,3.9c-1.8,0.8-4.1,0.9-6.1,0.7c-4.7-0.5-9.4-1.4-14.1-2.3
				c-5.7-1-7.8-3.5-7.5-9.3c0.3-5.3,0.6-10.6,0.9-15.9c0.1-2.3,0.2-4.6,0.4-6.8c0.5-5.1,2.3-9.3,6.5-12.8
				c10.1-8.2,7.2-13.5-0.7-18.8c-3.9-2.6-8-5.2-12.2-7.3c-3.4-1.7-4.8-4.2-5.1-7.6c-1.5-16.6-3.7-33.2-3.7-49.9
				c0-8.5-1.9-17-2.2-25.5c-0.5-12.4-3.9-24.3-5.3-36.6c-0.7-6.4-0.4-12.9-0.5-19.4c-0.2-12.7-1.4-25.3-4.1-37.8
				c-1.1-5.3-1.6-10.8-2.2-16.3c-1-8.3-1.8-16.6-2.9-24.9c-0.8-5.7,0.1-8,4.9-10.9c1.1-0.7,2.3-1.4,3.4-2.1
				c5.9-4.3,6.2-11.7,0.5-16.3c-2.5-2-5.4-3.5-8.2-5c-3.6-1.9-5.5-4.6-6.1-8.9c-1.6-11-2.1-22.2-5.2-33.1
				c-1.4-4.9-1.5-10.1-2.2-15.2c-1.8-13.5-3.6-27.1-5.5-40.6c-1.1-7.5-2.7-14.9-3.7-22.4c-1.5-10.9-2.7-21.8-4-32.8
				c-0.3-2.4-0.8-4.8-1.3-7.2c-0.6-3-1.2-5.9-1.9-8.9c-2-7.5-4.3-14.9-6.2-22.4c-3.1-11.9-6.1-23.9-9.1-35.8
				c-0.7-2.7-1.6-5.4-2.5-8.1c-0.5-1.8-1.4-3.6-1.5-5.4c-0.4-6.5-2.7-12.5-4.8-18.6c-2-5.9-3.3-12-4.9-18
				c-2.8-10.2-5.6-20.5-8.4-30.7c-1.6-5.9-2.9-11.8-4.4-17.7c-0.3-1.3-0.5-2.6-0.9-3.9c-4-13-8.1-26-12.1-39
				c-3-9.8-5.6-19.7-8.7-29.4c-2.2-7-5.1-13.9-7.6-20.8c-1.4-3.9-2.5-7.9-3.9-11.8c-2.5-7.3-4.9-14.7-7.7-21.9
				c-2.7-6.9-5.7-13.6-6.8-21.1c-0.6-4-2.8-7.8-4.3-11.7c-0.4-1.1-1.1-2-1.4-3.1c-0.8-2.7,0-4.1,2.7-4.4c2.4-0.3,4.9-0.2,7.4,0.1
				c6.4,0.6,12.8,1.8,19.3,0.4c0.5-0.1,1.1-0.1,1.7,0c8.7,1,17.4,2,26,3.1c3.3,0.4,5.4,2.8,6.8,5.6c1.8,3.5,3.2,7.3,5,10.9
				c5.3,10.7,8.1,22.3,12.3,33.4c0.3,0.7,0.4,1.5,0.8,2.1c5.9,9.4,7.2,20.3,11,30.5c2.4,6.6,4.7,13.2,5,20.4
				c0.1,2.2,0.8,4.6,1.8,6.6c4.3,8.6,5.7,18,8.1,27.2c1.6,5.8,3.8,11.5,5.8,17.2c0.5,1.4,1.2,2.8,1.5,4.3c2.5,11.3,5,22.6,7.5,33.9
				c0.4,1.7,0.8,3.3,1.2,5c1.6,6,3.2,12.1,4.9,18.1c0.5,1.8,1.3,3.5,2,5.3c1.9,5.4,4.1,10.6,5.7,16.1c2,6.7,3.7,13.5,5,20.4
				c2.2,11.3,4,22.8,6.1,34.2c0.9,4.8,2.5,9.6,3.5,14.4c0.9,4.3,1.4,8.6,2.2,12.9c1.4,7.4,2.6,15,4.6,22.3
				c3.5,13.3,6.2,26.6,7.2,40.3c0.3,4.5,1.9,8.9,3.1,13.3c3.8,14.4,6.4,28.9,7,43.8c0.1,1.5,0.1,3.1,0.6,4.5
				c2.6,7.3,2.5,14.9,3,22.5c0.7,12.3,2.2,24.5,3.4,36.8c0,0.4,0,0.8,0.2,1.1c3.7,4.9,2.2,11.1,4,16.3c3.6,10.7,3.9,22,6.1,32.9
				c2.1,10,2.8,20.3,4.4,30.4c0.9,5.8,2,11.6,3.9,17.1c2.2,6.3,2.1,12.7,2.8,19.1c0.2,1.5,0,3.1,0.5,4.5c3.7,11.1,3.8,22.8,5.9,34.1
				c2.1,10.8,4.7,21.5,6.9,32.3c1.8,8.9,3.3,17.9,5,26.8c0.5,2.6,1.8,5,2.2,7.6c0.7,3.5,1.1,7.1,1.3,10.7c0.2,3.1,0.9,5.8,1.8,8.8
				c3.1,10,7.4,19.4,10.9,29.2c1,2.9,0.5,6.3,0.6,9.5c0.2,5.5,0.4,11,0.3,16.5c0,4.4-1.4,6.8-5.6,7.4
				C1421.8,1224.4,1412.9,1228.6,1403.8,1227.3z"/>
			<path class="st2" d="M1075.9,1032.1c0.8-2.3,1.1-4,1.9-5.4c1.5-2.6,3-5.2,5-7.5c6.3-7.3,12.7-14.5,19.2-21.6
				c1.4-1.5,3.3-2.6,5-3.6c0.5-0.3,1.8-0.1,2,0.2c0.4,0.7,0.5,1.8,0.3,2.5c-0.3,0.8-1.1,1.5-1.7,2.2c-5.6,6.7-11.2,13.2-16.7,20
				c-2.2,2.8-4.1,5.8-5.9,9C1083.1,1031.1,1080.6,1032.4,1075.9,1032.1z"/>
			<path class="st2" d="M1679.9,1767.3c-5.1,7.3-50,28.9-60.4,29.4c0.3-0.5,0.5-1.1,0.9-1.3c6.4-3.1,12.9-6.2,19.4-9.3
				c3.8-1.8,7.6-3.3,11.3-5.2c3.4-1.7,6.5-3.9,9.8-5.6c5.5-2.8,11.2-5.5,16.8-8.1C1678.1,1767,1678.7,1767.2,1679.9,1767.3z"/>
			<path class="st2" d="M1037.3,1123.4c-5.2-3-7.2-7.1-9.6-10.8c-2-3.2-3.7-6.5-5.7-9.7c-1.6-2.6-1.7-2.6-1.1-6.2
				c2.5-0.9,3.6,1.2,4.1,2.8c1.5,4.9,5,8.4,7.9,12.4C1035.2,1114.9,1037,1118.1,1037.3,1123.4z"/>
			<path class="st2" d="M1189.2,453.7c-4.3-3.2-6.2-9.8-4.4-15.2C1189.8,442.9,1186.8,449.1,1189.2,453.7z"/>
			<path class="st2" d="M1596.3,1802.8c3.1-1,5.5-1.8,9-3C1601.9,1804.6,1601.4,1804.7,1596.3,1802.8z"/>
			<path class="st2" d="M707.8,1794.4c1.8,0.3,3.7,0.5,5.5,0.8c0,0.3,0,0.6,0,0.9c-1.8,0-3.6,0-5.5,0
				C707.7,1795.5,707.7,1794.9,707.8,1794.4z"/>
			<path class="st2" d="M99.8,1603c-0.7-2.7-1.2-5.2,0.7-7.7C102.6,1598.8,102.5,1599.6,99.8,1603z"/>
			<path class="st2" d="M92.7,1493.5c-0.1-0.3-0.3-0.6-0.3-0.9c0-0.1,0.4-0.3,0.4-0.3c0.3,0.2,0.5,0.4,0.7,0.6
				C93.2,1493.1,92.9,1493.3,92.7,1493.5z"/>
			<path class="st2" d="M2098.1,682c-3-1.3-3-1.3-3.9-4C2096.9,677.6,2097.9,678.8,2098.1,682z"/>
			<path d="M1797.6,1263.5c-0.9,10.2-1.9,20.3-2.8,30.5c-0.4,4.4-2.4,7.9-6,10.5c-2.9,2.1-5.5,1.6-8-0.9c-2.8-2.9-3.1-6.3-2.7-10
				c0.8-7.1,1.3-14.3,2.2-21.4c0.7-5.4,1.2-11,2.8-16.1c0.9-2.8,3.5-5.4,6-7.3c3.1-2.5,7.3-0.4,7.9,4c0.5,3.5,0.1,7.2,0.1,10.8
				C1797.2,1263.5,1797.4,1263.5,1797.6,1263.5z"/>
		</g>
	</g>
	<g>
		<path class="st3" d="M728.2,372.4"/>
		<g>
			
				<image style="overflow:visible;opacity:0.4;" width="2063" height="2012" xlink:href="966832C238F01D6A.png"  transform="matrix(1 0 0 1 6.7806 4.6202)">
			</image>
			<g>
				<path class="st3" d="M1474.3,824.9L1474.3,824.9c0,0-42.2-214.5-115.4-379.5h59.1c80.1,0,145.1-95.6,145.1-213.5V110.1H647.2
					c-72.4,0-147,86.4-147,193v0c0,78.6,70.8,142.3,124.2,142.3H694c-73.2,165-119.9,377.9-119.9,377.9l0,0
					c-263.4,31.9-467.4,256.7-466.5,529c1,293.6,241.9,531.4,535.4,529c147-1.2,279.8-62.2,375.2-159.8
					c95.5,97.7,228.4,158.7,375.6,159.8c292.8,2.2,535.1-238.1,535.1-530.9C1928.9,1083.1,1731.4,861.9,1474.3,824.9z M1020.4,977.2
					c-0.7,0.7-1.4,1.4-2.1,2.1c-1.4-1.4-2.8-2.9-4.2-4.3L1020.4,977.2z"/>
			</g>
		</g>
		<circle class="st4" cx="651.4" cy="1350.5" r="439.5"/>
		<circle class="st5" cx="1395.9" cy="1350.5" r="439.5"/>
		<g>
			<path class="st6" d="M801.2,1150.3c38.5-17.4,60.7-42.7,62.7-71.2c1.9-28.5-16.7-56.6-52.4-79.1c-19.2-12.1-42.2-21.8-67.5-28.7
				c-17.4,101-27.1,177.4-29.8,199.8C746.4,1168.7,776.3,1161.6,801.2,1150.3z"/>
			<path class="st6" d="M540.5,981.5c-38.5,17.4-60.7,42.7-62.7,71.2s16.7,56.6,52.4,79.1c20.9,13.2,46.3,23.5,74.3,30.4
				c9.6-72.4,20.5-139.8,32.1-202.2C600.9,961.8,567.8,969.2,540.5,981.5z"/>
			<path class="st7" d="M1569.5,1052.7c-1.9-28.5-24.2-53.8-62.7-71.2c-26.9-12.2-59.5-19.5-94.6-21.4
				c11.6,62.3,22.4,129.5,32,201.7c27.4-6.9,52.3-17.1,72.8-30.1C1552.9,1109.3,1571.5,1081.2,1569.5,1052.7z"/>
			<path class="st7" d="M1235.8,1000c-35.7,22.5-54.3,50.6-52.4,79.1c1.9,28.5,24.2,53.8,62.7,71.2c25.4,11.5,55.8,18.6,88.5,21
				c-2.7-22.3-12.4-99-29.9-200.3C1278.9,977.9,1255.4,987.7,1235.8,1000z"/>
		</g>
		<path class="st8" d="M1024.4,184"/>
		<g>
			<path class="st9" d="M640.6,938.6l107.4,9.3c17.7-99.8,42.4-219.9,74.8-334.8l-102.4,2.2C693.3,702.4,665.4,809.6,640.6,938.6z"
				/>
			<path class="st9" d="M1324.3,602.3l-100.8,2.2c18.6,65.2,34.8,132.3,48.5,196.6l103.3-14.5C1358.6,717,1341.3,655.8,1324.3,602.3
				z"/>
			<path class="st9" d="M1235.2,372.4h108.7c66.3,0,120-53.7,120-120V184H693.3c-59.9,0-108.5,48.6-108.5,108.5v0
				c0,44.2,35.8,80,80,80h148.7C790,421.2,756,500.9,720.4,615.2l102.4-2.2c24.4-86.8,53.2-170.7,86.7-240.6h229.8
				c32.3,67.6,60.3,148.3,84.2,232.1l100.8-2.2C1290.3,494.9,1257.9,419.3,1235.2,372.4z"/>
			<path class="st9" d="M636.6,960.1c-11.6,62.4-22.4,129.7-32.1,202.2c18.8,4.6,38.7,7.8,59.2,9.2c17.2,1.2,34.2,1.1,50.6-0.2
				c2.7-22.4,12.4-98.8,29.8-199.8c1.3-7.7,2.7-15.5,4.1-23.5l-107.4-9.3C639.3,945.7,637.9,952.8,636.6,960.1z"/>
			
				<linearGradient id="SVGID_1_" gradientUnits="userSpaceOnUse" x1="586.5528" y1="19.9678" x2="838.1805" y2="19.9678" gradientTransform="matrix(-8.631876e-02 0.9963 -0.9963 -8.631876e-02 756.5521 359.8587)">
				<stop  offset="0" style="stop-color:#2570B9;stop-opacity:0"/>
				<stop  offset="1" style="stop-color:#1D2B53;stop-opacity:0.4"/>
			</linearGradient>
			<path class="st10" d="M636.6,960.1c-11.6,62.4-22.4,129.7-32.1,202.2c18.8,4.6,38.7,7.8,59.2,9.2c17.2,1.2,34.2,1.1,50.6-0.2
				c2.7-22.4,12.4-98.8,29.8-199.8c1.3-7.7,2.7-15.5,4.1-23.5l-107.4-9.3C639.3,945.7,637.9,952.8,636.6,960.1z"/>
			<path class="st9" d="M1375.4,786.6l-103.3,14.5c13,60.4,23.8,118.4,32.7,169.9c17.4,101.4,27.1,178,29.9,200.3
				c15.9,1.2,32.4,1.2,49.1,0.1c21-1.4,41.4-4.7,60.6-9.5c-9.6-72.3-20.5-139.4-32-201.7C1400.6,897.4,1388.1,839.6,1375.4,786.6z"
				/>
			
				<linearGradient id="SVGID_2_" gradientUnits="userSpaceOnUse" x1="1494.3275" y1="1428.5883" x2="1958.8096" y2="1428.5883" gradientTransform="matrix(0.1389 0.9903 -0.9903 0.1389 2538.895 -885.6008)">
				<stop  offset="0" style="stop-color:#2570B9;stop-opacity:0"/>
				<stop  offset="1" style="stop-color:#1D2B53;stop-opacity:0.4"/>
			</linearGradient>
			<path class="st11" d="M1375.4,786.6l-103.3,14.5c13,60.4,23.8,118.4,32.7,169.9c17.4,101.4,27.1,178,29.9,200.3
				c15.9,1.2,32.4,1.2,49.1,0.1c21-1.4,41.4-4.7,60.6-9.5c-9.6-72.3-20.5-139.4-32-201.7C1400.6,897.4,1388.1,839.6,1375.4,786.6z"
				/>
		</g>
	</g>
</g>
</svg>
